<svg id="Capa_1" enable-background="new 0 0 512 512" height="512" viewBox="0 0 512 512" width="512" xmlns="http://www.w3.org/2000/svg" xmlns:xlink="http://www.w3.org/1999/xlink"><linearGradient id="SVGID_1_" gradientUnits="userSpaceOnUse" x1="256" x2="256" y1="512" y2="0"><stop offset="0" stop-color="#ffbef9"/><stop offset="1" stop-color="#fff1ff"/></linearGradient><linearGradient id="SVGID_2_" gradientUnits="userSpaceOnUse" x1="256" x2="256" y1="389" y2="123"><stop offset="0" stop-color="#ff81ff"/><stop offset="1" stop-color="#a93aff"/></linearGradient><g><g><circle cx="256" cy="256" fill="url(#SVGID_1_)" r="256"/></g><g><g><path d="m327.059 282.6c-20.402 0-40.257-4.026-58.993-11.967-6.133-2.606-13.185-2.632-19.335-.078-3.14 1.307-5.968 3.247-8.344 5.741-23.845-14.287-43.683-34.082-58.004-57.884 2.446-2.347 4.415-5.187 5.734-8.356 2.568-6.148 2.542-13.188-.061-19.292-7.963-18.712-11.996-38.532-11.996-58.897 0-4.901-3.973-8.867-8.882-8.867h-53.294c-4.91 0-8.882 3.966-8.882 8.867 0 35.337 8.449 70.292 24.435 101.058 21.139 40.939 55.376 75.115 96.37 96.208 30.837 15.967 65.854 24.4 101.254 24.4 4.91 0 8.882-3.966 8.882-8.867v-53.2c-.002-4.9-3.975-8.866-8.884-8.866zm0-124.133h-26.647v-26.6c0-4.901-3.973-8.867-8.882-8.867h-35.53c-4.91 0-8.882 3.966-8.882 8.867v26.6h-26.647c-4.91 0-8.882 3.966-8.882 8.867v35.466c0 4.901 3.973 8.867 8.882 8.867h26.647v26.6c0 4.901 3.973 8.867 8.882 8.867h35.529c4.91 0 8.882-3.966 8.882-8.867v-26.6h26.647c4.91 0 8.882-3.966 8.882-8.867v-35.466c.001-4.901-3.972-8.867-8.881-8.867zm35.529 177.333h-8.882v17.733h8.882c14.694 0 26.647 11.932 26.647 26.6 0 4.901 3.973 8.867 8.882 8.867 4.91 0 8.882-3.966 8.882-8.867.001-24.444-19.924-44.333-44.411-44.333z" fill="url(#SVGID_2_)"/></g></g></g></svg>