<svg id="Capa_1" enable-background="new 0 0 512 512" height="512" viewBox="0 0 512 512" width="512" xmlns="http://www.w3.org/2000/svg" xmlns:xlink="http://www.w3.org/1999/xlink"><linearGradient id="SVGID_1_" gradientUnits="userSpaceOnUse" x1="256" x2="256" y1="512" y2="0"><stop offset="0" stop-color="#ffc8d1"/><stop offset="1" stop-color="#fff6f7"/></linearGradient><linearGradient id="SVGID_2_" gradientUnits="userSpaceOnUse" x1="256" x2="256" y1="368.243" y2="143.757"><stop offset="0" stop-color="#ffa68d"/><stop offset="1" stop-color="#fd3a84"/></linearGradient><g><g><circle cx="256" cy="256" fill="url(#SVGID_1_)" r="256"/></g><g><g><g><path d="m256 247.118c-4.905 0-8.882 3.976-8.882 8.882 0 4.905 3.977 8.882 8.882 8.882s8.882-3.977 8.882-8.882c0-4.906-3.977-8.882-8.882-8.882zm142.118 0h-80.839c-3.933-27.125-25.271-48.464-52.396-52.396v-80.839c0-4.91-3.973-8.882-8.882-8.882s-8.882 3.973-8.882 8.882v80.839c-27.125 3.933-48.464 25.271-52.396 52.396h-80.839c-4.91 0-8.882 3.973-8.882 8.882 0 4.91 3.973 8.882 8.882 8.882h80.839c3.933 27.125 25.271 48.464 52.396 52.396v80.839c0 4.91 3.973 8.882 8.882 8.882s8.882-3.973 8.882-8.882v-80.839c27.125-3.933 48.464-25.271 52.396-52.396h80.839c4.91 0 8.882-3.973 8.882-8.882 0-4.91-3.973-8.882-8.882-8.882zm-106.589 17.764h7.983c-3.541 17.375-17.255 31.089-34.631 34.631v-7.984c0-4.91-3.973-8.882-8.882-8.882s-8.882 3.973-8.882 8.882v7.984c-17.375-3.541-31.089-17.255-34.631-34.631h7.983c4.91 0 8.882-3.973 8.882-8.882 0-4.91-3.973-8.882-8.882-8.882h-7.983c3.541-17.375 17.255-31.089 34.631-34.631v7.984c0 4.91 3.973 8.882 8.882 8.882s8.882-3.973 8.882-8.882v-7.984c17.375 3.541 31.089 17.255 34.631 34.631h-7.983c-4.91 0-8.882 3.973-8.882 8.882 0 4.91 3.973 8.882 8.882 8.882zm-62.176-83.948v-37.176c-42.274 10.041-75.554 43.321-85.596 85.596h37.176c8.033-22.458 25.954-40.379 48.42-48.42zm101.713 48.419h37.177c-10.042-42.275-43.323-75.554-85.597-85.596v37.176c22.467 8.042 40.388 25.963 48.42 48.42zm-150.132 53.294h-37.176c10.041 42.275 43.322 75.554 85.596 85.596v-37.176c-22.467-8.042-40.388-25.963-48.42-48.42zm101.713 48.419v37.176c42.274-10.042 75.554-43.321 85.597-85.596h-37.177c-8.033 22.458-25.954 40.379-48.42 48.42z" fill="url(#SVGID_2_)"/></g></g></g></g></svg>