<svg id="Capa_1" enable-background="new 0 0 512 512" height="512" viewBox="0 0 512 512" width="512" xmlns="http://www.w3.org/2000/svg" xmlns:xlink="http://www.w3.org/1999/xlink"><linearGradient id="SVGID_1_" gradientUnits="userSpaceOnUse" x1="256" x2="256" y1="512" y2="0"><stop offset="0" stop-color="#ffbef9"/><stop offset="1" stop-color="#fff1ff"/></linearGradient><linearGradient id="SVGID_2_" gradientUnits="userSpaceOnUse" x1="256" x2="256" y1="398.995" y2="113"><stop offset="0" stop-color="#ff81ff"/><stop offset="1" stop-color="#a93aff"/></linearGradient><g><circle cx="256" cy="256" fill="url(#SVGID_1_)" r="256"/></g><g><g><path d="m184.513 295.9c-5.143-14.066-20.724-21.064-34.331-16.035-13.886 5.083-21.091 20.473-16.049 34.311l24.422 67.01c4.769 13.733 20.107 21.361 34.383 16.175 13.903-5.083 20.968-20.099 16.031-34.294zm-68.976 17.232c-3.308 2.586-6.18 5.673-8.007 9.598-3.035 6.531-3.349 13.829-.89 20.526l12.141 33.596c2.46 6.749 7.432 12.103 13.991 15.094 3.576 1.622 7.379 2.433 11.199 2.433.342 0 .676-.168 1.016-.181-1.273-2.276-2.429-4.635-3.301-7.152-25.248-70.242-24.596-65.511-26.149-73.914zm236.007-121.632c23.554 26.584 34.523 61.178 31.099 95.86 13.133 5.058 9.351 2.839 17.192 6.817 5.617-41.724-7.183-83.789-35.888-115.555 5.174-11.679 1.454-24.651-8.112-32.007-58.265-44.818-139.696-44.818-197.96 0-5.669 4.36-9.316 10.673-10.24 17.77-.643 4.929.164 9.805 2.137 14.243-28.496 31.53-41.326 73.277-36.005 114.729.944-.42 1.801-.978 2.782-1.336l14.461-5.225c-3.238-34.485 7.754-68.861 31.152-95.277 4.103 2.082 7.545 3.123 12.128 3.123 5.861 0 11.548-1.927 16.258-5.563 39.041-30.047 93.572-30.03 132.613 0 8.204 6.288 19.447 6.774 28.383 2.421zm45.046 121.551c-.445 2.423-.964 4.848-1.836 7.238-25.889 70.086-23.668 66.738-27.719 73.89.327.012.654.173.977.173 10.92 0 21.178-6.705 25.137-17.483 0 0 12.351-33.666 12.368-33.718 3.847-11.094-.022-23.035-8.927-30.1zm-34.667-33.186c-13.868-5.014-29.237 2.154-34.331 16.053l-24.457 67.131c-5.077 13.922 2.089 29.228 16.032 34.311 13.96 5.071 29.249-2.114 34.313-16.044l24.492-67.14c5.041-13.837-2.163-29.227-16.049-34.311z" fill="url(#SVGID_2_)"/></g></g></svg>