<svg id="Capa_1" enable-background="new 0 0 512 512" height="512" viewBox="0 0 512 512" width="512" xmlns="http://www.w3.org/2000/svg" xmlns:xlink="http://www.w3.org/1999/xlink"><linearGradient id="SVGID_1_" gradientUnits="userSpaceOnUse" x1="256" x2="256" y1="512" y2="0"><stop offset="0" stop-color="#ffc2cc"/><stop offset="1" stop-color="#fff2f4"/></linearGradient><linearGradient id="SVGID_2_" gradientUnits="userSpaceOnUse" x1="256" x2="256" y1="336" y2="176"><stop offset="0" stop-color="#ffa68d"/><stop offset="1" stop-color="#fd3a84"/></linearGradient><g><g><circle cx="256" cy="256" fill="url(#SVGID_1_)" r="256"/></g><g><g><path d="m348.12 194.412c-1.874-.747-46.52-18.412-92.12-18.412s-90.246 17.665-92.12 18.412c-3.374 1.354-5.586 4.618-5.586 8.255v106.667c0 3.637 2.212 6.901 5.586 8.255 1.874.746 46.52 18.411 92.12 18.411s90.246-17.665 92.12-18.412c3.374-1.354 5.586-4.618 5.586-8.255v-106.666c0-3.638-2.212-6.901-5.586-8.255zm-127.649 17.144h71.059c4.91 0 8.882 3.976 8.882 8.889s-3.973 8.889-8.882 8.889h-71.059c-4.91 0-8.882-3.976-8.882-8.889s3.972-8.889 8.882-8.889zm71.058 88.888h-71.059c-4.91 0-8.882-3.976-8.882-8.889s3.973-8.889 8.882-8.889h71.059c4.91 0 8.882 3.976 8.882 8.889s-3.972 8.889-8.882 8.889zm17.765-35.555h-106.588c-4.909 0-8.882-3.976-8.882-8.889s3.973-8.889 8.882-8.889h106.588c4.909 0 8.882 3.976 8.882 8.889s-3.972 8.889-8.882 8.889zm-204.294-8.889c0 21.461 15.283 39.415 35.529 43.545v-18.516c-10.317-3.682-17.765-13.456-17.765-25.029s7.448-21.348 17.765-25.029v-18.516c-20.246 4.13-35.529 22.084-35.529 43.545zm266.471-43.545v18.516c10.317 3.682 17.765 13.456 17.765 25.029s-7.448 21.348-17.765 25.029v18.516c20.246-4.13 35.529-22.084 35.529-43.545s-15.283-39.415-35.529-43.545z" fill="url(#SVGID_2_)"/></g></g></g></svg>