<svg id="Capa_1" enable-background="new 0 0 512 512" height="512" viewBox="0 0 512 512" width="512" xmlns="http://www.w3.org/2000/svg" xmlns:xlink="http://www.w3.org/1999/xlink"><linearGradient id="SVGID_1_" gradientUnits="userSpaceOnUse" x1="256" x2="256" y1="512" y2="0"><stop offset="0" stop-color="#ffc2cc"/><stop offset="1" stop-color="#fff2f4"/></linearGradient><linearGradient id="SVGID_2_" gradientUnits="userSpaceOnUse" x1="256" x2="256" y1="407" y2="105"><stop offset="0" stop-color="#ffa68d"/><stop offset="1" stop-color="#fd3a84"/></linearGradient><g><g><circle cx="256" cy="256" fill="url(#SVGID_1_)" r="256"/></g><g><g><path d="m184.8 158.294h71.2c4.919 0 8.9-3.973 8.9-8.882v-35.529c0-4.91-3.981-8.882-8.9-8.882h-71.2c-4.919 0-8.9 3.973-8.9 8.882v35.529c0 4.909 3.981 8.882 8.9 8.882zm151.3 142.118h53.4v-71.059h-53.4zm26.7-142.118c-14.723 0-26.7 11.953-26.7 26.647v26.647h53.4v-26.647c0-14.694-11.977-26.647-26.7-26.647zm-26.7 161.409c0 18.302 7.44 36.223 20.407 49.165 1.738 1.735 4.015 2.602 6.293 2.602 2.277 0 4.554-.867 6.292-2.602 12.968-12.942 20.407-30.863 20.407-49.165v-1.527h-53.4v1.527zm-26.7-196.938h-26.7v26.647c0 14.694-11.977 26.647-26.7 26.647h-71.2c-14.723 0-26.7-11.953-26.7-26.647v-26.647h-26.7c-4.919 0-8.9 3.973-8.9 8.882v266.471c0 4.91 3.981 8.882 8.9 8.882h178c4.919 0 8.9-3.973 8.9-8.882v-266.471c0-4.91-3.981-8.882-8.9-8.882zm-106.8 88.823h8.9v-8.882c0-4.91 3.981-8.882 8.9-8.882s8.9 3.973 8.9 8.882v8.882h8.9c4.919 0 8.9 3.973 8.9 8.882 0 4.91-3.981 8.882-8.9 8.882h-8.9v8.882c0 4.91-3.981 8.882-8.9 8.882s-8.9-3.973-8.9-8.882v-8.882h-8.9c-4.919 0-8.9-3.973-8.9-8.882s3.981-8.882 8.9-8.882zm71.2 142.118h-106.8c-4.919 0-8.9-3.973-8.9-8.882 0-4.91 3.981-8.882 8.9-8.882h106.8c4.919 0 8.9 3.973 8.9 8.882s-3.981 8.882-8.9 8.882zm0-35.53h-106.8c-4.919 0-8.9-3.973-8.9-8.882 0-4.91 3.981-8.882 8.9-8.882h106.8c4.919 0 8.9 3.973 8.9 8.882 0 4.91-3.981 8.882-8.9 8.882zm0-35.529h-106.8c-4.919 0-8.9-3.973-8.9-8.882 0-4.91 3.981-8.882 8.9-8.882h106.8c4.919 0 8.9 3.973 8.9 8.882s-3.981 8.882-8.9 8.882z" fill="url(#SVGID_2_)"/></g></g></g></svg>