<svg id="Capa_1" enable-background="new 0 0 512 512" height="512" viewBox="0 0 512 512" width="512" xmlns="http://www.w3.org/2000/svg" xmlns:xlink="http://www.w3.org/1999/xlink"><linearGradient id="SVGID_1_" gradientUnits="userSpaceOnUse" x1="256" x2="256" y1="512" y2="0"><stop offset="0" stop-color="#c3ffe8"/><stop offset=".9973" stop-color="#f0fff4"/></linearGradient><linearGradient id="SVGID_2_" gradientUnits="userSpaceOnUse" x1="256" x2="256" y1="407" y2="105"><stop offset="0" stop-color="#9cffac"/><stop offset="1" stop-color="#00b59c"/></linearGradient><g><g><circle cx="256" cy="256" fill="url(#SVGID_1_)" r="256"/></g><g><g><path d="m205.504 289.248c18.088 16.229 35.184 31.565 40.143 57.25.974 5.031 1.444 10.296 1.444 16.091 0 4.91 3.985 8.882 8.909 8.882s8.909-3.973 8.909-8.882c0-5.794.47-11.06 1.436-16.082 4.968-25.693 22.064-41.029 40.152-57.258 22.263-19.969 47.503-42.608 47.503-86.543 0-53.875-43.963-97.706-98-97.706s-98 43.831-98 97.706c0 43.935 25.24 66.574 47.504 86.542zm50.496-148.719c34.384 0 62.364 27.896 62.364 62.177s-27.98 62.176-62.364 62.176-62.364-27.896-62.364-62.176 27.98-62.177 62.364-62.177zm0 106.589c24.561 0 44.545-19.925 44.545-44.412s-19.985-44.412-44.545-44.412-44.545 19.925-44.545 44.412 19.984 44.412 44.545 44.412zm-17.818-53.295h8.909v-8.882c0-4.91 3.985-8.883 8.909-8.883s8.909 3.973 8.909 8.883v8.882h8.909c4.924 0 8.909 3.973 8.909 8.883 0 4.909-3.985 8.882-8.909 8.882h-8.909v8.882c0 4.909-3.985 8.882-8.909 8.882s-8.909-3.973-8.909-8.882v-8.882h-8.909c-4.924 0-8.909-3.973-8.909-8.882 0-4.91 3.984-8.883 8.909-8.883zm49.46 144.816c-1.566 3.536-3.009 7.14-3.801 11.233-.748 3.886-1.113 8.058-1.113 12.716 0 14.694-11.989 26.647-26.727 26.647s-26.727-11.953-26.727-26.647c0-4.667-.365-8.831-1.122-12.725-.79-4.089-2.231-7.691-3.794-11.225-26.59 4.615-48.538 15.291-48.538 32.832-.002 23.325 40.333 35.53 80.18 35.53s80.182-12.205 80.182-35.529c0-17.543-21.949-28.219-48.54-32.832z" fill="url(#SVGID_2_)"/></g></g></g></svg>