<svg id="Capa_1" enable-background="new 0 0 512 512" height="512" viewBox="0 0 512 512" width="512" xmlns="http://www.w3.org/2000/svg" xmlns:xlink="http://www.w3.org/1999/xlink"><linearGradient id="SVGID_1_" gradientUnits="userSpaceOnUse" x1="256" x2="256" y1="512" y2="0"><stop offset="0" stop-color="#ffedad"/><stop offset="1" stop-color="#ffffe5"/></linearGradient><linearGradient id="SVGID_2_" gradientUnits="userSpaceOnUse" x1="256" x2="256" y1="407" y2="105"><stop offset="0" stop-color="#feba00"/><stop offset="1" stop-color="#fd5900"/></linearGradient><g><g><circle cx="256" cy="256" fill="url(#SVGID_1_)" r="256"/></g></g><g><g><g><path d="m264.848 290.013c6.848-2.214 11.797-6.83 11.797-11.894s-4.949-9.68-11.797-11.894zm-8.848-131.337c-53.665 0-97.324 43.659-97.324 97.324s43.659 97.324 97.324 97.324 97.324-43.659 97.324-97.324-43.659-97.324-97.324-97.324zm26.163 96.724c7.739 5.804 12.177 14.085 12.177 22.719s-4.438 16.915-12.177 22.719c-4.907 3.68-10.868 6.214-17.315 7.428v.82c0 4.886-3.961 8.848-8.848 8.848s-8.848-3.961-8.848-8.848v-.82c-6.447-1.213-12.408-3.748-17.315-7.428-7.739-5.804-12.177-14.085-12.177-22.719 0-4.886 3.961-8.848 8.848-8.848s8.848 3.961 8.848 8.848c0 5.063 4.949 9.68 11.797 11.894v-25.985c-6.447-1.213-12.408-3.748-17.315-7.428-7.739-5.804-12.177-14.085-12.177-22.719s4.438-16.915 12.177-22.719c4.907-3.68 10.868-6.214 17.315-7.428v-.82c0-4.886 3.961-8.848 8.848-8.848s8.848 3.961 8.848 8.848v.82c6.447 1.213 12.408 3.748 17.315 7.428 7.739 5.804 12.177 14.085 12.177 22.719 0 4.886-3.961 8.848-8.848 8.848s-8.848-3.961-8.848-8.848c0-5.063-4.949-9.68-11.797-11.894v25.985c6.446 1.214 12.407 3.748 17.315 7.428zm-46.808-21.519c0 5.063 4.949 9.68 11.797 11.894v-23.787c-6.848 2.213-11.797 6.83-11.797 11.893zm164.637-22.795c-1.478-4.658-6.451-7.236-11.108-5.76-4.658 1.477-7.237 6.45-5.76 11.108 4.102 12.936 6.181 26.446 6.181 40.156 0 73.179-59.536 132.715-132.715 132.715-27.607 0-53.927-8.433-75.922-23.814 4.014.39 7.911-2.014 9.24-6.003 1.545-4.636-.96-9.646-5.596-11.192l-37.538-12.512c-3.179-1.061-6.685-.232-9.054 2.137-2.37 2.369-3.198 5.875-2.138 9.054l12.512 37.538c1.236 3.708 4.688 6.052 8.393 6.052.927 0 1.871-.147 2.799-.456 4.636-1.545 7.141-6.556 5.596-11.191l-1.379-4.138c26.251 20.745 58.793 32.22 93.087 32.22 40.176 0 77.948-15.646 106.356-44.054s44.054-66.18 44.054-106.356c0-15.527-2.358-30.836-7.008-45.504zm-277.297 44.324c0-73.179 59.536-132.715 132.715-132.715 27.607 0 53.927 8.433 75.922 23.814-4.014-.39-7.911 2.015-9.24 6.003-1.545 4.636.96 9.646 5.596 11.192l37.538 12.512c.916.306 1.861.455 2.797.455 2.31 0 4.571-.906 6.257-2.592 2.37-2.369 3.198-5.875 2.138-9.054l-12.512-37.537c-1.546-4.636-6.557-7.141-11.192-5.596-4.636 1.546-7.141 6.556-5.596 11.192l1.379 4.138c-26.251-20.747-58.793-32.222-93.087-32.222-40.176 0-77.948 15.646-106.356 44.054s-44.054 66.18-44.054 106.356c0 15.526 2.358 30.836 7.008 45.504 1.195 3.769 4.678 6.176 8.432 6.176.886 0 1.787-.134 2.676-.416 4.658-1.477 7.237-6.45 5.76-11.108-4.101-12.936-6.181-26.446-6.181-40.156z" fill="url(#SVGID_2_)"/></g></g></g></svg>