<?xml version="1.0" standalone="no"?>
<!DOCTYPE svg PUBLIC "-//W3C//DTD SVG 1.1//EN" "http://www.w3.org/Graphics/SVG/1.1/DTD/svg11.dtd" >
<svg xmlns="http://www.w3.org/2000/svg" xmlns:xlink="http://www.w3.org/1999/xlink" version="1.1">
<metadata></metadata>
<defs>
<font id="indie_flowerregular" horiz-adv-x="998" >
<font-face units-per-em="2048" ascent="1638" descent="-410" />
<missing-glyph horiz-adv-x="768" />
<glyph horiz-adv-x="0" />
<glyph unicode="&#xd;" horiz-adv-x="768" />
<glyph unicode=" "  horiz-adv-x="768" />
<glyph unicode="&#x09;" horiz-adv-x="768" />
<glyph unicode="&#xa0;" horiz-adv-x="768" />
<glyph unicode="!" horiz-adv-x="306" d="M32 98q0 60 44 86q48 28 108 28q20 0 36 -12t28 -29t17 -36t5 -37q0 -22 -16 -40t-38 -32t-48 -21t-44 -7q-50 0 -71 27t-21 73zM94 548q-8 52 -11 141t-4 196t0 224t1 224v195q0 92 -4 144l98 16l2 -36q0 -36 1 -94t2 -134t3 -158t2 -165t2 -155t3 -127t3 -79v-15t1 -26 t1 -29v-22q0 -16 1 -37t-2 -41t-13 -33t-34 -13q-14 0 -30 2t-22 22z" />
<glyph unicode="&#x22;" horiz-adv-x="480" d="M308 1096q-4 68 -8 124t-6 107t-3 101t-1 108v76q2 4 10 12q4 6 8 10h6q2 0 2 1t2 1q26 0 44 -38t30 -94t18 -123t10 -126t4 -101v-50v-68q-4 -6 -18 -20q-14 -12 -20 -16l-6 -2h-4q-14 0 -25 14t-21 32t-16 33t-6 19zM20 1556q6 16 17 18t23 2q20 0 36 -29t30 -76 t27 -103l26 -112t26 -104t27 -76q-12 -24 -24 -32t-34 -8q-28 0 -50 32t-39 82t-29 112t-20 119t-11 105t-5 70z" />
<glyph unicode="#" horiz-adv-x="1574" d="M788 308v-172q0 -4 -8 -11t-10 -9q-6 -4 -21 -11t-19 -7q-24 0 -34 14t-15 36t-5 47t-3 46t-10 36t-27 15q-4 0 -11 -1t-9 -1q-8 -2 -38 -6t-70 -10t-84 -13t-84 -13t-69 -11t-39 -5h-12q-20 0 -34 18t-14 40q0 4 1 10t1 8q100 22 193 41t191 35q8 2 21 5t25 6t21 5t9 4 v132l-18 22q-2 0 -9 1t-16 1h-18h-13q-66 0 -132 -18t-129 -42t-122 -42t-109 -18q-22 0 -36 8t-14 36q0 38 44 64t111 46t144 34t144 25t111 19t44 20v268q0 8 8 17t19 16t24 11t21 4q0 -32 4 -68t10 -73t14 -72t14 -67q32 -12 55 -16t53 -4q10 0 25 4t28 13t23 19t10 22 q0 20 -6 39t-14 39t-14 40q-6 16 -6 36q0 28 14 54t44 26h10h10q2 -16 10 -57t20 -84t24 -76t22 -33h326q2 0 11 -9l21 -21l25 -25l21 -21v-6q0 -4 1 -4t1 -2q0 -8 -7 -16t-17 -15t-20 -11t-16 -4q-2 0 -7 2t-12 6t-12 6t-7 4q-4 0 -16 3t-27 6t-31 6t-22 3h-10h-10 q-20 -4 -50 -6t-56 -6q-32 -4 -66 -6v-134l18 -18q40 6 72 10t59 6t56 2h65q32 0 67 1t62 -7t45 -29t18 -65q0 -34 -40 -34h-20q-8 0 -33 3t-54 6t-55 6t-30 3h-10q-16 0 -47 -6t-64 -14t-59 -14q-28 -6 -32 -6v-13v-19t-1 -20t-1 -14q0 -48 11 -93t11 -93v-5v-5v-6l-14 -14 l-22 -22l-24 -24t-18 -16l-4 -2h-4q-10 0 -18 23t-14 58t-10 76t-8 77t-8 62t-10 34l-20 16zM750 536q0 -6 2 -22t5 -34t6 -35t7 -21l172 36q0 8 2 16t2 14v10t-1 14t-1 19t-1 16t-1 9q-2 8 -9 23t-11 15h-134q-2 0 -9 -8t-9 -12q-4 -6 -12 -21t-8 -19z" />
<glyph unicode="$" horiz-adv-x="1190" d="M584 220q-4 -8 -8 -42t-12 -69t-19 -64t-25 -29q-42 0 -56 31t-16 72t0 79t-6 52q-12 20 -49 47t-87 56t-103 60t-96 63t-69 62t-18 58q6 24 22 32t36 8q42 0 80 -36t78 -80t80 -80t88 -36q28 0 46 35t31 89t21 121t12 129t5 114t1 76v14v21v21v12q-28 36 -66 65t-70 59 t-55 66t-23 90q0 6 1 24t1 24q48 70 118 118t152 74q4 40 5 92t11 102t32 92t66 60q0 -32 8 -58t12 -58q0 -2 -4 -8t-6 -12t-6 -12l-4 -6v-10v-19t-1 -22t-1 -17q0 -4 1 -13t1 -20v-21v-14q26 -14 43 -17t43 -3q4 0 16 1t14 1q0 28 -1 70t6 80t27 66t64 28v-302 q6 -14 21 -22t31 -16t29 -17t13 -21q0 -8 -12 -19t-29 -20t-37 -15t-36 -4q-8 -80 -24 -150t-16 -148v-17v-26t1 -25t1 -18q42 -52 95 -96t100 -93t80 -107t33 -138q0 -210 -111 -323t-313 -125q4 -20 4 -44t-7 -45t-23 -35t-40 -14q-4 0 -15 1t-15 1q-6 56 -12 104 q-8 40 -17 74t-21 42zM750 268q4 -4 19 -10t19 -8h8q64 0 110 29t76 74t44 100t14 107q0 112 -52 186t-142 138q-26 -14 -43 -49t-28 -83t-17 -102t-8 -106t-2 -96v-72v-21t1 -33t1 -33v-21zM700 954q4 6 -3 10t-17 4t-19 -2t-7 -6q-8 -46 -24 -112t-33 -136t-29 -138 t-14 -121t12 -82t50 -21q0 4 7 47t16 107t19 138t20 138t16 108t6 48v18zM652 1168q0 -16 -1 -38t2 -44t13 -40t26 -28q28 20 48 54t30 75t14 87t5 89t-1 81v64q-4 0 -17 -1t-29 -3t-29 -3t-21 -1q-4 0 -11 -8t-7 -10q-8 -44 -12 -78t-7 -65t-3 -62v-69zM422 1282 q0 -16 1 -29t7 -24t18 -20t34 -17l6 -4q4 -6 11 -11t14 -7t9 0q16 10 23 30t10 45t3 49v42q0 8 -4 19t-11 22t-15 18t-18 7q-24 0 -41 -11t-27 -29t-15 -39t-5 -41z" />
<glyph unicode="%" horiz-adv-x="1304" d="M290 58q0 38 31 110t81 163t117 194t137 205t140 196t127 166t99 115t54 43q8 0 14 -9t7 -18t-1 -19v-12q-48 -80 -102 -145l-108 -130t-104 -137t-90 -164q-12 -20 -38 -74t-62 -122t-76 -143t-77 -137t-67 -102q-28 -40 -44 -40q-24 0 -31 20t-7 40zM728 200 q0 36 11 82t32 91t49 90t63 78t74 54t81 21q44 0 83 -24t68 -61t46 -82t17 -85q0 -58 -28 -120t-73 -113t-102 -83t-117 -32q-44 0 -81 12t-64 34t-43 56t-16 82zM826 152q16 -16 35 -18t43 -2q44 0 85 17t74 47t53 70q20 42 20 86q0 20 -6 45t-18 48t-30 39t-44 16 q-44 0 -84 -33t-69 -80t-45 -99t-16 -88v-23t2 -25zM18 826q0 50 19 102t53 93t78 67q48 26 100 26q46 0 95 -19t88 -52t64 -78t25 -97q0 -54 -22 -104t-60 -88t-87 -61t-101 -23q-44 0 -89 19t-81 51t-59 74t-23 90zM134 836q0 -18 3 -41t13 -44t24 -37t38 -22q28 -8 68 2 t76 32t61 53t25 65q0 30 -14 58t-38 50t-53 35t-57 13q-32 0 -60 -16t-47 -40t-29 -52t-10 -56z" />
<glyph unicode="&#x26;" horiz-adv-x="936" d="M20 152q0 102 36 189t82 168t90 162t62 173v22v37v36v21q0 20 3 72t6 111t6 110t3 73q0 8 5 23t12 30t18 27t23 14q48 8 82 -12t54 -54t30 -74q8 -40 8 -76q0 -64 -8 -115t-26 -98t-43 -96t-59 -107q0 -4 -1 -10t-1 -10q0 -32 9 -67t23 -70t32 -69t34 -62h38q20 10 34 33 t23 53t13 64t6 65t2 56v37q10 12 29 16t37 6t36 0t30 -2q24 0 50 5t48 4t36 -15t14 -52q0 -20 -7 -29t-33 -11q-10 -2 -26 -4t-31 -3t-31 -3t-26 0q-28 -58 -39 -105t-20 -88t-22 -80t-45 -81v-10q-2 -4 -2 -12q0 -28 22 -69t51 -84t59 -81t42 -58q-8 -20 -24 -20 q-16 -4 -36 0l-170 200h-4h-4h-2q-22 0 -42 -17t-40 -44t-43 -57t-53 -57t-66 -44t-84 -17h-16t-26 1t-26 2t-16 1q-16 12 -36 30t-38 38t-30 42t-12 42zM134 192q0 -10 7 -27t17 -33t24 -27t30 -7q28 4 72 33t83 66t68 78t29 69q0 30 -14 64t-34 69t-40 71t-30 68 q-24 -4 -49 -35t-49 -74t-44 -94t-36 -97t-25 -81t-9 -43z" />
<glyph unicode="'" horiz-adv-x="210" d="M40 1424v21t4 16t12 15l20 20q22 -12 39 -42t28 -69t17 -86t10 -92t5 -83t1 -62q0 -28 -4 -46t-36 -18q-26 0 -43 30t-28 75t-16 99t-7 102t-2 81v39z" />
<glyph unicode="(" horiz-adv-x="864" d="M40 392q0 64 30 150t82 175t120 174t142 152t150 109q80 40 148 40q18 0 38 -8t37 -22t29 -31t12 -35q0 -16 -6 -38t-26 -22q-14 0 -24 6t-21 14t-22 14t-25 6q-68 0 -136 -36t-130 -96t-114 -137t-90 -158t-60 -158t-22 -137q0 -96 33 -157t89 -97t129 -53t155 -27 q16 -6 18 -16t2 -22q0 -28 -21 -41t-47 -17t-54 -3t-42 1q-94 0 -165 42t-117 109t-69 151t-23 168z" />
<glyph unicode=")" horiz-adv-x="594" d="M18 -40q0 16 31 48t79 79t103 105t102 126t79 143t32 155q0 76 -22 144t-59 131t-86 118t-103 103q-14 -8 -28 -4t-25 14t-19 23t-8 27q0 30 18 35t44 5q60 0 113 -29t98 -77t81 -110t61 -126t38 -126t13 -110t-22 -122t-60 -157t-87 -168t-104 -152t-112 -109t-107 -42 q-12 0 -21 8t-16 20t-10 26t-3 22z" />
<glyph unicode="*" horiz-adv-x="844" d="M366 808q-2 0 -7 -5l-11 -11l-12 -12q-4 -8 -8 -12q-8 -8 -25 -32t-35 -52t-34 -53t-22 -35q-4 -4 -12 -7t-17 -6t-17 -5q-10 -2 -14 -2q-8 0 -12 6t-6 14t-2 16v12q0 28 8 52t17 46t18 46t9 52q-20 0 -32 -3t-21 -5t-19 -4t-28 -2q-8 0 -18 1t-17 4t-11 11q-2 8 2 22 q4 18 21 33t40 25t45 15t38 5t22 -6t10 -14t8 -14t16 -6h6q2 0 4 2q4 4 11 10t7 10q0 36 -29 67t-63 60t-60 53t-18 50q2 4 16 18t22 20h4h2h2q0 -2 2 0h2h4l192 -114q-4 10 -3 27t5 33t13 27t27 11q4 0 11 -1t7 -3l56 -94q28 18 64 48t76 60t82 54t86 30q12 -16 16 -29 t4 -29q0 -20 -30 -46t-70 -54t-78 -52t-52 -40q16 2 44 3t57 -3t49 -13t20 -27q0 -28 -18 -39t-39 -19t-39 -19t-18 -37q0 -30 14 -59t33 -58t39 -57q16 -28 28 -56q-4 -26 -22 -42t-44 -16h-10q-4 4 -14 11t-22 16t-24 17q-12 10 -16 14q4 -44 -14 -88t-62 -68 q-10 14 -19 45t-16 72t-16 84t-21 77t-27 54t-35 16z" />
<glyph unicode="+" horiz-adv-x="942" d="M366 384q-40 0 -79 -6t-77 -14t-76 -14t-76 -6q-30 0 -36 16q-6 12 -6 32q0 26 6 35t36 15q16 4 57 12t87 17t87 17t57 12q10 2 15 11t6 20t1 20v15q0 32 -6 63t-14 63t-14 64t-6 64v6q4 6 18 20l20 20h4q2 0 2 2h4h2q-2 -2 2 -2h6l38 -40l76 -268l20 -22l32 -4 q34 -6 80 -12t95 -12t81 -8q6 0 22 -2t33 -5t29 -11t12 -22q0 -6 -8 -19t-17 -25t-19 -22t-14 -10h-308v-344l-6 -6l-16 -12t-18 -12t-16 -10q-2 -2 -6 -2h-4q-22 0 -33 21t-13 47t-2 50q2 24 0 36q-2 14 -7 47t-11 70t-12 69t-8 46h-20z" />
<glyph unicode="," horiz-adv-x="268" d="M18 -316q0 48 10 96t21 98t21 100t10 98v16t-1 24t-1 22v14q-28 -2 -34 10t-6 28q0 40 14 71t58 31q40 0 57 -28t24 -66t6 -77t-1 -63q0 -16 -5 -55t-12 -89t-19 -104t-28 -98t-34 -72t-40 -28q-14 0 -22 7t-12 18t-5 24t-1 23z" />
<glyph unicode="-" horiz-adv-x="768" d="M508 654q28 0 60 -1t60 -11t46 -29t18 -55q0 -42 -38 -42q-44 0 -81 11t-83 11q-58 0 -115 -7t-115 -15t-115 -15t-115 -7q0 48 22 76t58 45t81 23t93 7t94 2t82 5h6t14 1t16 1h12z" />
<glyph unicode="." horiz-adv-x="418" d="M90 192q0 16 13 48t31 65t37 57t33 24q40 0 70 -21t49 -53t29 -70t10 -70q0 -24 -14 -54t-35 -56t-47 -44t-52 -18q-30 0 -52 21t-39 52t-25 64t-8 55z" />
<glyph unicode="/" horiz-adv-x="634" d="M20 68q0 28 13 69t32 85t39 83t32 61l326 902q6 28 12 70t16 82t26 74t42 42q18 -4 26 -14t11 -24t2 -28t-1 -26q0 -30 -18 -109t-49 -186t-72 -234t-85 -255t-90 -247t-85 -210t-71 -147t-48 -56q-26 0 -42 24t-16 44z" />
<glyph unicode="0" horiz-adv-x="882" d="M38 446q0 68 37 145t96 142t133 108t148 43q46 0 91 -21t87 -56t78 -80t63 -94t42 -98t15 -91q0 -76 -22 -154t-66 -143t-110 -107t-154 -42q-92 0 -172 35t-140 96t-93 143t-33 174zM136 460q-8 -70 12 -132t63 -110t103 -76t130 -28q26 0 45 3t38 10t40 19l49 28 q4 28 19 49t32 45t31 56t14 82q0 66 -21 128t-61 110t-98 77t-132 29q-52 0 -98 -27t-81 -70t-57 -94t-28 -99z" />
<glyph unicode="1" horiz-adv-x="652" d="M366 40v13t-1 20t-1 21v12q0 20 2 58t6 85t8 99t8 99t6 84t2 59v24t-3 22t-11 20q-10 8 -26 12q-8 -8 -28 -31t-44 -53t-54 -63t-57 -60t-53 -45t-44 -18q-48 0 -48 50v12q4 4 9 12t11 17t11 16t9 11l366 384q16 16 26 46t17 65t13 70t15 63t24 46t37 18q12 0 22 -2 t16 -16v-14t1 -21t1 -21v-12q0 -8 -5 -61t-14 -133t-21 -181t-27 -204t-29 -201t-30 -174t-30 -123t-26 -47q-20 0 -33 9t-25 33z" />
<glyph unicode="2" horiz-adv-x="1018" d="M560 60q-72 0 -139 -11t-141 -11q-40 0 -83 9t-80 30t-64 54t-33 81q-4 30 9 49t34 30t47 14t44 3q46 0 91 -14t88 -33t87 -34t92 -15q42 0 78 28t65 73t51 102t36 111t22 101t8 73q0 28 -8 82t-26 106t-47 91t-75 39q-42 0 -63 -30t-33 -67t-23 -71t-35 -42 q-30 20 -35 52t-5 60q0 40 15 75t43 62t66 41t80 14q70 0 120 -42t81 -104t46 -132t15 -122t-3 -92t-12 -78t-25 -79t-40 -97q-14 -10 -34 -33t-38 -49t-31 -51t-13 -41q0 -20 21 -31t51 -17t64 -10t64 -11t51 -22t21 -43q0 -20 -20 -38q-16 -20 -40 -20q-44 0 -87 9t-86 20 t-85 21t-86 10z" />
<glyph unicode="3" horiz-adv-x="882" d="M40 250q-2 4 -2 6v12q0 34 19 56t53 22q14 0 43 -36t78 -80t118 -80t163 -36q36 0 72 5t64 19t46 38t18 62q0 84 -42 138t-107 89t-141 53t-140 34t-107 30t-43 42q0 4 2 6t2 4q4 6 18 20l20 20q20 4 60 11t87 18t95 27t88 37t66 50t26 67q0 30 -24 49t-55 30t-64 14 t-53 3t-58 -1t-75 -6t-65 -12t-28 -19v-44q-46 0 -72 22t-26 68q0 20 11 36t29 28t38 18t38 6h290q46 0 85 -21t67 -54t43 -75t15 -84t-27 -70t-60 -50t-61 -44t-28 -54q0 -2 2 -4l2 -4q62 -22 117 -60t98 -88t69 -110q24 -58 24 -126q0 -62 -27 -107t-70 -72t-96 -41 t-105 -14q-50 4 -95 9t-99 28t-124 73t-172 142z" />
<glyph unicode="4" horiz-adv-x="844" d="M606 444q-28 -16 -63 -39t-73 -43t-77 -31t-77 -3q-78 0 -131 43t-86 108t-47 137t-14 132q0 66 6 118t19 102t31 103t42 121q4 20 22 30t40 11t40 -7t14 -26q0 -52 -19 -106t-41 -109t-41 -112t-19 -115q0 -42 11 -92t34 -92t59 -70t86 -28q68 0 123 33t100 82t78 107 t56 108t35 82q10 32 14 32q48 0 64 -16q14 -16 14 -44q0 -40 -9 -90t-21 -102t-20 -103t-8 -93q0 -48 6 -96t14 -96t14 -95t6 -93q0 -40 -24 -68t-64 -28q-26 0 -37 33t-16 83t-5 108t-1 108t-9 83t-26 33z" />
<glyph unicode="5" horiz-adv-x="1170" d="M38 290q-4 56 12 93t35 40t32 -37t7 -136q0 -20 26 -37t66 -29t88 -22t90 -17t74 -10t40 -3q66 0 134 12t123 43t89 82t34 127q0 84 -30 142t-80 96t-114 60t-133 35t-137 21t-126 18q-12 16 -16 29t-4 29v10l2 8q8 16 31 57t47 88t46 88t30 57q2 2 5 9t5 16t6 17 q4 12 4 16t-1 10t-1 8h-46q0 40 22 65t56 40t78 22t88 9t82 1t66 -1q40 0 88 2t96 -3t90 -23t70 -54q0 -2 1 -5t1 -5q0 -8 -7 -17t-15 -15t-18 -11t-16 -5q-4 0 -22 3t-37 6t-36 6t-21 3t-31 1t-59 2t-64 1h-50h-36t-45 -1t-41 -2t-20 -1l-60 -18q-6 -34 -24 -75t-39 -83 t-36 -81t-15 -67q0 -4 2 -12v-8q110 -18 213 -56t185 -100t130 -153t48 -219q8 -76 -27 -139t-94 -110t-133 -75t-140 -32q-46 0 -107 2t-124 12t-124 29t-108 51t-76 80t-29 116z" />
<glyph unicode="6" horiz-adv-x="902" d="M38 424q0 78 25 167t69 175t106 166t135 143t154 104t165 49q20 2 46 -3t50 -17t41 -30t17 -44q0 -12 -3 -25t-9 -26t-15 -22t-23 -9q-4 0 -18 9t-31 20t-31 19l-24 12h-10q-40 0 -89 -21t-102 -58t-102 -84t-89 -98t-64 -100t-24 -89v-10q42 16 74 24t63 12t63 4h72 q78 0 144 -26t114 -73t76 -112t28 -145q0 -92 -42 -157t-109 -105t-149 -58t-164 -18q-92 0 -157 37t-107 97t-61 136t-19 156zM136 384q26 -124 97 -184t179 -68q56 0 112 10t102 36t75 70t29 112q0 36 -23 78t-57 78t-75 59t-77 23q-72 0 -140 -13t-120 -39t-81 -67 t-21 -95z" />
<glyph unicode="7" horiz-adv-x="844" d="M366 58q28 110 50 208t22 208q-66 0 -138 6t-132 6q-22 40 -15 61t31 31t60 11t77 0t78 -1t61 8l4 6q2 6 5 16t6 19t7 15q10 40 16 76t7 75t-1 82t-4 95q-38 4 -91 2t-109 -4t-108 0t-87 14t-46 36t17 68q38 -4 103 -10t141 -9t154 -4t142 3v-29v-44v-43v-28 q0 -88 -10 -172t-10 -168h60t70 -7t58 -26t24 -59q0 -20 -6 -40t-32 -20q-20 0 -41 6t-41 16t-40 16t-42 6h-19t-11 -2l-94 -442q-8 -26 -25 -34t-33 -8q-26 0 -38 19t-20 41z" />
<glyph unicode="8" horiz-adv-x="768" d="M98 442q20 42 54 82q36 44 80 92v4v2v2v6v4q-28 24 -63 48t-65 52t-50 60t-16 72q-12 24 -3 57t33 69t58 70t72 60t76 42q38 12 70 8q38 0 82 -13t82 -38t64 -61q24 -36 24 -80q0 -52 -26 -94t-60 -82t-60 -78t-26 -82q0 -22 21 -47t53 -52t70 -59t69 -70t53 -84 q22 -44 22 -100q0 -108 -60 -172q-60 -62 -168 -62q-80 0 -160 36t-139 97t-86 141t-1 170zM208 354q0 -52 21 -99t57 -83t83 -58t101 -22q20 0 46 8t47 22t37 34t16 44q0 58 -25 113t-64 101t-87 82t-96 62q-2 0 -8 2h-8q-20 0 -43 -25t-39 -60t-27 -69t-11 -52zM136 884 q-6 -28 15 -56t51 -52t62 -40q30 -16 44 -24q8 8 30 28t46 45t42 50t18 39q20 18 29 47t0 56t-40 48t-89 23q-40 0 -73 -16t-59 -41t-45 -54t-31 -53z" />
<glyph unicode="9" horiz-adv-x="616" d="M20 904q0 66 20 125t58 104t92 71t122 26q56 0 107 -21t90 -57t63 -86t24 -106q-18 -82 -29 -177t-20 -191t-12 -187t-3 -164t2 -123t10 -66q0 -24 -22 -30t-58 -6q-22 0 -30 42t-10 105t1 138t3 140t-5 108t-19 47q-72 12 -141 24t-123 42t-87 86t-33 156zM134 918 q0 -36 11 -73t33 -68t54 -50t74 -19q20 0 41 2t39 18q2 22 14 70t26 98t26 91t12 49q0 20 -15 38t-36 32t-45 22t-40 8q-100 0 -147 -61t-47 -157z" />
<glyph unicode=":" horiz-adv-x="174" d="M40 200q0 24 18 38t40 14q24 0 31 -14t7 -38q0 -28 -11 -38t-41 -10q-44 -2 -44 48zM38 644q0 16 4 32t26 16q18 0 35 -12t29 -29t20 -37q4 -20 0 -38q0 -4 -14 -18l-22 -22q-4 -2 -4 0h-6q-16 0 -29 12t-22 29t-13 35t-4 32z" />
<glyph unicode=";" horiz-adv-x="264" d="M-30 -316q0 66 16 109t37 81t42 80t33 104q4 20 3 51t3 65t14 66t34 50q42 -26 51 -69t9 -85q0 -32 -6 -84t-18 -109t-31 -114t-42 -103t-53 -74t-62 -28q-14 0 -21 6t-9 16t-1 20t1 18zM40 768q-2 24 19 29t44 0t40 -15t9 -14q16 -40 19 -66t-4 -44t-19 -28t-24 -14 q-28 0 -46 14t-28 36t-12 48t2 54z" />
<glyph unicode="&#x3c;" d="M154 366q4 2 32 23t74 52t102 71t113 80t109 76t90 60q20 16 47 32t55 32t56 29t52 23q4 -4 13 -11t18 -16l17 -17t10 -12q0 -2 -24 -20t-62 -43t-83 -56t-86 -58t-72 -47t-37 -28q-44 -30 -93 -59t-97 -62t-94 -69t-82 -78q4 -8 30 -17t62 -17t77 -15t78 -13t64 -10 t35 -4l78 -12t104 -24t91 -42t39 -66q0 -48 -52 -48q-20 0 -41 8t-42 17t-41 19t-40 14q-16 4 -56 8t-94 10t-117 14t-125 17t-116 22t-89 28t-48 33t11 42z" />
<glyph unicode="=" horiz-adv-x="1074" d="M40 344q0 4 7 13t11 9q86 6 151 10t125 6t121 3t137 1q32 0 88 4t113 1t104 -21t63 -62l-76 -40h-732q-26 0 -46 2t-35 9t-23 22t-8 43zM812 692q-44 0 -94 -6t-125 -13t-190 -10t-293 5q-24 0 -48 10t-24 42q16 26 57 40t102 21t134 9t151 1l156 -2t150 -1h69t75 -11 t61 -35t25 -68q0 -4 -15 -19t-23 -21l-4 -2t-8 0q-20 0 -39 10t-38 21t-38 20t-41 9z" />
<glyph unicode="&#x3e;" horiz-adv-x="826" d="M56 68q4 18 39 49t86 68t114 80t123 85t113 84t83 78t34 64t-32 40q-36 2 -89 13t-112 32t-119 48t-110 57t-84 60t-44 58q0 2 -1 9t-1 11q0 26 20 32q16 8 40 8q32 0 55 -14t43 -33t43 -40t51 -31q104 -40 225 -79t237 -55q32 -10 36 -29t4 -43q8 -36 -4 -66t-34 -55 t-49 -48t-49 -47q-10 -8 -56 -42t-107 -80t-130 -95t-128 -91t-100 -70t-49 -28q-34 0 -41 21t-7 49z" />
<glyph unicode="?" horiz-adv-x="558" d="M364 76q0 36 22 57t56 21q32 0 46 -29t14 -57q0 -22 -15 -45t-45 -23q-40 0 -59 21t-19 55zM154 768q0 60 19 116t47 110t60 108t60 109t46 113t18 122q0 104 -56 155t-158 51q-40 0 -84 -20t-66 -56q-12 2 -17 12t-6 22t0 22t1 14q0 32 20 55t50 37t63 22t61 8 q76 0 133 -31t96 -82t59 -114t20 -129q0 -76 -25 -158t-64 -161t-82 -152t-79 -133q4 -8 10 -18t26 -18t57 -16t99 -16q10 0 18 -8t13 -19t7 -23q2 -14 2 -22q0 -18 -13 -25t-33 -10t-39 -2t-31 1q-30 0 -70 5t-76 20t-61 41t-25 70z" />
<glyph unicode="@" horiz-adv-x="1670" d="M768 0q-164 68 -298 169t-228 231t-148 289t-56 345q0 94 27 190t76 184t118 165t151 133t176 89t198 33q64 0 136 -19t147 -52t147 -77t136 -93t117 -102t89 -101q20 -28 32 -72t18 -89t7 -90t1 -75q0 -46 -7 -105t-22 -119t-40 -117t-61 -101t-84 -70t-112 -26 q-28 0 -56 9t-52 26t-46 38t-38 41q-28 -36 -68 -73t-85 -68t-94 -50t-99 -19q-72 0 -129 27t-97 74t-62 107t-22 126q0 102 36 198t101 170t156 118t199 44q32 0 92 -15t118 -43t102 -67t44 -87q0 -28 -18 -55t-42 -41q-28 50 -60 89t-70 66t-86 42t-108 15q-90 0 -159 -38 t-115 -100t-70 -140t-24 -156q0 -48 12 -89t36 -70t64 -46t92 -17q40 0 81 18t80 47t69 63q30 32 48 64q-2 6 -4 31t-2 57t2 68t11 66t25 50q18 20 46 20t44 -20t24 -50t12 -66t3 -68t-4 -56t-3 -32q4 -4 18 -21t34 -35t42 -30t38 -8q56 16 96 68t66 117t39 129t13 104 q4 112 -32 202t-97 162t-141 125t-165 92t-168 62t-147 33q-124 -8 -242 -71t-210 -158t-147 -214t-55 -243q0 -106 32 -218t89 -218t136 -199t174 -164t199 -111t216 -40q74 0 145 16t141 35t140 35t142 16q20 -34 -4 -64t-78 -54t-133 -42t-170 -28t-188 -11t-187 5z" />
<glyph unicode="A" horiz-adv-x="1152" d="M940 46q0 34 6 69t14 70t14 71t6 72q0 56 -4 120t-20 122q-56 -12 -115 -9t-118 11t-119 16t-120 8h-57t-80 -2t-75 -6q-32 -4 -40 -12l-20 -18q0 -2 -1 -9t-1 -17t-1 -20t-1 -16q0 -58 9 -117t20 -115t21 -112t10 -112v-20q-30 -28 -54 -19t-43 44t-32 90t-20 120 t-8 133t5 132q-4 4 -16 17t-24 28t-24 29q-8 14 -12 22l-2 4v4q0 14 7 20t17 9t20 7t16 14v10v17v17v10q8 84 13 179t18 186t40 175t75 148t122 102t186 38q88 0 159 -42t126 -113t96 -164t69 -197t47 -210t29 -202t14 -176t4 -132v-68t-3 -59t-6 -61t-11 -74 q-16 -22 -41 -41t-55 -19q-26 0 -33 13t-7 35zM892 652q6 0 15 1t15 10t12 29t10 56q0 58 -11 133t-33 155t-57 156t-83 136t-111 96t-141 36q-82 0 -138 -43t-91 -112t-54 -155t-27 -172t-9 -162t-1 -124z" />
<glyph unicode="B" horiz-adv-x="1518" d="M616 58q-4 2 -31 16t-56 34t-51 42t-18 42q8 22 25 31t34 17t29 22t10 46q-34 238 -62 421t-59 307t-68 188t-91 64h-2h-4h-4q-16 -10 -43 -21t-58 -22t-61 -20t-48 -15q-4 0 -10 -2h-8v60q0 20 36 38t91 35t121 32t127 25t109 16t64 6q36 0 86 -8t105 -24t108 -41 t95 -57t68 -72q26 -38 26 -86q0 -52 -21 -96t-48 -79t-48 -62t-21 -51q0 -4 39 -23t100 -53t131 -84t131 -111t101 -132t40 -151q0 -84 -37 -140t-95 -89t-129 -48t-137 -15t-117 3t-102 10t-109 18t-138 29zM674 296q-26 -40 -16 -70t44 -52t82 -35t96 -20t88 -7t60 2 q60 0 118 5t102 26t70 61t26 110q0 98 -51 163t-128 111t-167 77t-168 58t-128 57t-50 72q0 22 23 35t58 23t75 21t76 32t59 53t23 86q0 44 -24 78t-61 58t-80 36t-81 12q-56 0 -116 -12t-104 -48q24 -102 54 -224t57 -247t45 -245t18 -216z" />
<glyph unicode="C" horiz-adv-x="1056" d="M38 554q0 80 26 167t72 173t109 164t139 138t160 96q84 34 168 34q48 0 72 -36t24 -80q0 -26 -10 -60t-30 -67t-45 -56t-55 -23q0 20 6 39t16 36t16 35t6 40q0 28 -23 33t-45 5h-16h-12q-92 -36 -180 -95t-156 -136t-108 -170t-40 -199q0 -68 13 -149t45 -150t87 -115 t137 -46q68 0 135 13t134 28t134 27t135 12q16 0 32 -4t16 -24q0 -10 -12 -25t-30 -29t-34 -22l-20 -10l-462 -98q-4 0 -17 -1t-21 -1q-66 0 -119 27t-94 70t-70 100t-48 119t-27 124t-8 116z" />
<glyph unicode="D" horiz-adv-x="1518" d="M498 124q0 16 5 33t25 17q10 0 51 -11t89 -25t94 -26t64 -14h10q88 0 178 33t164 93t121 139t47 171q0 72 -28 141t-75 133t-110 118t-133 97t-142 73t-138 42q2 -128 21 -242t38 -219t29 -205q12 -100 0 -200v-25t-5 -26t-16 -21t-27 -8q-30 -16 -46 12t-24 85t-10 135 t-7 163t-13 167t-26 150q-4 24 -10 62t-16 79t-23 76t-27 51q-144 0 -230 -9t-137 -21t-74 -25t-41 -21l-4 -2q-4 -2 -6 -2q-4 0 -4 2q-2 2 -4 2q-2 2 -4 8l-5 15t-6 19t-3 14v8q0 28 29 48t72 34t95 23t97 13t76 7t33 3q102 0 218 -23t229 -67t216 -109t182 -149t126 -188 t47 -224q0 -110 -34 -198t-94 -154t-140 -111t-170 -66t-185 -21t-185 22q-18 6 -44 17t-51 25t-42 35t-17 47z" />
<glyph unicode="E" horiz-adv-x="1074" d="M188 1138q-8 0 -14 2q10 -20 10 -28v-362q10 -16 58 -15t114 7t140 19t138 24t106 19q44 8 48 4q6 0 23 1t37 2t36 2t22 1q0 -48 -53 -78t-133 -46t-173 -25t-174 -15t-137 -14q-58 -4 -62 -20q-12 -32 -17 -72t-6 -81t0 -82t1 -73v-28v-41v-40v-25q8 -20 36 -30t60 -13 t60 -1q32 2 44 2q68 0 136 7t135 14l134 14t135 7h12q4 -2 12 -4t17 -6t15 -8q8 -4 12 -4q4 -2 12 -8q8 -4 8 -8q0 -38 -42 -63t-106 -40t-140 -22t-146 -10t-120 -3h-64q-80 0 -141 14t-102 47t-61 89q-20 60 -20 144q0 76 11 152t11 154q0 32 -10 54t-10 48v12q4 4 14 19 t14 19v442q0 32 7 48t34 22t76 4t134 -6t209 -6q128 -2 304 0q20 -8 40 -17t37 -23t27 -32t10 -44q0 -6 -7 -14t-11 -6l-96 38z" />
<glyph unicode="F" horiz-adv-x="1054" d="M388 38q-12 54 -18 90t-9 65t-3 53t-1 52t-5 65t-12 91q-6 40 -28 55t-51 16t-60 -4t-58 -5t-43 12q-18 16 -18 52q0 4 9 11t13 7q36 4 70 5t61 11t45 34q16 28 16 76q-16 98 -14 169t-5 117t-35 62q-30 18 -102 8h-27t-40 -1t-40 -1h-27q-4 -4 -19 -10t-19 -8h-6 q-4 -2 -6 -2l-4 2h-4q-4 4 -10 18t-8 20v10q28 28 98 50t166 38t210 24t229 7t225 -16t196 -42t142 -71q56 -46 62 -106q-64 0 -125 16t-123 36t-125 36t-131 16q-16 0 -47 1t-71 2t-82 -2t-78 -12t-58 -26t-22 -45q0 -30 -4 -82t-2 -107t14 -103t44 -70h14h22h24h16 q150 12 243 6t133 -24t29 -41t-68 -43t-159 -33t-244 -9q4 -90 8 -141t9 -80t9 -46t10 -40t10 -62t8 -115q-28 4 -52 5t-41 1t-26 2t-5 6z" />
<glyph unicode="G" horiz-adv-x="1170" d="M952 90q-6 0 -25 1t-23 1q-56 0 -115 -13t-117 -27t-117 -27t-121 -13q-84 0 -152 29t-116 81t-74 123t-26 155q0 88 38 170t102 155t147 134t173 106t180 72t168 35q40 4 77 -7t63 -31t42 -51t16 -71q-28 0 -54 7t-52 16t-54 15t-56 6q-72 0 -152 -21t-157 -61t-146 -95 t-122 -121t-84 -142t-31 -156q0 -56 28 -100t70 -73t92 -44t98 -15q88 0 181 5t169 30t124 79t48 152q0 12 -4 38q-2 26 -18 42h-366q-16 0 -29 8t-25 21t-18 28t-6 29q0 16 4 33t24 17t40 -7l40 -14l40 -14t42 -7q70 0 138 12t140 12q16 0 34 -9t32 -22t24 -31t10 -34v-500 q4 -4 14 -12t20 -17l20 -18t14 -13q4 -14 -3 -27t-19 -24t-27 -18t-27 -7q-42 0 -65 26t-35 62t-14 75t-2 67z" />
<glyph unicode="H" horiz-adv-x="1074" d="M728 674q-18 -8 -53 -25t-81 -38t-96 -44t-95 -45t-82 -38t-53 -24l4 -400q0 -6 -14 -21t-22 -19q-32 -8 -45 25t-18 86t-8 113t-14 110t-37 77t-74 11q-2 4 -5 14t-3 14q0 26 13 34t29 15t29 18t13 41q0 80 -6 158t-14 158t-14 159t-6 157v20v29v28v17q6 16 17 20t23 4 q10 0 24 -4q12 -4 12 -20l80 -670q0 -4 7 -20t11 -18h8h10l32 8t84 31t166 76t286 139l8 454q0 12 8 27t20 27t24 19t24 7q18 0 29 -6t11 -34q0 -6 -8 -21t-10 -19q0 -8 -1 -28t-1 -43v-44v-29q0 -170 4 -340t16 -338q2 -20 7 -71t11 -109t12 -111t10 -75q0 -4 2 -12t6 -18 t6 -18t4 -10v-12v-6q-4 -4 -12 -11t-17 -13t-17 -11t-12 -5q-28 -6 -46 24t-28 71t-14 81t-6 56q0 2 -1 30t-3 71t-5 97t-7 108t-9 102t-9 80z" />
<glyph unicode="I" horiz-adv-x="344" d="M192 76q-10 74 -19 155t-17 163t-18 162q-10 84 -22 156q-6 30 -21 80t-29 107t-25 115t-11 106q24 32 48 12t48 -75t47 -140t42 -181t36 -198t29 -192t20 -160t8 -106v-24t-2 -23t-11 -20t-27 -13q-12 -4 -24 7t-24 25t-19 27t-9 17z" />
<glyph unicode="J" horiz-adv-x="900" d="M650 -2q-82 16 -153 61t-132 104t-119 126t-112 135l-32 40t-29 44t-21 54t-8 68q0 36 28 66q24 28 68 30q22 -12 16 -26q-8 -12 -16 -32v-10q0 -52 27 -113t70 -121t99 -117t114 -100t113 -68t99 -25q24 0 39 27t25 68t16 90t7 93t1 76v44v31t-1 40t-1 34v17l-106 750 q24 62 47 56t43 -57t39 -136t35 -182t28 -196t19 -178t11 -127q2 -48 -2 -44q2 -32 1 -83t-7 -109t-19 -117t-37 -106t-61 -77t-89 -30z" />
<glyph unicode="K" horiz-adv-x="960" d="M788 20q-32 26 -82 59t-106 71t-116 78t-114 80t-96 78t-66 74q-8 -34 -5 -83t10 -101t15 -102t8 -90t-10 -64t-38 -24t-46 40t-28 102t-14 136t-4 140t1 116t1 66q-4 64 -13 134t-20 142t-19 142t-8 130q0 4 3 13t9 18t15 15t17 6q18 0 27 -12t14 -29t7 -34t6 -25 q8 -32 12 -76t9 -95t10 -103t11 -102q26 28 61 74t77 100t89 110t95 100t96 71t96 25q14 -14 7 -33t-25 -43t-44 -50t-54 -56q-42 -50 -91 -102t-97 -104t-90 -104q-42 -48 -68 -92q56 -78 127 -145t149 -127t162 -112q84 -54 164 -106q24 -8 42 -24t27 -35t8 -36t-14 -27 t-39 -7t-68 23z" />
<glyph unicode="L" horiz-adv-x="710" d="M38 324q4 70 9 159t13 178t18 172t24 145t30 96q20 34 40 22q28 -4 36 -44t5 -106t-15 -150t-23 -172t-19 -175t-4 -159q0 -20 7 -43t19 -43t30 -36q20 -16 42 -16l402 -36q18 -2 21 -20t3 -28q0 -36 -22 -48t-58 -20q-8 0 -29 -1t-44 -2t-43 -1h-28q-92 0 -169 14 t-131 51t-84 100t-30 163z" />
<glyph unicode="M" horiz-adv-x="1094" d="M904 40q-4 20 -8 64t-10 98t-12 115t-12 116t-11 98t-7 65q-4 20 -3 50t-4 62t-16 60t-33 40q-72 -40 -144 -60t-152 -20q-118 0 -236 144q-8 0 -11 -12t-5 -28t-1 -34t1 -30l-2 -668q0 -12 -7 -21t-17 -13t-21 -7t-21 -3q-32 0 -43 27t-15 53v288q0 132 11 260t11 260 q0 40 -16 72t-34 63t-33 62t-15 69q0 42 40 42q50 0 84 -30t60 -72t50 -94t57 -94t76 -72t107 -30q80 -4 133 25t86 74t54 98t37 98t34 73q20 28 48 22q22 4 33 -10t17 -35t7 -41t1 -28q0 -76 -11 -145t-11 -147q0 -102 14 -202t33 -201t34 -201t15 -200q0 -16 -4 -26 t-12 -14t-18 -4h-22q-26 0 -47 6t-29 38z" />
<glyph unicode="N" horiz-adv-x="1248" d="M58 122q0 94 6 188t15 187t15 185q6 94 6 186q0 52 -11 100t-11 98v10q4 2 15 5t23 5t24 6q10 4 14 4h20q16 -72 43 -172t65 -204t90 -207t120 -184t152 -130t188 -47q62 0 109 21t77 58t45 87t15 110q0 78 -31 145t-67 129t-67 124t-31 134q0 28 6 44t34 16q32 0 65 -36 t63 -92t56 -125t46 -137t31 -126t11 -92q0 -86 -28 -157t-79 -124t-122 -82t-157 -29q-94 0 -169 36t-134 93t-104 121t-77 121t-55 93t-37 36q-26 0 -38 -18t-17 -42t-5 -51v-41q0 -64 12 -119t12 -117q0 -14 -3 -36t-10 -44t-21 -38t-36 -16q-20 0 -33 15t-21 34t-11 40 t-3 35z" />
<glyph unicode="O" horiz-adv-x="1248" d="M38 558q-4 88 23 164t77 135t122 95q72 32 158 40q150 -22 287 -76t242 -138t171 -196t74 -252q-20 -104 -82 -164t-146 -93t-180 -49q-96 -14 -176 -26q-124 0 -229 41t-180 113t-118 176t-43 230zM132 568q-2 -92 39 -172t107 -140t148 -100t164 -52q28 0 74 5t100 16 t109 30t100 46t74 64t29 85q-14 100 -61 178t-115 138t-148 102t-158 67t-146 33t-112 0q-62 -22 -101 -58t-62 -77t-32 -83t-9 -82z" />
<glyph unicode="P" horiz-adv-x="1286" d="M616 0q-28 50 -47 129t-32 165t-21 162t-16 120v344q0 22 18 41t40 19h10h8q8 -54 12 -111t7 -113t13 -112q8 -56 26 -108q32 -8 70 -12q36 0 84 -4q52 0 113 17t113 49t87 79t35 105q0 64 -42 113t-108 87t-146 66t-157 45t-143 25t-102 8q-12 0 -44 2t-71 1t-75 -5 t-56 -16q-18 -10 -33 -36t-29 -53t-29 -47t-33 -20h-4q-2 0 -6 2t-6 6t-5 20t-5 46t-2 82q0 22 21 41t56 33t75 25t77 18t66 11t39 4q68 0 159 -8t188 -29t192 -56t169 -86t122 -123q46 -70 46 -166q10 -68 -24 -125t-93 -102t-133 -78t-144 -52t-126 -24t-78 5v-18 q0 -70 12 -138t12 -138q0 -8 -2 -25t-9 -33t-18 -26t-31 -6z" />
<glyph unicode="Q" horiz-adv-x="1316" d="M860 24h-24l-16 -2q-6 -2 -29 -4t-49 -6t-49 -6t-29 -2h-8q-120 -10 -230 30t-194 118t-132 183t-48 225v28q0 96 35 188t97 164t147 116t185 44q66 0 147 -32t164 -87t162 -126t140 -148t98 -154t37 -145q0 -54 -18 -99t-47 -82t-68 -68t-83 -59v-20q0 -36 21 -65 t53 -51t69 -42t69 -38t55 -36t25 -38q-44 -42 -83 -42t-76 25t-74 66t-76 79t-82 64t-89 22zM164 560q-8 -94 26 -173t98 -135t148 -88q80 -32 172 -30h39t38 6t28 20t11 44q-8 38 -34 78t-46 76t-26 67t22 51q32 0 66 -36t68 -83t66 -93q30 -44 56 -68q4 0 14 -1t14 -1 q28 0 68 17t78 43t66 59t28 65q0 42 -14 83t-36 80t-50 71q-24 34 -52 64q-16 16 -42 43t-52 52t-48 42t-32 17q-4 -46 -17 -91t-41 -83h-4l-4 -2h-6q-2 0 -4 2q-2 0 -10 4t-18 10t-18 10l-8 8q36 88 26 143t-47 87t-90 45t-102 13t-83 -4q-36 -4 -34 -8q-68 -24 -110 -67 t-65 -97t-31 -116t-8 -124z" />
<glyph unicode="R" horiz-adv-x="1186" d="M396 444q14 -90 33 -165t29 -131t6 -90t-40 -42q-4 -12 -16 14t-28 79t-34 127t-35 157t-31 171t-23 168t-9 146t12 110q24 18 43 9t30 -29t15 -46q0 -26 -4 -48q2 -8 7 -30t11 -47t12 -47t10 -30q28 4 83 11t119 20t131 31t121 42t89 56t35 72q0 4 -2 10v6 q-56 64 -114 104t-123 59t-137 25t-154 6q-60 0 -126 -1t-121 -17t-91 -58t-36 -122q-18 0 -32 12t-24 29t-16 36t-6 33q0 28 12 53t32 45t44 37t48 29q64 12 113 20t93 13t89 6t101 1t118 -9t126 -27t121 -47t102 -70t71 -94t26 -119q0 -58 -36 -102t-96 -76t-133 -54 t-146 -39t-137 -29q-64 -16 -104 -28q100 -138 198 -234t184 -162t156 -107t114 -69t56 -44t-18 -36q-22 -28 -72 -14t-115 55t-139 102t-146 127t-137 130t-109 112z" />
<glyph unicode="S" horiz-adv-x="1286" d="M40 356q0 20 8 43t22 44t34 35t42 14q0 -130 46 -205t127 -115t185 -54t224 -20q40 2 105 3t125 14t102 43t40 92q0 28 -2 50t-9 39t-24 33t-47 32l-594 324q-32 18 -62 45t-50 60t-32 70t-12 73q0 76 41 124t102 77t132 41t131 12q28 0 72 -5t94 -15t99 -26t87 -41 t63 -58t25 -77q-28 -16 -57 -10t-59 22t-62 36t-66 40t-72 32t-80 8q-38 0 -98 -4t-117 -19t-98 -46t-41 -87q0 -54 38 -99t103 -86t146 -78t164 -76t162 -81t138 -92t92 -107t23 -129t-62 -124t-132 -81t-178 -38t-202 1t-206 38t-186 75t-144 110t-80 143z" />
<glyph unicode="T" horiz-adv-x="1190" d="M632 1112q-140 0 -289 19t-285 41q-18 -4 -28 5t-16 24t-7 29t-1 22h104t175 -2t220 -6t239 -12t232 -19t199 -28t138 -39t51 -50q0 -20 -6 -40t-30 -20q-74 4 -146 22t-144 35t-147 24t-153 -17q0 -92 11 -202t26 -224t34 -228t37 -214q4 -26 17 -51t27 -48t24 -47 t10 -48q0 -16 -10 -25t-24 -12t-30 -3h-26q-40 0 -63 32t-35 75t-16 89t-8 74q-16 110 -28 213t-21 206t-16 208t-15 217z" />
<glyph unicode="U" horiz-adv-x="1170" d="M56 780q0 18 1 49t4 68t11 76t24 70t40 51t58 20q22 0 34 -12t14 -29t-10 -37t-38 -36q-18 0 -26 -27t-12 -59t-4 -62v-36q0 -52 4 -120t16 -141t35 -145t60 -131t89 -99t126 -44q56 -4 130 20t138 69t109 104t45 123v8q-14 84 -29 140t-26 102t-18 94t-7 112 q6 92 21 137t31 50t34 -23t32 -81t20 -126t4 -155q2 -60 23 -132t47 -144t53 -140t41 -119t8 -84t-42 -33q-40 0 -60 24t-34 53t-30 53t-40 24q-20 0 -48 -15t-63 -39t-76 -52t-85 -52t-90 -40t-94 -16q-86 0 -150 41t-110 107t-77 151t-49 172t-26 168t-8 143z" />
<glyph unicode="V" horiz-adv-x="864" d="M38 1028q0 22 15 27t31 5q38 0 70 -44t59 -103t48 -118t37 -91q6 -12 24 -50t41 -90t48 -109t49 -109t40 -91t22 -51q12 12 25 56t28 109t29 142t29 156t31 152t32 129t31 87t31 25q30 8 42 -29t10 -104t-16 -159t-37 -189t-52 -195t-63 -178t-68 -136t-66 -72 q-4 0 -14 1t-12 1q-10 20 -36 69t-54 104t-52 103t-32 68q-12 26 -37 80t-55 121t-61 141t-58 141t-43 120t-16 81z" />
<glyph unicode="W" horiz-adv-x="1440" d="M664 232h-3h-3h-4q-88 -80 -142 -124t-86 -65t-46 -24t-20 -3q-76 0 -131 43t-92 111t-60 155t-35 173t-17 162t-5 128v43t6 79t22 76q20 34 52 34q14 0 20 -38t11 -98t11 -138t13 -160t20 -160t34 -139t52 -98t75 -37q36 0 69 20t61 48t51 58t41 50q12 28 17 64t6 74 t0 72t-3 58q10 28 24 39t26 7t24 -21t22 -45q10 -64 36 -142t69 -145t105 -112t144 -45q44 0 91 18t84 50t61 74t24 90q0 76 -24 148t-54 143t-54 142t-24 145q26 56 57 47t62 -59t59 -129t50 -160t33 -152t9 -105q0 -76 -32 -144t-87 -122t-126 -86t-147 -32q-60 0 -117 36 t-102 80t-78 80t-49 36z" />
<glyph unicode="X" horiz-adv-x="1094" d="M40 -62q0 74 39 156t96 165t119 159t110 136q0 32 -17 71t-43 80t-56 84t-56 84t-43 80t-17 75q0 24 7 36t33 12q10 -2 29 -26t42 -60t48 -78t47 -81t40 -68t26 -39q20 -36 41 -52t60 3t109 79t186 176q14 12 50 34t75 35t73 9t40 -44q-64 -40 -135 -90t-140 -107 t-133 -117t-110 -118q18 -50 61 -113t92 -127t95 -123t69 -101t15 -61t-68 -3q-52 40 -98 94t-88 111t-86 112t-90 97h-10q-12 0 -32 -19t-43 -47t-48 -63t-49 -70t-40 -63q-20 -28 -28 -44q-12 -14 -28 -51t-34 -77t-38 -72t-34 -36q-24 0 -31 17t-7 45z" />
<glyph unicode="Y" horiz-adv-x="826" d="M404 8v21v32v32v21q0 86 9 153t24 131t37 131t46 151q0 4 1 15t1 15q4 2 -35 20t-95 51t-122 83t-121 116t-88 148t-25 182q2 0 11 1t20 2t21 3h12q14 -40 38 -90t59 -102t77 -101t89 -88t98 -62t105 -23q36 80 57 127t33 73t16 39t6 28t4 36t10 65q0 8 16 17t33 11 t32 -4t15 -24q0 -110 -24 -209t-60 -193t-76 -187t-70 -191t-43 -204t5 -226q-12 -22 -24 -31t-32 -9t-34 9t-26 31z" />
<glyph unicode="Z" horiz-adv-x="1170" d="M344 144q0 50 30 94t66 86t66 83t30 83v10q-2 4 -8 18q-4 14 -8 18h-14t-21 1t-21 1h-12q-58 0 -115 -12t-117 -12q0 28 9 59t39 43q66 20 125 28t107 16t87 19t67 37t46 73t26 125q0 72 -35 121t-89 80t-118 44t-122 13q-48 0 -90 -12t-80 -27t-71 -27t-67 -12 q-4 0 -10 7t-10 11v12q0 52 35 80t83 44t97 18t81 2q92 0 182 -16t159 -58t111 -114t42 -182q0 -32 -6 -54t-13 -41t-12 -41t-5 -50q0 -10 20 -16t50 -9t65 -5t65 -8t51 -18t21 -32v-4l-2 -4q-14 -8 -32 -18t-38 -19t-40 -15t-36 -6q-8 0 -13 3l-10 6t-9 6t-12 3 q-78 0 -135 -38t-101 -96t-80 -126t-70 -124q0 -4 -3 -15t-3 -13q0 -32 14 -41t44 -9q72 0 143 16t140 34t139 32q72 16 140 16q26 0 33 -14t7 -36q0 -24 -6 -38t-34 -26q-128 -44 -257 -72t-263 -28h-27t-41 1t-41 1h-25q-50 16 -74 55t-24 89z" />
<glyph unicode="[" horiz-adv-x="978" d="M40 1152v8q0 20 10 39t26 29q88 34 194 72t216 69t221 52t207 21h6q4 -4 12 -18t10 -22v-10v-8q-4 -4 -11 -12t-11 -8q-84 -18 -177 -41t-188 -49t-188 -57t-175 -65h-16q0 -18 6 -55t17 -78t24 -78t27 -57q40 -264 61 -441t35 -284t26 -153q16 -46 40 -46q116 0 231 12 t231 12h35t56 -1t56 -1h37q18 -16 37 -39t19 -51q0 -2 -2 -4v0v-4q-4 -4 -17 -10t-19 -8q-58 2 -143 3t-175 0t-174 -5t-142 -16q-4 0 -15 -4t-23 -6t-23 -6t-15 -4q-4 -2 -12 -5t-17 -7t-19 -6l-10 -2q-2 0 -9 8t-9 12q-6 8 -14 29t-8 27q-2 8 -2 34t-3 59t-4 71t-3 71 t-4 58t-2 35q-2 10 -7 41t-12 74t-15 94t-16 99t-15 88t-11 66q-2 2 -5 10t-6 17t-7 17q-4 6 -4 10v22z" />
<glyph unicode="\" horiz-adv-x="882" d="M674 174q-20 22 -60 72t-89 112t-103 131t-103 132t-88 113t-57 74q-8 12 -34 44t-53 74t-47 85t-20 73q0 16 13 23t25 7q4 0 39 -37t91 -97t126 -140t144 -168t144 -176t125 -167t88 -140t33 -97q0 -12 -6 -29t-17 -32t-25 -25t-30 -6q-36 8 -50 27t-18 45t-8 53t-20 49 z" />
<glyph unicode="]" horiz-adv-x="882" d="M132 -94v22q4 12 4 16l38 16h518q16 0 18 14t2 22q0 100 2 226t1 264t-6 281t-20 277t-42 251t-69 201q-28 16 -79 28t-114 22t-128 20t-118 24t-87 30t-34 40q8 22 47 31t92 8t114 -9t116 -17t96 -15t55 -6q70 -14 111 -49t64 -85t33 -110q10 -56 24 -120q2 -40 5 -111 t8 -164t11 -200t12 -217t12 -217t12 -199t10 -164t6 -110v-36q0 -16 -11 -27t-25 -19t-30 -12t-30 -4h-538q-52 0 -66 27t-14 71z" />
<glyph unicode="^" horiz-adv-x="768" d="M384 1268q-38 -48 -81 -95t-82 -72t-72 -19t-49 62q56 52 96 84t67 64t46 74t35 114q4 16 17 17t25 1q28 0 42 -13t32 -43q12 -20 34 -45t45 -52t44 -52t33 -41q14 -22 21 -36t11 -25t6 -23t2 -32q0 -28 -6 -44t-34 -16q-30 0 -55 22t-51 52t-57 63t-69 55z" />
<glyph unicode="_" horiz-adv-x="1344" d="M56 174q0 32 24 35t54 3q72 0 145 -15t145 -23h18q8 0 39 -2t70 -5t84 -5t84 -4t68 -4t39 -2h37h66h80h80h66h37q22 0 43 -6t37 -17t26 -29t10 -42q0 -20 -13 -39t-33 -19q-52 0 -131 4t-173 10t-198 15t-204 21t-190 26t-159 30t-110 33t-41 35z" />
<glyph unicode="`" horiz-adv-x="354" d="M176 1096q24 -20 37 -32t24 -22t24 -22t37 -32q4 -4 12 -18t8 -18q0 -40 -14 -50q-16 -10 -44 -10q-4 0 -10 2t-26 17t-54 44t-90 83q-16 22 -29 48t-10 40t33 10t102 -40z" />
<glyph unicode="a" horiz-adv-x="1036" d="M38 338q2 34 20 78t56 86t96 75t137 47t180 2t225 -60v20l-2 18q0 52 -30 106t-77 97t-101 70t-104 27q-20 0 -35 -6t-29 -15t-27 -16t-31 -7q-4 0 -4 2l-4 4q-4 4 -11 10t-7 8q0 36 13 62t36 42t52 25t61 9q80 -8 153 -49t134 -103t107 -143t77 -168t41 -175 q12 -92 2 -172q-2 0 -12 1t-22 2t-20 3l-10 2q-42 94 -94 152t-103 91t-95 46t-72 19q-30 0 -71 -4t-85 -14t-89 -27t-80 -41t-56 -57t-21 -77q0 -48 38 -81t92 -54t110 -29t90 -8q56 0 110 6t107 14t105 14t104 6h14t21 -1t20 -1h13q16 -6 18 -18t2 -24t-25 -26t-65 -28 t-89 -29t-94 -25t-84 -17t-55 -7q-84 0 -178 14t-172 51t-129 103t-51 170z" />
<glyph unicode="b" horiz-adv-x="1018" d="M58 960q-10 88 -24 150t-13 102t25 62q26 22 90 30q4 -20 10 -76t13 -127t16 -148t17 -141t18 -104q10 -44 18 -40q36 0 71 12t75 12q60 0 128 -11t135 -33t130 -57t110 -81t75 -106t28 -132q0 -92 -45 -147t-115 -83t-152 -36q-84 -8 -156 -8q-100 0 -166 25t-108 69 t-64 102t-32 127t-14 144t-12 151q-2 14 -10 63t-19 108t-19 109t-10 64zM250 436q-20 -88 11 -152t90 -105t136 -57t153 -5t136 47q64 38 92 104q0 54 -25 98t-65 78t-91 59t-104 41t-105 25t-92 9q-66 0 -101 -38t-35 -104z" />
<glyph unicode="c" horiz-adv-x="920" d="M38 446q0 88 34 171t93 147t137 102t166 38q40 0 85 -9t85 -29t66 -53t26 -83q0 -8 -5 -32t-13 -48t-19 -43t-19 -19q0 94 -52 157t-152 63q-76 0 -136 -32t-100 -84t-61 -117t-21 -133q0 -92 30 -152t82 -97t120 -55t144 -24t152 -4t146 6q6 0 20 -8t20 -10v-6 q0 -4 1 -4t1 -2q0 -22 -22 -38t-54 -26t-70 -14t-75 -7t-65 -3h-40q-116 0 -209 26t-158 81t-101 140t-36 201z" />
<glyph unicode="d" horiz-adv-x="1074" d="M38 454q0 74 19 156t60 152t104 115t155 45q48 0 96 -14t99 -40t106 -61t117 -77q8 80 -6 165t-36 167t-45 155t-33 131t-2 96t48 48q54 -40 93 -113t67 -169t46 -205t30 -221t19 -218t15 -195t15 -152t21 -89q0 -32 -23 -40t-47 -8q-20 0 -34 15t-22 35t-15 45t-15 46 t-18 35t-26 14q-4 0 -11 -1t-7 -3q-38 -52 -89 -101t-112 -86t-128 -59t-135 -22q-76 0 -133 50t-96 120t-58 148t-19 136zM162 418q20 -72 36 -126t39 -88t55 -51t84 -17q64 0 136 37t134 95t102 127t40 133v24v24q-106 104 -195 149t-159 46t-122 -31t-86 -84t-50 -116 t-14 -122z" />
<glyph unicode="e" horiz-adv-x="1056" d="M38 536q0 104 31 199t90 167t144 115t197 43q66 -8 115 -36t80 -69t45 -95q12 -52 12 -112q0 -72 -42 -130t-106 -97t-138 -60t-138 -21h-49t-45 8t-32 24t-12 48q0 10 3 17t17 10t42 1q28 -4 76 -12q28 0 81 19t108 49t95 69t40 77q0 40 -13 79t-39 69t-61 48t-79 14 q-70 -6 -127 -38t-97 -83t-62 -113t-22 -130q0 -52 2 -104t15 -102t42 -96t84 -81t139 -58t208 -29l358 24q-32 -44 -81 -72t-104 -45t-109 -25t-102 -8q-116 0 -218 38t-180 107t-123 168t-45 223z" />
<glyph unicode="f" horiz-adv-x="772" d="M676 636q42 0 36 -40q18 -22 -1 -41t-63 -28t-110 -8t-144 17q0 -76 35 -142t77 -126t78 -116t36 -112q0 -26 -16 -34q-12 -8 -36 -8q-20 0 -43 15t-42 37t-35 46q-14 24 -22 40l-23 46l-35 70t-40 83t-39 83t-33 72q-16 30 -22 46l-22 22q-10 -4 -37 -9t-57 -11t-58 -12 t-40 -6h-10q-16 0 -22 11t-6 27q0 34 24 52t58 26t71 11t61 5q-4 60 -6 142t8 170t33 173t66 153t109 110t162 42q54 0 118 -27t119 -71t91 -99t36 -111h-46q-40 0 -71 30t-65 67t-72 67t-86 30q-68 0 -124 -30t-96 -80t-60 -112t-20 -126v-20l36 -286q4 -4 22 -7t57 -8 t104 -11t165 -12z" />
<glyph unicode="g" horiz-adv-x="750" d="M-268 -556q-8 28 1 50t25 36t35 18t32 -5t16 -33t-13 -66q0 -44 37 -86t96 -76t129 -62t136 -48t118 -30q48 -10 72 -10q50 0 85 26t60 68t40 95t23 106t10 103t2 84q0 16 -3 59t-9 99t-14 116t-18 112t-21 84t-23 32q-20 0 -47 -12t-56 -26t-59 -26t-58 -12 q-56 0 -110 24t-93 62t-63 90t-24 108q0 88 35 180t96 168t144 124t177 48q72 -20 117 -91t70 -175t36 -231t15 -259t7 -259t15 -231q0 -46 -5 -109t-17 -129t-33 -131t-55 -116t-83 -82t-113 -31q-52 0 -125 12t-152 38t-157 64t-140 87t-100 110t-38 133zM152 358 q0 -36 11 -69t32 -59t52 -41t69 -15q102 0 155 40t73 100t20 128q-2 70 -6 126q0 28 -4 56t-16 52t-33 38t-53 14q-66 0 -122 -37t-95 -92t-61 -120t-22 -121z" />
<glyph unicode="h" horiz-adv-x="876" d="M656 36q4 52 8 108t7 112t4 110t1 98q0 64 -18 122t-52 101t-85 68t-121 25q-28 0 -48 -4t-40 -13t-44 -23q-24 -16 -56 -38q0 -4 -1 -15t-1 -13q0 -44 9 -117t19 -152t20 -153t10 -120v-16t-1 -26t-1 -26v-18q-12 -28 -29 -35t-41 -7q-24 -4 -36 34t-18 110t-11 174 t-14 224t-26 259t-49 281q-16 56 -25 95t-17 70t-14 64t-14 79v8q0 8 10 15t23 13t26 9t21 3q38 -100 61 -169t37 -119t20 -84t10 -66t6 -66t8 -82q104 64 189 70t151 -25t115 -95t81 -144t49 -170t22 -174t-4 -155t-27 -114t-48 -50t-66 37z" />
<glyph unicode="i" horiz-adv-x="358" d="M126 692v30t1 46t1 46v30q-8 62 36 62q20 0 34 -10t26 -30q-6 -104 9 -201t34 -192t36 -191t17 -200q0 -28 -17 -56t-51 -28q-26 0 -45 45t-33 114t-24 153t-15 161t-7 138t-2 83zM24 1194q0 24 14 31t36 7q14 2 37 -17t38 -43t17 -44q2 -24 -30 -28h-10q-30 0 -50 4 t-31 13t-16 27t-5 50z" />
<glyph unicode="j" horiz-adv-x="410" d="M292 -918q-96 26 -184 86t-158 142t-116 181t-58 203q0 14 -1 26t1 24t10 22t26 14q26 -14 51 -57t53 -103t60 -126t74 -120t96 -90t122 -36q22 0 37 12t24 29t12 37t3 36q8 176 -14 351t-54 349t-66 346t-48 344q4 14 4 24t5 17t15 11t34 4q20 -14 43 -72t47 -148 t48 -205t44 -241t34 -256t19 -252t0 -228t-24 -181t-53 -114t-86 -29zM58 1156q0 8 15 22t25 16q28 6 47 -7t31 -34t18 -47t6 -46q-22 -20 -47 -22t-46 12t-35 42t-14 64z" />
<glyph unicode="k" horiz-adv-x="826" d="M100 58q0 4 2 21t6 37t6 37t2 21v21t1 39t1 46v36v32t-1 41t-1 36v17q-6 92 -23 195t-36 205t-36 200t-25 180q18 48 39 33t43 -71t44 -139t39 -169t31 -162q12 -76 20 -118q4 -4 15 -4h15q40 0 70 24t57 61t53 80t54 79t62 61t78 25q28 0 34 -17t4 -39q-28 -22 -64 -58 t-77 -78t-82 -88t-72 -89t-52 -83t-21 -70q0 -44 29 -80t74 -66t101 -51t112 -36t106 -23q48 -8 80 -8q18 -4 20 -20t2 -30q0 -30 -19 -44t-46 -20t-56 -6h-49q-44 0 -101 28t-110 61t-93 61t-56 28q-32 0 -43 -31t-15 -67t-13 -67t-39 -31q-26 0 -48 14t-22 46z" />
<glyph unicode="l" horiz-adv-x="246" d="M82 16q-20 142 -25 283t-5 283t4 282t2 280q0 16 12 22t28 6q18 0 32 -13t24 -32t15 -38t5 -31q12 -286 16 -477t0 -308t-13 -173t-23 -76t-33 -16t-39 8z" />
<glyph unicode="m" horiz-adv-x="1536" d="M1342 70q0 6 1 16t1 20v18l2 12q0 6 3 34t7 60t6 61t2 37q-4 42 -18 110t-43 134t-73 114t-104 48q-54 0 -113 -27t-110 -70t-83 -99q-34 -54 -34 -114q0 -30 10 -59t21 -57t21 -58t10 -62q0 -24 -9 -48t-43 -24q-36 0 -59 42t-42 107t-40 139t-52 139t-76 107t-115 42 q-54 0 -96 -23t-69 -61t-42 -86t-15 -98q0 -80 11 -157t11 -155q0 -28 -6 -51t-40 -23q-22 0 -37 11t-25 28t-16 38t-10 37q4 82 1 152t-8 133t-10 127t-5 136v14t1 21t1 20v13q2 4 10 10t10 10h10q34 0 50 -24q16 -20 16 -52q32 34 57 53t48 29t48 12t61 2q58 0 105 -12 t85 -35t70 -61q32 -36 64 -84q2 0 5 -1t5 -1t20 19t48 46t70 60t84 61t90 47t90 19q68 0 121 -28t95 -75t72 -106t50 -122t29 -125t9 -114q0 -20 -1 -69t-10 -100t-29 -90t-56 -39q-18 0 -26 7t-12 17t-4 22v26z" />
<glyph unicode="n" horiz-adv-x="942" d="M58 780q0 18 13 23t29 5q12 0 17 -6t7 -14t6 -15t14 -7q28 0 68 22t87 48t100 48t105 22q68 0 125 -35t102 -93t77 -130t54 -147t32 -146t10 -123q0 -18 -3 -54t-10 -72t-23 -63t-40 -27q-4 0 -14 1t-20 4t-17 7t-7 12q18 154 0 289t-58 237t-98 162t-124 60 q-62 0 -116 -20t-94 -58t-63 -92t-23 -118t12 -127t27 -126t27 -127t12 -128q-56 0 -94 46t-61 118t-36 162t-18 177t-5 164v121z" />
<glyph unicode="o" d="M38 408q0 110 48 192t126 138t175 83t195 27q52 0 97 -19t86 -52t73 -76t55 -89t35 -93t12 -91q0 -102 -40 -182t-108 -135t-154 -84t-176 -29q-92 0 -169 29t-134 81t-89 129t-32 171zM136 424q0 -62 23 -119t64 -99t97 -67t120 -25q34 -4 83 11t98 44t94 70t75 90 t37 102t-18 106t-91 102t-182 91q-66 0 -137 -19t-129 -57t-96 -96t-38 -134z" />
<glyph unicode="p" horiz-adv-x="1066" d="M38 262q0 126 44 212t117 138t170 76t203 24q86 0 167 -28t145 -78t102 -122t38 -164q0 -80 -30 -131t-82 -80t-115 -41t-129 -12q-64 0 -131 6t-123 28t-92 66t-36 124q42 0 81 -17t79 -36t80 -35q38 -18 82 -18q32 0 85 6t100 23t81 47t34 76q0 68 -30 118t-78 83 t-108 51t-120 18q-8 0 -39 -4t-71 -13t-84 -22t-81 -32t-61 -43t-24 -54v-24q2 -22 5 -59t5 -74t6 -65t4 -32q4 -32 14 -99t22 -150t27 -175t29 -175t25 -149t17 -96q0 -4 1 -7t1 -5v-2l-2 -4v-4q-4 -6 -18 -20q-16 -12 -20 -16h-12q-20 0 -42 37t-45 100t-46 145t-45 170 t-40 174t-32 160t-21 128t-7 76z" />
<glyph unicode="q" horiz-adv-x="844" d="M520 58q-4 -2 -22 -4t-38 -6t-36 -6t-20 -2q-98 0 -167 37t-113 99t-65 142t-21 164q0 100 31 197t91 173t145 122t191 46q40 0 88 -14t88 -40t68 -66t28 -92l-60 -692q0 -88 7 -175t15 -174t15 -175t7 -174q0 -30 -4 -50q0 -22 -36 -22q-32 0 -52 31t-30 81t-12 114 t-4 130t-4 130t-8 114t-21 81t-43 31h-18zM132 476q0 -58 18 -113t52 -97t82 -68q52 -26 116 -26q44 0 90 7t86 33q10 62 13 133t9 145t18 148t38 144q0 34 -19 60t-47 44t-62 26t-66 8q-76 0 -136 -46t-103 -114t-66 -145t-23 -139z" />
<glyph unicode="r" horiz-adv-x="710" d="M220 0q-44 80 -76 174t-54 190t-35 187t-17 165q0 14 -2 31t-1 35t6 34t17 28h4q2 0 2 1t2 1t2 -1t4 -1h4q4 -2 20 -8t20 -10q36 12 74 29t77 32t79 25t78 10q28 0 49 -2t42 -7t45 -12t56 -17q16 -12 29 -23t24 -25t17 -34t6 -52q-32 -4 -75 5t-90 23t-97 24t-96 8 t-86 -26q-42 -20 -74 -72q-14 -58 -12 -114t14 -109t31 -106t36 -106t31 -105t18 -106q0 -20 -22 -43t-50 -23z" />
<glyph unicode="s" horiz-adv-x="1054" d="M34 242q16 12 29 15t29 3q18 0 36 -9t33 -22t31 -25t34 -20q52 -22 83 -36t57 -22t60 -10t88 -2q42 0 102 -1t114 10t92 40t38 89q2 58 -31 91t-89 51t-126 25t-144 15t-145 23t-127 47t-90 88t-36 144q12 64 63 107t122 66t151 24t147 -20t112 -67t47 -114q4 -40 -6 -66 t-27 -39t-35 -12t-28 14t-9 38t23 63q-8 38 -46 60t-88 31t-107 4t-104 -21t-76 -42t-25 -60q0 -60 35 -93t91 -51t129 -26t150 -15t149 -20t130 -43t92 -81t34 -133q0 -62 -32 -107t-81 -75t-107 -44t-110 -14t-111 1t-120 7t-123 19t-115 40t-95 69t-68 106z" />
<glyph unicode="t" horiz-adv-x="672" d="M272 688h-56t-83 7t-78 23t-35 46q0 8 3 23t19 15l206 18q8 74 12 121t2 88t-5 86t-5 117q0 14 6 22t15 12t20 6t17 2q12 0 25 -8t23 -20t16 -25t6 -25l16 -374l172 -8q34 4 63 -13t31 -63q-24 -26 -58 -31t-71 -4t-73 0t-64 -19q0 -12 2 -66t4 -128t5 -158t5 -155 t3 -121t1 -56q-46 -28 -74 5t-45 98t-24 152t-8 172t1 157t6 104z" />
<glyph unicode="u" horiz-adv-x="1028" d="M768 290q-46 -26 -79 -63t-67 -70t-75 -57t-105 -24q-72 0 -130 31t-103 84t-78 120t-54 138t-32 140t-11 125q-16 108 6 169t53 78t53 -8t6 -87q-4 -8 -6 -25t-4 -35t-4 -34t-2 -22q0 -42 8 -99t25 -119t43 -123t62 -109t83 -78t103 -30q36 0 82 35t87 84t70 101t29 88 q0 20 1 66t1 98t-1 98t-1 64q12 20 26 31t34 11q24 0 40 -32t26 -82t14 -108t6 -112t4 -95t6 -55q10 -40 29 -90t37 -97t32 -86t14 -59q0 -30 -17 -36t-43 -6q-32 0 -47 16t-22 41t-11 55t-13 62t-26 60t-49 46z" />
<glyph unicode="v" horiz-adv-x="798" d="M20 712q2 6 6 15t11 19t14 17t17 7q2 0 2 -1t4 -1h4q46 -22 76 -63t53 -93t43 -111t45 -116t59 -111t86 -96q18 60 36 117t41 115t54 120t71 134q48 20 77 24t41 -7t4 -33t-34 -52q-16 -14 -37 -64t-45 -118t-51 -142t-55 -135t-55 -101t-53 -38q-28 0 -63 43t-75 111 t-80 149t-77 161t-68 147t-51 103z" />
<glyph unicode="w" horiz-adv-x="1344" d="M692 192q-80 -108 -161 -151t-154 -38t-138 53t-112 120t-76 163t-31 185t25 183t91 159q32 -12 36 -32q4 -22 4 -46q0 -34 -7 -65t-15 -63t-15 -66t-7 -70q0 -26 6 -65t17 -83t29 -87t43 -78t55 -58t68 -23q34 0 81 21t90 53t72 72t29 80l12 260q0 6 8 12t17 11t19 9 t14 4q28 0 38 -36t16 -93t14 -121t29 -121t63 -93q40 -36 116 -36q74 2 118 31t64 77t19 107t-16 118t-40 113t-55 94q-4 16 0 23t11 10t17 4t16 1q32 -8 69 -53t65 -107t43 -138t8 -150t-43 -138t-110 -104q-88 -6 -144 -7t-93 4t-59 17t-42 31t-43 45t-61 62z" />
<glyph unicode="x" horiz-adv-x="918" d="M786 -104q-54 46 -100 98t-94 105t-98 100t-112 81q-28 0 -51 -19t-45 -50t-41 -68t-36 -69t-31 -56t-26 -28q-38 2 -38 38q0 56 30 107t67 96t67 84t30 71q0 2 -1 4t-1 4q-34 32 -78 74t-89 89t-83 95q-36 44 -58 88q-4 16 1 24t13 13t18 6t16 1q50 -18 95 -58t87 -84 t83 -86t81 -64q40 6 90 41t104 79t106 89t96 70t74 23t42 -52q0 -10 -27 -33t-67 -55t-90 -68t-97 -70t-86 -67t-59 -55q42 -40 99 -92t113 -111t103 -121t69 -116q-8 -20 -20 -40t-36 -20q-4 0 -11 1t-9 1z" />
<glyph unicode="y" d="M92 -624v27t4 22t12 15q12 4 28 4q30 -34 77 -87t107 -103t126 -88t134 -38q56 2 96 29t68 71t46 100t29 114t16 112t11 94q4 20 9 67t10 104t8 119t-1 113t-16 84t-36 33q-34 0 -72 -20t-79 -45t-83 -45t-82 -20q-76 0 -139 31t-115 81t-92 117t-67 139t-40 144t-13 136 q0 14 -3 46t1 66t18 60t44 26q8 0 13 -32t12 -83t18 -117t29 -134t44 -134t64 -117t91 -83t121 -32q44 0 92 19t91 49t79 68q36 40 56 78q0 8 -2 38t-4 69t-4 85t-4 87t-3 71t-1 38q4 122 18 149t34 -17t42 -148t41 -243t30 -303t9 -329t-21 -319t-61 -273t-110 -193 t-168 -78q-40 0 -95 15t-111 41t-111 62t-98 78t-70 88t-27 92z" />
<glyph unicode="z" horiz-adv-x="942" d="M172 136q0 34 21 76t52 83t63 78t54 61l-264 8q-8 0 -13 6t-7 15t-2 17v10q0 18 2 27t10 13t20 6h28q20 2 68 8t104 12t105 11t69 9q28 40 46 69t29 54t16 51t5 62q0 16 -3 38t-12 43t-24 35t-39 14h-250q-22 0 -41 -16t-34 -34t-31 -32q-16 -16 -28 -16q-34 0 -56 18 t-22 52q0 32 23 54t61 39t82 26t88 15t81 9t57 3q56 0 105 -16t83 -47t54 -75t20 -102q0 -36 -8 -66t-18 -60t-18 -60t-8 -64q2 0 25 3t51 4t50 -4t22 -23v-5v-3v-6q-6 -10 -21 -28t-17 -18l-214 -20q-16 -28 -46 -61t-60 -68t-54 -69t-28 -62t20 -49t92 -29q44 0 95 8 t103 22t100 32t86 38q16 -12 28 -30t12 -38q0 -30 -28 -53t-72 -41t-98 -32t-107 -22t-98 -12t-69 -4q-28 0 -69 8t-80 23t-65 41t-26 64z" />
<glyph unicode="{" horiz-adv-x="806" d="M132 144q0 74 32 127t80 97t102 81t102 78t80 89t32 112v13t-1 18t-1 17v12q-4 4 -20 12q-14 8 -18 8h-12q-40 0 -92 -19t-107 -45t-102 -52t-71 -40h-11h-9q-26 0 -33 12t-7 36v16v12q28 14 74 35t90 48t80 60t46 71q-80 14 -141 59t-103 107t-63 135t-21 145 q0 90 51 170t130 140t172 95t177 35q28 0 61 -8t60 -25t45 -44t18 -63q0 -16 -6 -38t-26 -22q-12 0 -27 16t-34 35t-41 35t-50 16q-86 -8 -157 -39t-126 -82t-94 -118t-59 -147q0 -62 24 -107t64 -80t92 -61t105 -48t104 -43t95 -45q-12 -38 -1 -68t28 -57t33 -57t16 -66 q0 -70 -34 -123t-85 -96t-111 -81t-111 -82t-85 -95t-34 -119v-18q24 -42 50 -78t60 -61t75 -39t91 -14h12q74 14 145 26t147 12q0 -34 -23 -58t-59 -39t-80 -23t-87 -12t-78 -5t-53 -1q-72 -14 -128 15t-94 82t-58 118t-20 123z" />
<glyph unicode="|" horiz-adv-x="306" d="M152 20q-2 16 -3 56t-5 86t-6 88t-2 58q-4 92 -3 171t-2 156t-9 155t-24 170q-16 68 -38 144t-22 148q0 12 2 32v20q0 4 7 13t11 9q6 0 20 -8q14 -10 20 -14q52 -142 83 -286t48 -290t22 -295t-1 -297q2 -4 5 -12t6 -17t5 -18t2 -13q0 -44 -24 -60q-20 -16 -60 -16h-10 q-4 2 -12 9t-10 11z" />
<glyph unicode="}" horiz-adv-x="902" d="M422 -462q-56 -6 -124 2t-130 33t-108 73q-46 46 -60 122q0 6 4 17t11 21t16 16t17 6q20 0 31 -12t18 -29t15 -31q12 -16 24 -24q18 -10 49 -26l62 -32t54 -27t27 -11q78 -16 154 3t135 64t96 112t37 147q0 34 -13 80t-34 95t-48 99t-55 97t-54 85t-46 64q-36 44 -80 77 t-83 69t-64 80t-25 108q0 38 10 62t10 54q0 20 -6 38t-13 36t-13 38t-6 40q0 38 5 67t33 59l328 326q8 8 13 24t6 33t1 32v27q0 60 -30 95t-76 53t-100 23t-104 5q-26 0 -49 -5l-46 -10t-47 -8t-48 -1q10 -26 29 -31t39 -5t34 -6t14 -34q0 -30 -17 -35t-41 -5q-74 0 -116 40 t-42 108q0 32 20 50t53 28t71 12t75 1t67 -3t42 -2h35t53 -1t52 -1h36q50 -18 91 -47t72 -65t49 -84t18 -102q0 -64 -30 -115t-75 -96t-98 -84t-98 -77t-75 -78t-30 -88q0 -24 10 -36t25 -18t37 -8l44 -4q14 -2 47 -2h70h69t46 2q28 -12 33 -27t5 -39q0 -12 -2 -28 q0 -16 -16 -20q-16 -2 -54 -5t-81 -5t-81 -6t-54 -4q-34 -4 -62 -22t-36 -54q-2 -6 17 -30t47 -57t63 -70t67 -73t58 -68t38 -50q38 -62 76 -122t69 -124t50 -131t19 -143q0 -100 -32 -174t-90 -126t-135 -77t-169 -25z" />
<glyph unicode="~" horiz-adv-x="824" d="M582 898q-52 -20 -93 -10t-78 34t-73 53t-78 49q-56 4 -83 -19t-37 -56t-9 -67t-3 -52t-18 -13t-54 53q-16 48 -9 91t31 74t62 51q36 22 78 22q4 2 15 1t35 -9t63 -28t103 -58q38 -22 60 -24t54 10q8 4 20 8t12 6l122 96q24 -2 37 -10t18 -18t4 -20t-9 -16 q-54 -44 -83 -72t-43 -42t-17 -19t-4 -7t-4 -3t-19 -5z" />
<glyph unicode="&#xa1;" horiz-adv-x="306" d="M42.5547 1276.34q0 -48.7676 42.0127 -69.9014q45.832 -22.7578 103.122 -22.7578q19.0967 0 34.374 9.75391q15.2773 9.75293 26.7354 23.5713q11.458 13.8174 16.2324 29.2607q4.77344 15.4434 4.77344 30.0732q0 17.8818 -15.2773 32.5127t-36.2832 26.0098 t-45.832 17.0684q-24.8262 5.69043 -42.0127 5.69043q-47.7412 0 -67.793 -21.9463q-20.0518 -21.9453 -20.0518 -59.335zM101.754 910.583q-7.63867 -42.2666 -10.5029 -114.605q-2.86426 -72.3398 -3.81934 -159.311q-0.955078 -86.9697 0 -182.068 q0.955078 -95.0977 0.955078 -182.068v-158.497q0 -74.7773 -3.81934 -117.043l93.5732 -13.0059l1.91016 29.2617q0 29.2607 0.955078 76.4033t1.90918 108.916q0.955078 61.7734 2.86426 128.423q1.91016 66.6504 1.91016 134.113t1.91016 125.984 q1.90918 58.5225 2.86426 103.227q0.954102 44.7041 2.86426 64.2119v12.1914q0 8.94141 0.955078 21.1338q0.955078 12.1914 0.955078 23.5713v17.8818q0 13.0039 0.954102 30.0732q0.955078 17.0693 -1.90918 33.3252q-2.86523 16.2559 -12.4131 26.8223t-32.4639 10.5664 q-13.3682 0 -28.6455 -1.625q-15.2773 -1.62598 -21.0068 -17.8818z" />
<glyph unicode="&#xa2;" horiz-adv-x="920" d="M452 -102q-2 10 -1 34t-1 58q-206 12 -309 122t-103 334q0 80 29 157t80 140t119 104t148 53l-6 30q-4 16 -4 30q-8 76 -2 107t20 32t30 -20t30 -53t22 -66t2 -58q38 -4 77 -15t72 -31t54 -51t21 -75q0 -8 -5 -32t-13 -48t-19 -43t-19 -19q0 80 -36 138t-108 74 q16 -80 23 -154t9 -153t0 -167q-2 -86 -4 -190q2 -4 4 -10t6 -14q66 -4 131 -2t127 6q6 0 20 -8t20 -10v-6q0 -4 1 -4t1 -2q8 -26 -22 -40t-77 -22t-104 -13t-103 -11q-6 -22 -14 -44t-18 -39t-22 -28t-24 -11h-12q-4 2 -11 9t-9 11zM152 442q0 -80 23 -135t63 -93t94 -58 q52 -20 114 -32q-2 64 -3 116t-1 68q-4 72 -2 134v122q0 60 -3 119t-9 123q-66 -8 -117 -43t-87 -85t-54 -111t-18 -125z" />
<glyph unicode="&#xa3;" horiz-adv-x="1554" d="M20 174q0 36 18 55t45 29t58 11t57 1q40 0 73 -1t65 -3t66 -6t80 -10q36 24 70 81t61 124t44 134t17 115q0 20 -10 29t-24 15q-16 4 -32 4h-28q-36 0 -71 -6t-70 -14t-71 -14t-72 -6h-6q-4 4 -11 18t-9 20v18q4 6 19 21l19 19q14 4 49 11t75 17t76 18t50 12h20 q52 8 87 39t60 76t44 100t41 110t50 107t71 93t106 65t153 24q58 0 114 -19t99 -56t69 -89t26 -116q0 -24 -6 -48q-8 -22 -32 -22q-16 0 -26 17t-22 43t-27 57t-40 57t-62 43t-89 17q-80 0 -137 -24t-97 -66t-66 -103t-48 -135q-4 -8 -7 -24l-6 -32t-5 -28l-2 -10l20 -22 h346q14 0 22 -6t12 -16t5 -21t1 -21q0 -28 -8 -50t-40 -22q-20 0 -36 4t-34 20h-20h-32h-32h-20q-80 0 -130 -23t-81 -63t-48 -92t-32 -112t-33 -124t-52 -126l40 -18q54 -4 115 -2t119 -6t107 -31t81 -75q-44 -32 -97 -38t-103 -6q-72 0 -141 12t-141 12q-52 0 -96 -18 t-85 -42t-84 -42t-97 -18q-40 0 -81 10t-74 31t-55 55t-22 82z" />
<glyph unicode="&#xa4;" horiz-adv-x="1266" d="M994 52q-40 32 -77 73t-77 87q-100 -40 -210 -40q-152 0 -260 72q-28 -40 -53 -75t-47 -62t-41 -43t-31 -14q-38 2 -38 38q0 48 36 112t86 128q-36 50 -57 113t-21 139q0 64 18 120t48 102q-32 32 -65 66t-61 65t-48 60t-32 51q-4 16 1 24t13 13t17 6t17 1q24 -8 53 -28 t62 -45t67 -54t70 -61q80 60 181 91t205 31q56 0 107 -25t95 -65q40 36 77 65t67 42t51 6t27 -43q-44 -38 -81 -76t-71 -78q40 -60 63 -126t23 -122q0 -112 -48 -196t-126 -140q50 -76 138 -152q-8 -22 -22 -41t-38 -19h-10h-8zM300 572q0 -62 23 -117t64 -98t97 -68 t120 -25q82 -8 163 28t141 96t91 135t15 146t-90 129t-222 84q-66 0 -137 -19t-130 -58t-97 -98t-38 -135z" />
<glyph unicode="&#xa5;" horiz-adv-x="798" d="M70 412q0 6 8 14t12 8q56 4 81 6t35 4l8 2h140l14 138l-264 24q-24 0 -48 10t-24 40q-22 4 1 10t75 9t124 5t146 0l10 82l-310 708q2 6 6 16t11 20t14 17t17 7l2 -2h4h4q46 -22 73 -65t44 -96t30 -113t32 -119t50 -114t83 -95q18 60 44 119t59 120t71 125q38 60 78 132 q96 42 118 18t-30 -84l-290 -584l-6 -98q44 -4 84 -10t69 -15t47 -21q16 -10 16 -26q0 -4 -16 -18t-24 -20l-4 -2q-4 -2 -6 -2l-172 14l-10 -124q34 0 69 -4t62 -13t49 -27q24 -16 32 -40l-78 -40l-140 2l-22 -336l-140 -6l34 344l-156 4q-26 0 -48 2t-36 9t-23 22t-9 43z " />
<glyph unicode="&#xa6;" horiz-adv-x="240" d="M166 590q6 -208 8 -331t-1 -189t-11 -84t-19 -12t-27 22t-34 20q-14 92 -21 159t-11 128t-4 127t2 160h118zM58 656q2 48 2 114v130q0 68 -1 132t-1 112q0 16 12 22t28 6q18 0 32 -13t24 -32t15 -38t5 -31q2 -42 0 -98t-6 -114t-8 -110v-84z" />
<glyph unicode="&#xa7;" horiz-adv-x="1054" d="M630 416q-54 -2 -118 0t-127 12t-121 30t-102 56t-70 90q-24 56 -20 132q12 66 64 109t124 63q-64 32 -104 89t-42 155q10 64 53 107t106 67t139 28t153 -11t149 -46t128 -81q66 -66 82 -109t-6 -55t-72 12q-50 20 -116 84q-30 32 -80 51t-108 27t-116 6t-103 -16 t-72 -39t-23 -59q0 -58 34 -92t92 -52t130 -25t148 -15t149 -22t130 -43t91 -80t34 -133q0 -38 -12 -69t-35 -57t-52 -46t-63 -34q54 -30 88 -80t34 -130q0 -62 -32 -107t-81 -75t-107 -44t-110 -14q-76 0 -163 4t-167 28t-148 74q-72 50 -108 144q16 12 30 21t30 -1 q48 -28 88 -55t82 -50t90 -37t114 -14q42 0 102 -1t114 10t92 40t38 89q0 42 -18 71t-48 47t-72 28t-92 18zM680 832q-118 -4 -197 -10t-130 -13t-80 -19t-43 -30t-21 -45t-15 -63q24 -40 59 -64t81 -37t102 -17t120 -4q42 0 101 -1t113 10t93 40t39 89q0 40 -17 68t-46 47 t-71 30t-88 19z" />
<glyph unicode="&#xa8;" horiz-adv-x="814" d="M138 976q0 8 10 24t23 34t29 30q12 12 24 12q32 0 55 -11t37 -27t21 -36t7 -38q0 -12 -10 -27t-26 -28t-35 -22t-39 -9q-22 0 -40 11t-30 26t-19 32t-7 29zM458 976q0 8 9 24t24 34t30 30t25 12q30 0 52 -11t37 -27t22 -36t7 -38q0 -12 -10 -27t-25 -28t-36 -22t-39 -9 q-22 0 -40 11t-30 26t-19 32t-7 29z" />
<glyph unicode="&#xa9;" horiz-adv-x="1368" d="M70 552q-4 58 13 123t47 129t72 122t92 104t107 74t113 32q112 14 218 -4t200 -63t172 -117t132 -165t81 -204t19 -237q-14 -68 -55 -119t-100 -88t-130 -61t-144 -41t-142 -27t-123 -18q-124 0 -229 41t-181 114t-119 176t-43 229zM166 560q-2 -92 39 -171t107 -140 t149 -99t163 -50q28 0 83 7t122 23t139 38t132 54t97 71t37 87q10 126 -29 228t-110 179t-162 130t-184 82t-177 33t-138 -20q-40 -16 -77 -48t-67 -74t-53 -88t-38 -91t-24 -85t-9 -66zM344 500q2 66 19 129t53 118t95 100t145 73q40 0 85 -8t85 -29t66 -54t26 -81 q0 -10 -5 -34t-13 -49t-19 -43t-21 -18q0 94 -52 156q-52 64 -152 64q-76 -30 -117 -66t-59 -78t-19 -88t-1 -96q8 -78 31 -121t60 -63t85 -21t104 3t118 10t130 2q8 0 22 -7t16 -13v-4v-4l2 -2q0 -34 -32 -53t-74 -28t-84 -10t-60 -1q-112 8 -189 19t-129 43t-80 91 t-36 163z" />
<glyph unicode="&#xaa;" horiz-adv-x="546" d="M36.5195 649.482q0.974609 18.457 9.74805 42.3418q8.77246 23.8848 27.292 46.6846q18.5205 22.7998 46.7871 40.7139q28.2676 17.9141 66.7695 25.5137t87.7256 1.08594q49.2236 -6.51465 109.657 -32.5713v10.8574l-0.974609 9.77051q0 28.2285 -14.6211 57.542 t-37.5273 52.6562t-49.2236 37.999q-26.3184 14.6572 -50.6865 14.6572q-9.74707 0 -17.0576 -3.25684q-7.31055 -3.25781 -14.1338 -8.14258q-6.82324 -4.88574 -13.1582 -8.68555q-6.33594 -3.80078 -15.1084 -3.80078q-1.94922 0 -1.94922 1.08594 q-0.975586 1.08594 -1.9502 2.17188q-1.94922 2.1709 -5.36035 5.42773q-3.41211 3.25781 -3.41211 4.34375q0 19.542 6.33594 33.6562q6.33594 14.1133 17.5449 22.7988q11.21 8.68555 25.3428 13.5713q14.1338 4.88574 29.7295 4.88574q38.9893 -4.34277 74.5674 -26.5996 q35.5771 -22.2559 65.3066 -55.9131q29.7295 -33.6562 52.1484 -77.627t37.5273 -91.1982t19.9814 -94.998q5.84863 -49.9414 0.974609 -93.3691q-0.974609 0 -5.84766 0.541992q-4.87402 0.542969 -10.7227 1.08594q-5.84766 0.542969 -9.74707 1.62891l-4.87402 1.08496 q-20.4688 51.0283 -45.8125 82.5137q-25.3428 31.4844 -50.1982 49.3984t-46.2998 24.9707q-21.4443 7.05762 -35.0898 10.3145q-14.6211 0 -34.6035 -2.17188q-19.9814 -2.1709 -41.4258 -7.59961q-21.4443 -5.42773 -43.376 -14.6562q-21.9307 -9.22852 -38.9893 -22.2568 q-17.0576 -13.0283 -27.292 -30.9424q-10.2354 -17.9141 -10.2354 -41.7988q0 -26.0566 18.5205 -43.9707q18.5195 -17.9141 44.8379 -29.3145q26.3174 -11.3994 53.6104 -15.7422q27.292 -4.34277 43.8623 -4.34277q27.293 0 53.6104 3.25684 q26.3174 3.25781 52.1484 7.59961q25.8301 4.34375 51.1729 7.60059t50.6865 3.25684h6.82324q4.87305 0 10.2344 -0.542969t9.74707 -0.542969h6.33594q7.79785 -3.25684 8.77246 -9.77148q0.974609 -6.51367 0.974609 -13.0273q0 -6.51465 -12.1836 -14.1143 q-12.1846 -7.60059 -31.6787 -15.2002q-19.4951 -7.59961 -43.376 -15.7422t-45.8125 -13.5713t-40.9385 -9.22852q-19.0078 -3.7998 -26.8047 -3.7998q-40.9395 0 -86.752 7.59961t-83.8262 27.6855q-38.0146 20.085 -62.8701 55.9131q-24.8564 35.8281 -24.8564 92.2842z " />
<glyph unicode="&#xab;" horiz-adv-x="1548" d="M154 366q4 2 32 23t74 52t102 71t113 80t109 76t90 60q20 16 47 32t55 32t56 29t52 23q4 -4 13 -11t18 -16l17 -17t10 -12q0 -2 -24 -20t-62 -43t-83 -56t-86 -58t-72 -47t-37 -28q-44 -30 -93 -59t-97 -62t-94 -69t-82 -78q4 -8 30 -17t62 -17t77 -15t78 -13t64 -10 t35 -4l78 -12t104 -24t91 -42t39 -66q0 -48 -52 -48q-20 0 -41 8t-42 17t-41 19t-40 14q-16 4 -56 8l-94 10q-54 6 -117 14t-125 17t-116 22t-89 28t-48 33t11 42zM644 496q2 2 31 23t74 53t101 71t113 79t109 76t88 62q44 30 104 62q60 34 108 54q4 -4 13 -12l18 -16 t16 -17t11 -13q0 -2 -24 -20t-63 -43t-83 -56t-85 -58t-71 -47t-38 -26q-44 -30 -92 -59t-97 -63t-95 -70t-82 -76q4 -8 29 -17t61 -18t78 -16t79 -13t64 -10t35 -4q26 -4 77 -11t104 -24t92 -42t39 -67q-2 -48 -54 -48q-20 0 -40 8t-42 16l-40 20q-18 10 -38 14 q-16 4 -56 8l-96 12l-117 13t-124 17t-115 22t-89 28t-48 34t9 40z" />
<glyph unicode="&#xac;" horiz-adv-x="756" d="M608 700q-10 10 -53 15t-103 4t-127 -4t-124 -6t-95 -4t-38 1q0 4 2 23t6 39t10 36t16 16l602 2v-138q0 -18 -2 -42t-5 -47t-6 -43t-3 -30q-40 -12 -62 -9t-30 17t-6 34t6 44l10 48q4 24 2 44z" />
<glyph unicode="&#xad;" horiz-adv-x="768" d="M508 654q28 0 60 -1t60 -11t46 -29t18 -55q0 -42 -38 -42q-44 0 -81 11t-83 11q-58 0 -115 -7t-115 -15t-115 -15t-115 -7q0 48 22 76t58 45t81 23t93 7t94 2t82 5h6q6 0 14 1t16 1h12z" />
<glyph unicode="&#xae;" horiz-adv-x="1450" d="M74 588q-4 58 13 123t47 129t72 123t93 104t106 73t113 32q112 14 218 -4t199 -63t171 -117t132 -164t82 -203t20 -237q-14 -68 -55 -120t-101 -88t-131 -61t-144 -42t-141 -27t-124 -18q-124 0 -228 41t-180 114t-119 176t-43 229zM170 596q-2 -92 38 -170t106 -139 t150 -99q84 -40 164 -52q18 0 50 3t73 10t87 17t94 24q-44 24 -93 58t-97 71t-91 73t-71 62q18 -58 29 -104t11 -76t-17 -42t-55 -4q-4 -8 -13 18t-18 75t-19 112t-16 125t-6 118q0 54 12 86q16 8 35 9t33 -5t22 -18t6 -24q0 -4 2 -20t5 -34t6 -35t7 -21q30 2 73 1t86 3 t76 18t41 46l16 80q-18 36 -45 53t-63 21t-84 2q-44 -2 -100 -2q-40 0 -84 -3t-80 -16t-60 -39t-24 -72q-12 0 -22 14t-18 31t-13 34t-5 27q0 32 30 56t62 36q44 6 77 10t63 7t60 4t66 1q56 0 122 -11t124 -35t96 -64t38 -96q0 -50 -31 -85t-78 -57t-104 -34t-106 -17 t-83 -3q-20 2 -30 4q92 -68 158 -118q68 -52 117 -89t81 -61t58 -40q44 18 85 39t71 45t47 53t17 61q10 124 -30 227t-110 180t-162 130t-184 81t-176 32t-140 -20q-62 -22 -111 -81t-83 -128t-53 -136t-19 -107z" />
<glyph unicode="&#xaf;" horiz-adv-x="588" d="M412 1106q28 0 61 -2t60 -11t45 -28t18 -55q0 -42 -36 -42q-44 0 -82 11t-84 11q-58 0 -94 -7t-69 -14t-69 -14t-94 -7q0 70 26 101t68 41t96 8t108 6q2 0 20 1t26 1z" />
<glyph unicode="&#xb0;" horiz-adv-x="522" d="M15.9814 839.76q0 73.2676 22.7139 127.887q22.7139 54.6182 59.624 91.918q36.9102 37.3008 82.8115 55.2842q45.9004 17.9844 92.2744 17.9844q24.6074 0 45.9014 -12.6553t40.6953 -34.6357q19.4014 -21.9814 34.5439 -50.6221q15.1426 -28.6416 26.0264 -59.2812 t16.5625 -61.9453q5.67871 -31.3047 5.67871 -60.6123q0 -67.9404 -18.9287 -121.227q-18.9277 -53.2861 -51.1055 -89.9199q-32.1787 -36.6338 -72.874 -55.9502q-40.6963 -19.3164 -83.2842 -19.3164q-43.5352 0 -79.9717 19.3164t-63.4102 53.9521 q-26.9727 34.6357 -42.1152 85.9238t-15.1426 113.899zM62.3555 850.416q0 -41.2959 10.8838 -79.2627q10.8838 -37.9658 30.2852 -65.9414t45.9014 -44.627q26.5 -16.6523 56.7852 -16.6523q16.0889 -2.66406 39.2754 7.32715q23.1875 9.99121 46.374 29.3076 q23.1875 19.3154 44.4814 46.625q21.2949 27.3096 35.4902 59.9473q14.1963 32.6377 17.5088 67.9395t-8.51758 70.6045q-11.8301 35.3018 -43.0615 67.9395t-86.123 60.6133q-31.2324 0 -64.8301 -12.6562q-33.5977 -12.6553 -61.043 -37.9658 q-27.4463 -25.3115 -45.4277 -63.9434q-17.9824 -38.6328 -17.9824 -89.2549z" />
<glyph unicode="&#xb1;" horiz-adv-x="942" d="M592 222q28 0 79 1t100 -5t86 -23t37 -53q2 -40 -38 -40q-20 0 -58 1t-80 2t-81 2t-61 1q-58 0 -115 -8l-114 -16t-114 -15t-117 -7q-20 38 2 62t70 40t115 26t137 18q-2 20 -1 37t1 27q-2 14 -7 47t-11 69t-12 68t-10 46h-20q-40 0 -78 -6t-76 -13t-76 -13t-76 -6 q-30 0 -37 14t-7 34q0 26 6 34q8 6 38 14q16 4 57 12t87 17t86 19q44 8 60 10q10 2 13 11t5 19t1 21t-1 15q0 32 -6 63t-14 63t-14 63t-6 65v6q4 6 19 21t19 17h6l4 2l2 -2h4h4q8 -6 22 -20l18 -18l76 -268l18 -20l34 -6q34 -4 80 -11t95 -13t81 -8q6 0 21 -1t32 -5t29 -12 t12 -20q0 -6 -7 -19t-17 -26t-18 -23q-12 -10 -16 -10h-304v-282q8 0 19 1t17 1z" />
<glyph unicode="&#xb2;" horiz-adv-x="608" d="M305.602 478.167q-38.7773 0 -74.8613 -6.63086q-36.085 -6.62988 -75.9395 -6.62988q-21.543 0 -44.7012 5.4248q-23.1592 5.4248 -43.0859 18.083q-19.9277 12.6582 -34.4688 32.5508q-14.542 19.8916 -17.7734 48.8252q-2.1543 18.083 4.84766 29.5361 q7.00098 11.4531 18.3105 18.084q11.3105 6.63086 25.3135 8.43848q14.0029 1.80859 23.6973 1.80859q24.7744 0 49.0107 -8.43848q24.2354 -8.43945 47.3945 -19.8926q23.1582 -11.4531 46.8555 -20.4941q23.6973 -9.04199 49.5488 -9.04199q22.6201 0 42.0088 16.8779 t35.0068 44.0029q15.6191 27.126 27.4678 61.4844t19.3887 66.9092q7.54004 32.5498 11.8486 60.8809q4.30859 28.3301 4.30859 44.0029q0 16.8779 -4.30859 49.4287q-4.30859 32.5498 -14.0029 63.8945t-25.3135 54.8535q-15.6182 23.5078 -40.3926 23.5078 q-22.6201 0 -33.9297 -18.083q-11.3105 -18.083 -17.7734 -40.3867q-6.46289 -22.3027 -12.3867 -42.7979q-5.9248 -20.4941 -18.8506 -25.3164q-16.1572 12.0557 -18.8506 31.3447q-2.69238 19.2891 -2.69238 36.167q0 24.1113 8.0791 45.209 q8.07812 21.0977 23.1582 37.3721q15.0801 16.2754 35.5459 24.7139q20.4658 8.43945 43.0859 8.43945q37.7002 0 64.6289 -25.3164q26.9287 -25.3174 43.624 -62.6895q16.6963 -37.373 24.7754 -79.5684q8.07812 -42.1943 8.07812 -73.5391t-1.61523 -55.4561 q-1.61621 -24.1113 -6.46289 -47.0166q-4.84766 -22.9062 -13.4648 -47.6201t-21.543 -58.4697q-7.54004 -6.02832 -18.3115 -19.8926q-10.7715 -13.8633 -20.4658 -29.5361t-16.6953 -30.7422q-7.00195 -15.0693 -7.00195 -24.7139q0 -12.0557 11.3105 -18.6865 q11.3096 -6.62988 27.4668 -10.2471t34.4688 -6.02734q18.3115 -2.41211 34.4688 -6.63086q16.1572 -4.21973 27.4668 -13.2617q11.3105 -9.04102 11.3105 -25.9199q0 -12.0547 -10.7715 -22.9053q-8.61719 -12.0557 -21.543 -12.0557q-23.6973 0 -46.8555 5.4248 q-23.1592 5.4248 -46.3184 12.0557q-23.1582 6.63086 -45.7783 12.6582q-22.6201 6.02832 -46.3174 6.02832z" />
<glyph unicode="&#xb3;" horiz-adv-x="418" d="M-8.875 696.068q-1.05566 2.46484 -1.05566 3.69727v7.39551q0 20.9531 10.0342 34.5107q10.0352 13.5586 27.9912 13.5586q7.39453 0 22.71 -22.1865q15.3164 -22.1855 41.1953 -49.3018q25.8789 -27.1152 62.3203 -49.3018q36.4414 -22.1855 86.0859 -22.1855 q19.0127 0 38.0254 3.08105q19.0137 3.08203 33.8008 11.71q14.7881 8.62793 24.2949 23.418q9.50586 14.79 9.50586 38.209q0 51.7666 -22.1816 85.0459q-22.1816 33.2783 -56.5107 54.8477q-34.3281 21.5693 -74.4668 32.6621q-40.1387 11.0938 -73.9395 20.9531 q-33.8008 9.86133 -56.5107 18.4883q-22.71 8.62793 -22.71 25.8838q0 2.46484 1.05664 3.69727q1.05566 1.2334 1.05566 2.46582q2.11328 3.69727 9.50684 12.3252t10.5625 12.3252q10.5635 2.46484 31.6885 6.7793q21.126 4.31348 45.9482 11.0928t50.1729 16.6396 t46.4766 22.8018q21.125 12.9414 34.8564 30.8135t13.7314 41.29q0 18.4883 -12.6748 30.1973q-12.6758 11.71 -29.0479 18.4883q-16.3721 6.7793 -33.8008 8.62793t-27.9912 1.84863t-30.6318 -0.616211t-39.6104 -3.69727q-19.541 -3.08203 -34.3291 -7.39551 t-14.7881 -11.709v-27.1162q-24.2939 0 -38.0254 13.5586q-13.7314 13.5576 -13.7314 41.9062q0 12.3252 5.80957 22.1855t15.3154 17.2559q9.50684 7.39453 20.0693 11.0928q10.5625 3.69727 20.0693 3.69727h153.16q24.2939 0 44.8916 -12.9414 q20.5967 -12.9414 35.3848 -33.2783q14.7881 -20.3379 22.71 -46.2207q7.92188 -25.8838 7.92188 -51.7666q0 -25.8838 -14.2598 -43.1396t-31.6875 -30.8135q-17.4287 -13.5576 -32.2168 -27.1162q-14.7881 -13.5576 -14.7881 -33.2783q0 -1.23242 1.05664 -2.46484 l1.05566 -2.46582q32.7451 -13.5576 61.793 -36.9756q29.0469 -23.4189 51.7568 -54.2324t36.4414 -67.79q12.6758 -35.7432 12.6758 -77.6504q0 -38.208 -14.2598 -65.9404t-36.9697 -44.3721q-22.71 -16.6387 -50.7012 -25.2666t-55.4541 -8.62793 q-26.4072 2.46484 -50.1738 5.5459q-23.7656 3.08203 -52.2852 17.2559q-28.5195 14.1748 -65.4893 44.9883t-90.8398 87.5107z" />
<glyph unicode="&#xb4;" horiz-adv-x="370" d="M18 854q0 42 32 80t77 72t93 64q44 30 76 54q42 -20 37 -48t-42 -66t-97 -88t-126 -116q-30 0 -40 10t-10 38z" />
<glyph unicode="&#xb5;" horiz-adv-x="1028" d="M768 290q-20 -22 -42 -58t-57 -70t-86 -63t-129 -37q-86 18 -142 42t-92 54t-56 66q-20 32 -24 68l-4 -408l-106 -12l4 842q-16 108 6 169t53 78t53 -8t6 -87q-4 -8 -6 -25t-4 -35t-4 -34t-2 -22q0 -42 8 -99t25 -119t43 -123t62 -109t83 -78t103 -30q36 0 82 35t87 84 t70 101t29 88q0 20 1 66t1 98t-1 98t-1 64q12 20 26 31t34 11q24 0 40 -32t26 -82t14 -108t6 -112t4 -95t6 -55q10 -40 29 -90t37 -97t32 -86t14 -59q0 -30 -17 -36t-43 -6q-36 -4 -54 19t-32 61t-32 91t-50 109z" />
<glyph unicode="&#xb6;" horiz-adv-x="846" d="M660 -30q-10 54 -13 136t-2 173t4 184t3 171t-8 134q-8 54 -24 68q-8 4 -22 -4t-20 -2q-10 -92 -16 -185t-9 -181t-3 -166t3 -140t6 -102t7 -50q0 -22 -23 -29t-55 -7q-22 0 -31 41t-11 104t0 136t3 137t-4 106t-21 46q-48 8 -95 6t-90 -6t-79 -1t-64 19t-42 52t-14 102 t20 125t58 105t91 72t121 26q72 0 135 4t114 1t87 -16t52 -47q16 -54 28 -134t19 -173t9 -192t0 -190t-10 -166t-22 -123t-34 -60t-48 26z" />
<glyph unicode="&#xb7;" horiz-adv-x="436" d="M100 476q0 10 12 30t28 41t33 35t29 14q38 0 66 -13t46 -32t27 -43t9 -44q0 -14 -12 -32t-32 -34t-45 -27t-49 -11q-28 0 -48 14t-35 32t-22 37t-7 33z" />
<glyph unicode="&#xb8;" horiz-adv-x="912" d="M308 -432q12 10 22 13t26 3q32 0 62 -19t58 -41t55 -41t57 -19h60t47 7t30 30t11 71q2 46 -15 72t-45 40t-63 20t-73 14t-74 21t-64 38t-45 68t-19 113q4 52 13 74t23 21t28 -17t23 -36t11 -40q0 -20 -8 -28q0 -64 31 -91t77 -39t100 -18t100 -27t77 -65t31 -130 q0 -48 -26 -84t-64 -59t-85 -35t-87 -12q-58 0 -96 17t-67 44t-54 62t-57 73z" />
<glyph unicode="&#xb9;" horiz-adv-x="404" d="M200.173 470.548v8.62793q0 5.97363 -0.683594 13.2744q-0.683594 7.2998 -0.683594 13.9375v7.96387q0 13.2744 1.36719 38.4941q1.36719 25.2207 4.10156 56.415q2.7334 31.1934 5.46777 65.7061q2.73438 34.5117 5.46875 65.7051q2.73438 31.1943 4.10059 55.751 q1.36719 24.5566 1.36719 39.1582v15.9287q0 7.96387 -2.05078 14.6016q-2.0498 6.63672 -7.51855 13.2734q-6.83496 5.30957 -17.7715 7.96484q-5.46875 -5.31055 -19.1387 -20.5752q-13.6709 -15.2646 -30.0762 -35.1758q-16.4043 -19.9111 -36.9102 -41.8125 q-20.5059 -21.9023 -38.9619 -39.8223q-18.4551 -17.9199 -36.2275 -29.8662q-17.7715 -11.9463 -30.0752 -11.9463q-32.8096 0 -32.8096 33.1846v7.96484q2.73438 2.6543 6.15234 7.96387q3.41699 5.30957 7.51855 11.2832q4.10156 5.97266 7.51855 10.6191 q3.41797 4.64551 6.15234 7.2998l250.173 254.859q10.9365 10.6191 17.7715 30.5303q6.83594 19.9111 11.6201 43.1406q4.78516 23.2295 8.88574 46.459q4.10156 23.2295 10.2529 41.8125q6.15234 18.583 16.4053 30.5303q10.2529 11.9463 25.291 11.9463 q8.20215 0 15.0371 -1.32715q6.83594 -1.32812 10.9365 -10.6191v-9.29199t0.683594 -13.9375t0.683594 -13.9375v-7.96484q0 -5.30957 -3.41797 -40.4854q-3.41699 -35.1758 -9.56934 -88.2715q-6.15137 -53.0957 -14.3535 -120.129q-8.20312 -67.0332 -18.4561 -135.395 q-10.2529 -68.3604 -19.8223 -133.402q-9.56934 -65.043 -20.5059 -115.483t-20.5059 -81.6348q-9.56934 -31.1934 -17.7715 -31.1934q-13.6709 0 -22.5566 5.97266q-8.88672 5.97363 -17.0889 21.9023z" />
<glyph unicode="&#xba;" horiz-adv-x="522" d="M15.9814 839.76q0 73.2676 22.7139 127.887q22.7139 54.6182 59.624 91.918q36.9102 37.3008 82.8115 55.2842q45.9004 17.9844 92.2744 17.9844q24.6074 0 45.9014 -12.6553t40.6953 -34.6357q19.4014 -21.9814 34.5439 -50.6221q15.1426 -28.6416 26.0264 -59.2812 t16.5625 -61.9453q5.67871 -31.3047 5.67871 -60.6123q0 -67.9404 -18.9287 -121.227q-18.9277 -53.2861 -51.1055 -89.9199q-32.1787 -36.6338 -72.874 -55.9502q-40.6963 -19.3164 -83.2842 -19.3164q-43.5352 0 -79.9717 19.3164t-63.4102 53.9521 q-26.9727 34.6357 -42.1152 85.9238t-15.1426 113.899zM62.3555 850.416q0 -41.2959 10.8838 -79.2627q10.8838 -37.9658 30.2852 -65.9414t45.9014 -44.627q26.5 -16.6523 56.7852 -16.6523q16.0889 -2.66406 39.2754 7.32715q23.1875 9.99121 46.374 29.3076 q23.1875 19.3154 44.4814 46.625q21.2949 27.3096 35.4902 59.9473q14.1963 32.6377 17.5088 67.9395t-8.51758 70.6045q-11.8301 35.3018 -43.0615 67.9395t-86.123 60.6133q-31.2324 0 -64.8301 -12.6562q-33.5977 -12.6553 -61.043 -37.9658 q-27.4463 -25.3115 -45.4277 -63.9434q-17.9824 -38.6328 -17.9824 -89.2549z" />
<glyph unicode="&#xbb;" horiz-adv-x="1350" d="M56 68q4 18 39 49t86 68t114 80t123 85t113 84t83 78t34 64t-32 40q-36 2 -89 13t-112 32t-119 48t-110 57t-84 60t-44 58q0 2 -1 9t-1 11q0 26 20 32q16 8 40 8q32 0 55 -14t43 -33t43 -40t51 -31q104 -40 225 -79t237 -55q32 -10 36 -29t4 -43q8 -36 -4 -66t-34 -55 t-49 -48t-49 -47q-10 -8 -56 -42t-107 -80t-130 -95t-128 -91t-100 -70t-49 -28q-34 0 -41 21t-7 49zM512 118q6 24 63 69t136 99t163 113t145 112t81 93t-28 60q-36 2 -89 14t-112 32t-119 47t-109 57t-84 60t-45 58q0 2 -1 10t-1 10q0 24 20 32q16 8 40 8q32 0 55 -14 t43 -32t43 -39t51 -31q104 -40 224 -80q122 -40 238 -56q32 -12 36 -30t4 -42q8 -36 -4 -65t-34 -54t-49 -49t-49 -48q-12 -8 -57 -42t-106 -79t-130 -94t-128 -91t-100 -70t-49 -28q-34 0 -41 21t-7 49z" />
<glyph unicode="&#xbc;" horiz-adv-x="1284" d="M258.434 622.04v8.46289q0 5.85938 -0.657227 13.0205q-0.657227 7.16016 -0.657227 13.6709v7.81152q0 13.0205 1.31445 37.7578q1.31348 24.7383 3.94141 55.3359q2.62695 30.5967 5.25488 64.4492q2.62793 33.8516 5.25586 64.4482q2.62793 30.5977 3.94141 54.6846 t1.31348 38.4092v15.624q0 7.81152 -1.9707 14.3223q-1.9707 6.50977 -7.22559 13.0195q-6.56934 5.20801 -17.0801 7.8125q-5.25586 -5.20898 -18.3936 -20.1816q-13.1387 -14.9727 -28.9053 -34.5029q-15.7656 -19.5303 -35.4736 -41.0127 q-19.707 -21.4834 -37.4443 -39.0605t-34.8174 -29.2949q-17.0791 -11.7178 -28.9043 -11.7178q-31.5322 0 -31.5322 32.5498v7.8125q2.62793 2.60352 5.91211 7.81152q3.28516 5.20801 7.22656 11.0674q3.94141 5.8584 7.22656 10.416q3.28418 4.55664 5.91211 7.16016 l240.433 249.984q10.5107 10.416 17.0801 29.9463t11.168 42.3154t8.54004 45.5703t9.85352 41.0127t15.7666 29.9463q9.85352 11.7178 24.3057 11.7178q7.88281 0 14.4521 -1.30176q6.56934 -1.30273 10.5107 -10.416v-9.11426t0.657227 -13.6709t0.657227 -13.6709 v-7.8125q0 -5.20801 -3.28516 -39.7109q-3.28418 -34.5029 -9.19629 -86.583q-5.91309 -52.0801 -13.7959 -117.831t-17.7363 -132.805q-9.85449 -67.0527 -19.0508 -130.851q-9.19727 -63.7988 -19.708 -113.274t-19.708 -80.0732q-9.19629 -30.5967 -17.0791 -30.5967 q-13.1387 0 -21.6787 5.8584q-8.54004 5.85938 -16.4229 21.4834zM274.646 23.3613q0 28.5605 9.51953 70.3809q9.51953 41.8213 23.4336 86.7021t28.5596 84.6611q14.6455 39.7812 23.4336 62.2217l238.729 920.058q4.39453 28.5605 8.78809 71.4014t11.7168 83.6416 t19.04 75.4814t30.7559 42.8408q13.1816 -4.08008 19.04 -14.2803t8.05566 -24.4805q2.19629 -14.2803 1.46387 -28.5605q-0.731445 -14.2803 -0.731445 -26.5205q0 -30.6006 -13.1816 -111.182q-13.1816 -80.582 -35.8828 -189.725q-22.7012 -109.142 -52.7256 -238.684 q-30.0244 -129.543 -62.2451 -260.105q-32.2217 -130.562 -65.9072 -251.945q-33.6865 -121.382 -62.2461 -214.203q-28.5596 -92.8223 -51.9932 -149.943t-35.1504 -57.1211q-19.0391 0 -30.7559 24.4805t-11.7168 44.8809zM1032.74 255.836 q-20.2715 -9.7959 -45.6113 -23.877q-25.3408 -14.082 -52.8525 -26.3271q-27.5117 -12.2441 -55.748 -18.9795q-28.2354 -6.73438 -55.748 -1.83594q-56.4717 0 -94.8438 26.3262q-38.3711 26.3262 -62.2637 66.1221q-23.8916 39.7959 -34.0273 83.8779 q-10.1367 44.0811 -10.1367 80.8154q0 40.4082 4.34375 72.2451q4.34473 31.8369 13.7568 62.4492q9.41113 30.6113 22.4434 63.0605t30.4082 74.082q2.89551 12.2441 15.9277 18.3672q13.0322 6.12207 28.96 6.73438t28.96 -4.28613q13.0322 -4.89746 10.1357 -15.918 q0 -31.8369 -13.7559 -64.8975q-13.7559 -33.0615 -29.6836 -66.7354q-15.9277 -33.6729 -29.6836 -68.5713q-13.7559 -34.8975 -13.7559 -70.4072q0 -25.7148 7.96387 -56.3271q7.96387 -30.6113 24.6152 -56.3262q16.6523 -25.7139 42.7158 -42.8574 q26.0645 -17.1426 62.2646 -17.1426q49.2314 0 89.0518 20.2041t72.3994 50.2041q32.5801 30 56.4727 65.5098q23.8916 35.5107 40.5439 66.123q16.6514 30.6113 25.3398 50.2031q7.24023 19.5918 10.1357 19.5918q34.752 0 46.3359 -9.79492 q10.1357 -9.79688 10.1357 -26.9395q0 -24.4893 -6.51562 -55.1016t-15.2041 -62.4492q-8.68848 -31.8359 -14.4795 -63.0605q-5.79297 -31.2246 -5.79297 -56.9395q0 -29.3867 4.34473 -58.7754q4.34375 -29.3867 10.1357 -58.7754q5.79199 -29.3867 10.1357 -58.1631 q4.34473 -28.7754 4.34473 -56.9385q0 -24.4893 -17.377 -41.6328q-17.375 -17.1426 -46.3359 -17.1426q-18.8232 0 -26.7871 20.2041q-7.96484 20.2041 -11.584 50.8164q-3.62012 30.6123 -3.62012 66.1221q0 35.5107 -0.724609 66.123q-0.723633 30.6113 -6.51562 50.8154 t-18.8242 20.2041z" />
<glyph unicode="&#xbd;" horiz-adv-x="1160" d="M261.63 464.031v10.4102t-0.736328 16.0156q-0.737305 8.80859 -0.737305 16.8164v9.60938q0 16.0156 1.47363 46.4453t4.4209 68.0664q2.94629 37.6367 5.89258 79.2773q2.94727 41.6406 5.89453 79.2773q2.94629 37.6367 4.41992 67.2656 q1.47266 29.6289 1.47266 47.2461v19.2188t-2.20996 17.6172t-8.10352 16.0156q-7.36621 6.40625 -19.1533 9.60938q-5.89453 -6.40625 -20.6279 -24.8242t-32.415 -42.4414q-17.6797 -24.0234 -39.7812 -50.4492q-22.1006 -26.4258 -41.9912 -48.0469t-39.0449 -36.0352 t-32.415 -14.4141q-35.3613 0 -35.3613 40.0391v9.60938q2.94727 3.20312 6.63086 9.60938t8.10352 13.6133t8.10352 12.8125t6.63086 8.80859l269.63 307.5q11.7871 12.8125 19.1533 36.8359q7.36719 24.0234 12.5244 52.0508t9.57715 56.0547t11.0498 50.4492 q6.63086 22.4219 17.6807 36.8359q11.0508 14.4141 27.2578 14.4141q8.84082 0 16.207 -1.60156q7.36719 -1.60156 11.7871 -12.8125v-11.2109t0.737305 -16.8164q0.736328 -8.80859 0.736328 -16.8164v-9.60938q0 -6.40625 -3.68359 -48.8477 q-3.68262 -42.4414 -10.3135 -106.504q-6.62988 -64.0625 -15.4707 -144.941q-8.83984 -80.8789 -19.8906 -163.359t-21.3643 -160.957t-22.1006 -139.336t-22.1006 -98.4961t-19.1543 -37.6367q-14.7334 0 -24.3105 7.20703t-18.418 26.4258zM271.486 -26.9121 q0 28.4473 10.0654 70.1025q10.0654 41.6562 24.7773 86.3594q14.7119 44.7041 30.1973 84.3271q15.4854 39.624 24.7773 61.9756l252.419 916.425q4.64648 28.4473 9.29199 71.1191t12.3887 83.3105q7.74316 40.6406 20.1318 75.1836q12.3887 34.5439 32.5195 42.6719 q13.9375 -4.06445 20.1318 -14.2236q6.19434 -10.1602 8.51758 -24.3838q2.32227 -14.2246 1.54785 -28.4482q-0.773438 -14.2236 -0.773438 -26.415q0 -30.4805 -13.9375 -110.743q-13.9375 -80.2637 -37.9404 -188.975t-55.749 -237.742 q-31.7461 -129.03 -65.8145 -259.077q-34.0693 -130.047 -69.6865 -250.95q-35.6182 -120.903 -65.8154 -213.358t-54.9746 -149.351t-37.166 -56.8955q-20.1309 0 -32.5195 24.3838t-12.3887 44.7041zM835.828 50.3594q-45.4922 0 -87.8252 -8.13281t-89.0889 -8.13281 q-25.2734 0 -52.4424 6.6543t-50.5469 22.1797t-40.4375 39.9229t-20.8506 59.8848q-2.52734 22.1797 5.68652 36.2266q8.21387 14.0479 21.4824 22.1797q13.2686 8.13281 29.6963 10.3506t27.8008 2.21777q29.0645 0 57.4971 -10.3506q28.4326 -10.3496 55.6016 -24.3975 q27.1689 -14.0469 54.9697 -25.1367t58.1289 -11.0898q26.5371 0 49.2832 20.7012t41.0693 53.9707q18.3232 33.2686 32.2236 75.4102t22.7461 82.0645t13.9004 74.6709t5.05469 53.9707q0 20.7012 -5.05469 60.624t-16.4277 78.3682q-11.373 38.4443 -29.6963 67.2773 q-18.3232 28.834 -47.3877 28.834q-26.5371 0 -39.8057 -22.1797t-20.8506 -49.5342q-7.58203 -27.3555 -14.5322 -52.4922t-22.1143 -31.0518q-18.9551 14.7871 -22.1143 38.4453t-3.15918 44.3594q0 29.5723 9.47754 55.4482t27.1689 45.8379t41.7012 30.3125 t50.5469 10.3506q44.2285 0 75.8203 -31.0518t51.1787 -76.8896t29.0645 -97.5898t9.47754 -90.1973q0 -38.4443 -1.89551 -68.0166q-1.89551 -29.5732 -7.58203 -57.667t-15.7959 -58.4062t-25.2734 -71.7139q-8.8457 -7.39355 -21.4824 -24.3975 q-12.6367 -17.0049 -24.0098 -36.2266q-11.373 -19.2227 -19.5869 -37.7051q-8.21387 -18.4834 -8.21387 -30.3125q0 -14.7861 13.2686 -22.9189t32.2236 -12.5684t40.4375 -7.39355q21.4824 -2.95703 40.4375 -8.13184q18.9551 -5.17578 32.2236 -16.2656t13.2686 -31.79 q0 -14.7871 -12.6367 -28.0947q-10.1094 -14.7861 -25.2734 -14.7861q-27.8008 0 -54.9697 6.6543q-27.1689 6.65332 -54.3379 14.7861q-27.1689 8.13184 -53.7061 15.5254t-54.3379 7.39355z" />
<glyph unicode="&#xbe;" horiz-adv-x="1160" d="M25.125 697.193q-1.05566 2.58008 -1.05566 3.86914v7.7373q0 21.9229 10.0342 36.1074q10.0352 14.1846 27.9912 14.1846q7.39453 0 22.71 -23.2109q15.3164 -23.2129 41.1953 -51.582q25.8789 -28.3711 62.3203 -51.582q36.4414 -23.2129 86.0859 -23.2129 q19.0127 0 38.0254 3.22461q19.0137 3.22363 33.8008 12.25q14.7881 9.02734 24.2949 24.502q9.50586 15.4746 9.50586 39.9766q0 54.1602 -22.1816 88.9785t-56.5107 57.3848q-34.3281 22.5674 -74.4668 34.1738q-40.1387 11.6055 -73.9395 21.9219t-56.5107 19.3438 q-22.71 9.02637 -22.71 27.0801q0 2.5791 1.05664 3.86914q1.05566 1.28906 1.05566 2.57812q2.11328 3.86914 9.50684 12.8965q7.39355 9.02637 10.5625 12.8945q10.5635 2.58008 31.6885 7.09277q21.126 4.51367 45.9482 11.6064q24.8223 7.0918 50.1729 17.4082 t46.4766 23.8574q21.125 13.54 34.8564 32.2383q13.7314 18.6992 13.7314 43.2002q0 19.3428 -12.6748 31.5938q-12.6758 12.251 -29.0479 19.3438t-33.8008 9.02637q-17.4287 1.93457 -27.9912 1.93457t-30.6318 -0.644531q-20.0693 -0.645508 -39.6104 -3.86914 t-34.3291 -7.7373t-14.7881 -12.25v-28.3711q-24.2939 0 -38.0254 14.1855t-13.7314 43.8447q0 12.8955 5.80957 23.2119t15.3154 18.0537q9.50684 7.7373 20.0693 11.6064q10.5625 3.86816 20.0693 3.86816h153.16q24.2939 0 44.8916 -13.54 q20.5967 -13.541 35.3848 -34.8184t22.71 -48.3574q7.92188 -27.0811 7.92188 -54.1621q0 -27.0801 -14.2598 -45.1338t-31.6875 -32.2393q-17.4287 -14.1846 -32.2168 -28.3691q-14.7881 -14.1855 -14.7881 -34.8184q0 -1.28906 1.05664 -2.5791l1.05566 -2.5791 q32.7451 -14.1855 61.793 -38.6865q29.0469 -24.501 51.7568 -56.7402t36.4414 -70.9248q12.6758 -37.3975 12.6758 -81.2422q0 -39.9766 -14.2598 -68.9912t-36.9697 -46.4238t-50.7012 -26.4355t-55.4541 -9.02637q-26.4072 2.57812 -50.1738 5.80273 q-23.7656 3.22363 -52.2852 18.0537q-28.5195 14.8291 -65.4893 47.0684t-90.8398 91.5576zM300.541 -86.0947q0 28.7842 9.45117 70.9326q9.45215 42.1484 23.2656 87.3818q13.8145 45.2324 28.3555 85.3252q14.541 40.0918 23.2656 62.709l237.019 927.27 q4.3623 28.7842 8.72461 71.9609t11.6328 84.2969q7.27051 41.1211 18.9033 76.0732t30.5361 43.1768q13.0869 -4.1123 18.9033 -14.3926q5.81641 -10.2793 7.99805 -24.6719q2.18066 -14.3926 1.45312 -28.7842q-0.726562 -14.3926 -0.726562 -26.7285 q0 -30.8408 -13.0869 -112.054t-35.626 -191.211q-22.5381 -109.998 -52.3477 -240.556q-29.8086 -130.558 -61.7988 -262.144t-65.4346 -253.92t-61.7998 -215.883q-28.3545 -93.5498 -51.6201 -151.119q-23.2656 -57.5684 -34.8984 -57.5684q-18.9033 0 -30.5361 24.6719 q-11.6328 24.6729 -11.6328 45.2334zM987.585 329.651q-16.7988 -10.582 -37.7979 -25.7939q-21 -15.2109 -43.7988 -28.4395q-22.7988 -13.2266 -46.1982 -20.502q-23.3984 -7.27539 -46.1982 -1.98438q-46.7979 0 -78.5967 28.4395q-31.7979 28.4395 -51.5977 71.4287 q-19.7988 42.9893 -28.1982 90.6084q-8.40039 47.6191 -8.40039 87.3018q0 43.6514 3.59961 78.042q3.60059 34.3926 11.4004 67.4609q7.79883 33.0684 18.5986 68.1221q10.7998 35.0527 25.1992 80.0264q2.39941 13.2275 13.1992 19.8418q10.7998 6.61328 23.999 7.27441 t23.999 -4.62988t8.39941 -17.1953q0 -34.3916 -11.3994 -70.1055q-11.3994 -35.7148 -24.5986 -72.0908t-24.5986 -74.0742t-11.3994 -76.0576q0 -27.7783 6.59961 -60.8477q6.59961 -33.0684 20.3984 -60.8457q13.7998 -27.7783 35.3984 -46.2969 q21.5996 -18.5186 51.5986 -18.5186q40.7979 0 73.7969 21.8252q32.999 21.8262 59.9971 54.2334q26.999 32.4072 46.7988 70.7666q19.7988 38.3604 33.5986 71.4297q13.7988 33.0684 20.999 54.2324q6 21.1641 8.39941 21.1641q28.7988 0 38.3984 -10.582 q8.39941 -10.582 8.39941 -29.1006q0 -26.4551 -5.39941 -59.5244q-5.39941 -33.0684 -12.5996 -67.46t-11.999 -68.1221q-4.80078 -33.7305 -4.80078 -61.5078q0 -31.7461 3.60059 -63.4922q3.59961 -31.7461 8.39941 -63.4922t8.39941 -62.8311 q3.60059 -31.085 3.60059 -61.5078q0 -26.4551 -14.4004 -44.9736q-14.3984 -18.5186 -38.3984 -18.5186q-15.5986 0 -22.1982 21.8252q-6.60059 21.8262 -9.59961 54.8945q-3 33.0684 -3 71.4287t-0.600586 71.4287q-0.599609 33.0684 -5.39941 54.8945 q-4.7998 21.8252 -15.5996 21.8252z" />
<glyph unicode="&#xbf;" horiz-adv-x="558" d="M216.072 1464.45q0 -31.0498 -23.4463 -49.1621t-59.6807 -18.1123q-34.1035 0 -49.0234 25.0127q-14.9209 25.0117 -14.9209 49.1611q0 18.9746 15.9863 38.8125q15.9854 19.8369 47.958 19.8369q42.6289 0 62.8779 -18.1123t20.249 -47.4365zM439.877 867.609 q0 -51.749 -20.249 -100.049q-20.249 -48.2988 -50.0898 -94.873t-63.9443 -93.1494q-34.1035 -46.5742 -63.9434 -94.0107q-29.8408 -47.4365 -49.0244 -97.4609q-19.1826 -50.0244 -19.1826 -105.224q0 -89.6992 59.6807 -133.686q59.6816 -43.9873 168.387 -43.9873 q42.6289 0 89.5215 17.25t70.3389 48.2988q12.7881 -1.72461 18.1172 -10.3496q5.32812 -8.625 6.39453 -18.9746q1.06543 -10.3496 0 -18.9746q-1.06641 -8.625 -1.06641 -12.0752q0 -27.5996 -21.3145 -47.4365t-53.2871 -31.9121q-31.9717 -12.0742 -67.1406 -18.9746 q-35.1699 -6.90039 -65.0098 -6.90039q-80.9961 0 -141.743 26.7373t-102.311 70.7246q-41.5635 43.9863 -62.8779 98.3232t-21.3145 111.261q0 65.5498 26.6426 136.273q26.6436 70.7236 68.207 138.86q41.5645 68.1367 87.3906 131.099q45.8262 62.9609 84.1934 114.71 q-4.26367 6.90039 -10.6582 15.5254q-6.39355 8.625 -27.709 15.5244q-21.3145 6.90039 -60.7461 13.7998q-39.4326 6.90039 -105.508 13.7998q-10.6582 0 -19.1836 6.90039q-8.52539 6.89941 -13.8545 16.3867t-7.45996 19.8379q-2.13184 12.0742 -2.13184 18.9746 q0 15.5244 13.8545 21.5615q13.8545 6.03809 35.1699 8.625q21.3145 2.58789 41.5635 1.72559t33.0371 -0.862305q31.9727 0 74.6016 -4.3125q42.6299 -4.3125 80.9961 -17.25t65.0098 -35.3623t26.6436 -60.374z" />
<glyph unicode="&#xc0;" horiz-adv-x="1152" d="M940 46q0 34 6 69t14 70t14 71t6 72q0 56 -4 120t-20 122q-56 -12 -115 -9t-118 11t-119 16t-120 8h-57t-80 -2t-75 -6q-32 -4 -40 -12l-20 -18q0 -2 -1 -9t-1 -17t-1 -20t-1 -16q0 -58 9 -117t20 -115t21 -112t10 -112v-20q-30 -28 -54 -19t-43 44t-32 90t-20 120 t-8 133t5 132q-4 4 -16 17t-24 28t-24 29q-8 14 -12 22l-2 4v4q0 14 7 20t17 9t20 7t16 14v10v17v17v10q8 84 13 179t18 186t40 175t75 148t122 102t186 38q88 0 159 -42t126 -113t96 -164t69 -197t47 -210t29 -202t14 -176t4 -132v-68t-3 -59t-6 -61t-11 -74 q-16 -22 -41 -41t-55 -19q-26 0 -33 13t-7 35zM892 652q6 0 15 1t15 10t12 29t10 56q0 58 -11 133t-33 155t-57 156t-83 136t-111 96t-141 36q-82 0 -138 -43t-91 -112t-54 -155t-27 -172t-9 -162t-1 -124zM564 1856q24 -20 37 -32t24 -22t24 -22t37 -32q4 -4 12 -18t8 -18 q0 -40 -14 -50q-16 -10 -44 -10q-4 0 -10 2t-26 17t-54 44t-90 83q-16 22 -29 48t-10 40t33 10t102 -40z" />
<glyph unicode="&#xc1;" horiz-adv-x="1152" d="M940 46q0 34 6 69t14 70t14 71t6 72q0 56 -4 120t-20 122q-56 -12 -115 -9t-118 11t-119 16t-120 8h-57t-80 -2t-75 -6q-32 -4 -40 -12l-20 -18q0 -2 -1 -9t-1 -17t-1 -20t-1 -16q0 -58 9 -117t20 -115t21 -112t10 -112v-20q-30 -28 -54 -19t-43 44t-32 90t-20 120 t-8 133t5 132q-4 4 -16 17t-24 28t-24 29q-8 14 -12 22l-2 4v4q0 14 7 20t17 9t20 7t16 14v10v17v17v10q8 84 13 179t18 186t40 175t75 148t122 102t186 38q88 0 159 -42t126 -113t96 -164t69 -197t47 -210t29 -202t14 -176t4 -132v-68t-3 -59t-6 -61t-11 -74 q-16 -22 -41 -41t-55 -19q-26 0 -33 13t-7 35zM892 652q6 0 15 1t15 10t12 29t10 56q0 58 -11 133t-33 155t-57 156t-83 136t-111 96t-141 36q-82 0 -138 -43t-91 -112t-54 -155t-27 -172t-9 -162t-1 -124zM286 1642q0 42 32 80t77 72t93 64q44 30 76 54q42 -20 37 -48 t-42 -66t-97 -88t-126 -116q-30 0 -40 10t-10 38z" />
<glyph unicode="&#xc2;" horiz-adv-x="1152" d="M940 46q0 34 6 69t14 70t14 71t6 72q0 56 -4 120t-20 122q-56 -12 -115 -9t-118 11t-119 16t-120 8h-57t-80 -2t-75 -6q-32 -4 -40 -12l-20 -18q0 -2 -1 -9t-1 -17t-1 -20t-1 -16q0 -58 9 -117t20 -115t21 -112t10 -112v-20q-30 -28 -54 -19t-43 44t-32 90t-20 120 t-8 133t5 132q-4 4 -16 17t-24 28t-24 29q-8 14 -12 22l-2 4v4q0 14 7 20t17 9t20 7t16 14v10v17v17v10q8 84 13 179t18 186t40 175t75 148t122 102t186 38q88 0 159 -42t126 -113t96 -164t69 -197t47 -210t29 -202t14 -176t4 -132v-68t-3 -59t-6 -61t-11 -74 q-16 -22 -41 -41t-55 -19q-26 0 -33 13t-7 35zM892 652q6 0 15 1t15 10t12 29t10 56q0 58 -11 133t-33 155t-57 156t-83 136t-111 96t-141 36q-82 0 -138 -43t-91 -112t-54 -155t-27 -172t-9 -162t-1 -124zM508 1758q-38 -48 -81 -95t-82 -72t-72 -19t-49 62q56 52 96 84 t67 64t46 74t35 114q4 16 17 17t25 1q28 0 42 -13t32 -43q12 -20 34 -45t45 -52t44 -52t33 -41q14 -22 21 -36t11 -25t6 -23t2 -32q0 -28 -6 -44t-34 -16q-30 0 -55 22t-51 52t-57 63t-69 55z" />
<glyph unicode="&#xc3;" horiz-adv-x="1152" d="M940 46q0 34 6 69t14 70t14 71t6 72q0 56 -4 120t-20 122q-56 -12 -115 -9t-118 11t-119 16t-120 8h-57t-80 -2t-75 -6q-32 -4 -40 -12l-20 -18q0 -2 -1 -9t-1 -17t-1 -20t-1 -16q0 -58 9 -117t20 -115t21 -112t10 -112v-20q-30 -28 -54 -19t-43 44t-32 90t-20 120 t-8 133t5 132q-4 4 -16 17t-24 28t-24 29q-8 14 -12 22l-2 4v4q0 14 7 20t17 9t20 7t16 14v10v17v17v10q8 84 13 179t18 186t40 175t75 148t122 102t186 38q88 0 159 -42t126 -113t96 -164t69 -197t47 -210t29 -202t14 -176t4 -132v-68t-3 -59t-6 -61t-11 -74 q-16 -22 -41 -41t-55 -19q-26 0 -33 13t-7 35zM892 652q6 0 15 1t15 10t12 29t10 56q0 58 -11 133t-33 155t-57 156t-83 136t-111 96t-141 36q-82 0 -138 -43t-91 -112t-54 -155t-27 -172t-9 -162t-1 -124zM700 1638q-52 -20 -93 -10t-78 34t-73 53t-78 49q-56 4 -83 -19 t-37 -56t-9 -67t-3 -52t-18 -13t-54 53q-16 48 -9 91t31 74t62 51q36 22 78 22q4 2 15 1t35 -9t63 -28t103 -58q38 -22 60 -24t54 10l20 6q12 4 12 8l122 96q24 -2 37 -10t18 -18t4 -20t-9 -16q-54 -44 -83 -72t-43 -42t-17 -19t-4 -7t-4 -3t-19 -5z" />
<glyph unicode="&#xc4;" horiz-adv-x="1152" d="M940 46q0 34 6 69t14 70t14 71t6 72q0 56 -4 120t-20 122q-56 -12 -115 -9t-118 11t-119 16t-120 8h-57t-80 -2t-75 -6q-32 -4 -40 -12l-20 -18q0 -2 -1 -9t-1 -17t-1 -20t-1 -16q0 -58 9 -117t20 -115t21 -112t10 -112v-20q-30 -28 -54 -19t-43 44t-32 90t-20 120 t-8 133t5 132q-4 4 -16 17t-24 28t-24 29q-8 14 -12 22l-2 4v4q0 14 7 20t17 9t20 7t16 14v10v17v17v10q8 84 13 179t18 186t40 175t75 148t122 102t186 38q88 0 159 -42t126 -113t96 -164t69 -197t47 -210t29 -202t14 -176t4 -132v-68t-3 -59t-6 -61t-11 -74 q-16 -22 -41 -41t-55 -19q-26 0 -33 13t-7 35zM892 652q6 0 15 1t15 10t12 29t10 56q0 58 -11 133t-33 155t-57 156t-83 136t-111 96t-141 36q-82 0 -138 -43t-91 -112t-54 -155t-27 -172t-9 -162t-1 -124zM280 1752q0 8 10 24t23 34t29 30q12 12 24 12q32 0 55 -11t37 -27 t21 -36t7 -38q0 -12 -10 -27t-26 -28t-35 -22t-39 -9q-22 0 -40 11t-30 26t-19 32t-7 29zM600 1752q0 8 9 24t24 34t30 30t25 12q30 0 52 -11t37 -27t22 -36t7 -38q0 -12 -10 -27t-25 -28t-36 -22t-39 -9q-22 0 -40 11t-30 26t-19 32t-7 29z" />
<glyph unicode="&#xc5;" horiz-adv-x="1152" d="M328 1694q0 44 20 77t53 55t72 33t81 11q32 0 59 -17t47 -43t32 -54q12 -32 12 -56q0 -40 -18 -72t-46 -54q-16 -12 -32 -22q56 -8 104 -36q70 -42 125 -114t96 -165t69 -197t47 -210t29 -202t14 -176t4 -132v-68t-3 -59t-6 -61t-11 -74q-16 -22 -41 -41t-55 -19 q-26 0 -33 13t-7 35q0 34 6 69t14 70t14 71t6 72q0 56 -4 120t-20 122q-56 -12 -115 -9t-118 11t-119 16t-120 8h-57t-80 -2t-75 -6q-32 -4 -40 -12l-20 -18q0 -2 -1 -9t-1 -17t-1 -20t-1 -16q0 -58 9 -117t20 -115t21 -112t10 -112v-20q-30 -28 -54 -19t-43 44t-32 90 t-20 120t-8 133t5 132q-4 4 -16 17t-24 28t-24 29q-8 14 -12 22l-2 4v4q0 14 7 20t17 9t20 7t16 14v54q8 84 13 179t18 186t40 175t75 148t122 102q28 16 60 24q-28 10 -48 30q-50 46 -50 122zM892 652q6 0 15 1t15 10t12 29t10 56q0 58 -11 133t-33 155t-57 156t-83 136 t-111 96t-141 36q-82 0 -138 -43t-91 -112t-54 -155t-27 -172t-9 -162t-1 -124zM392 1690q0 -50 30 -74t84 -24q14 -2 35 6t42 23t36 37t14 46t-21 48q-24 26 -76 48q-28 0 -53 -5t-46 -18t-33 -34t-12 -53z" />
<glyph unicode="&#xc6;" horiz-adv-x="1968" d="M1132 1144q-8 0 -14 2q8 -18 8 -26v-364q10 -16 58 -16t114 7t141 20t138 24t107 17q44 8 48 4q6 0 23 2t36 4t36 2h23q0 -48 -53 -78t-133 -46t-173 -24t-175 -14t-138 -14t-60 -24q-12 -32 -17 -71t-5 -81q-2 -16 -2 -30q4 -70 2 -118v-68v-8q2 -20 0 -40v-24 q8 -20 36 -30t59 -12t60 -1t43 1q68 0 136 7l136 14t135 14t135 7h10q4 -2 13 -4t18 -6t16 -7t11 -3q4 -2 12 -9t8 -11q0 -38 -42 -62t-106 -39t-141 -23t-146 -10t-119 -2h-66q-80 0 -142 14q-52 12 -90 38q-16 -20 -38 -40q-24 -18 -54 -18q-26 0 -33 13t-7 35q0 34 6 69 t14 70t14 71q6 28 6 54v18q0 56 -4 120t-20 122q-56 -12 -115 -9t-118 11t-119 16t-120 8h-57t-80 -2t-75 -6q-32 -4 -40 -12l-20 -18q0 -2 -1 -9t-1 -17t-1 -20t-1 -16q0 -58 9 -117t20 -115t21 -112t10 -112v-20q-30 -28 -54 -19t-43 44t-32 90t-20 120t-8 133t5 132 q-4 4 -16 17t-24 28t-24 29q-8 14 -12 22l-2 4v4q0 14 7 20t17 9t20 7t16 14v54q8 84 13 179t18 186t40 175t75 148t122 102t186 38q88 0 159 -42t126 -113t96 -164t69 -197l10 -34v190q0 32 7 49t33 23t76 4t135 -5t210 -7t301 0q20 -8 41 -18t37 -23t27 -31t11 -44 q0 -6 -7 -14t-13 -6l-96 38zM892 652q6 0 15 1t15 10t12 29t10 56q0 58 -11 133t-33 155t-57 156t-83 136t-111 96t-141 36q-82 0 -138 -43t-91 -112t-54 -155t-27 -172t-9 -162t-1 -124z" />
<glyph unicode="&#xc7;" horiz-adv-x="1056" d="M262 -432q12 10 23 13t25 3q32 0 63 -19t59 -41t54 -41t58 -19h60t46 7t29 30t11 71q2 46 -15 72t-44 40t-63 20t-73 14t-73 21t-65 38t-46 68t-19 113q2 38 8 58l-16 8q-52 28 -93 71t-70 100t-48 119t-27 124t-8 116q0 80 26 167t72 173t109 164t139 138t160 96 q84 34 168 34q48 0 72 -36t24 -80q0 -26 -10 -60t-30 -67t-45 -56t-55 -23q0 20 6 39t16 36t16 35t6 40q0 28 -23 33t-45 5h-16h-12q-92 -36 -180 -95t-156 -136t-108 -170t-40 -199q0 -68 13 -149t45 -150t87 -115t137 -46q68 0 135 13t134 28t134 27t135 12q16 0 32 -4 t16 -24q0 -10 -12 -25t-30 -29t-34 -22l-20 -10l-462 -98q-4 0 -17 -1t-21 -1q-12 0 -24 2q8 -20 10 -40t-6 -28q0 -64 31 -91t76 -39t99 -18t100 -27t77 -65t31 -130q0 -48 -25 -84t-64 -59t-85 -35q-48 -12 -88 -12q-58 0 -96 17t-67 44t-54 62t-57 73z" />
<glyph unicode="&#xc8;" horiz-adv-x="1074" d="M188 1138q-8 0 -14 2q10 -20 10 -28v-362q10 -16 58 -15t114 7t140 19t138 24t106 19q44 8 48 4q6 0 23 1t37 2t36 2t22 1q0 -48 -53 -78t-133 -46t-173 -25t-174 -15t-137 -14q-58 -4 -62 -20q-12 -32 -17 -72t-6 -81t0 -82t1 -73v-28v-41v-40v-25q8 -20 36 -30t60 -13 t60 -1q32 2 44 2q68 0 136 7t135 14l134 14t135 7h12q4 -2 12 -4t17 -6t15 -8q8 -4 12 -4q4 -2 12 -8q8 -4 8 -8q0 -38 -42 -63t-106 -40t-140 -22t-146 -10t-120 -3h-64q-80 0 -141 14t-102 47t-61 89q-20 60 -20 144q0 76 11 152t11 154q0 32 -10 54t-10 48v12q4 4 14 19 t14 19v442q0 32 7 48t34 22t76 4t134 -6t209 -6q128 -2 304 0q20 -8 40 -17t37 -23t27 -32t10 -44q0 -6 -7 -14t-11 -6l-96 38zM516 1582q24 -20 37 -32t24 -22t24 -22t37 -32q4 -4 12 -18t8 -18q0 -40 -14 -50q-16 -10 -44 -10q-4 0 -10 2t-26 17t-54 44t-90 83 q-16 22 -29 48t-10 40t33 10t102 -40z" />
<glyph unicode="&#xc9;" horiz-adv-x="1074" d="M188 1138q-8 0 -14 2q10 -20 10 -28v-362q10 -16 58 -15t114 7t140 19t138 24t106 19q44 8 48 4q6 0 23 1t37 2t36 2t22 1q0 -48 -53 -78t-133 -46t-173 -25t-174 -15t-137 -14q-58 -4 -62 -20q-12 -32 -17 -72t-6 -81t0 -82t1 -73v-28v-41v-40v-25q8 -20 36 -30t60 -13 t60 -1q32 2 44 2q68 0 136 7t135 14l134 14t135 7h12q4 -2 12 -4t17 -6t15 -8q8 -4 12 -4q4 -2 12 -8q8 -4 8 -8q0 -38 -42 -63t-106 -40t-140 -22t-146 -10t-120 -3h-64q-80 0 -141 14t-102 47t-61 89q-20 60 -20 144q0 76 11 152t11 154q0 32 -10 54t-10 48v12q4 4 14 19 t14 19v442q0 32 7 48t34 22t76 4t134 -6t209 -6q128 -2 304 0q20 -8 40 -17t37 -23t27 -32t10 -44q0 -6 -7 -14t-11 -6l-96 38zM330 1344q0 42 32 80t77 72t93 64q44 30 76 54q42 -20 37 -48t-42 -66t-97 -88t-126 -116q-30 0 -40 10t-10 38z" />
<glyph unicode="&#xca;" horiz-adv-x="1074" d="M188 1138q-8 0 -14 2q10 -20 10 -28v-362q10 -16 58 -15t114 7t140 19t138 24t106 19q44 8 48 4q6 0 23 1t37 2t36 2t22 1q0 -48 -53 -78t-133 -46t-173 -25t-174 -15t-137 -14q-58 -4 -62 -20q-12 -32 -17 -72t-6 -81t0 -82t1 -73v-28v-41v-40v-25q8 -20 36 -30t60 -13 t60 -1q32 2 44 2q68 0 136 7t135 14l134 14t135 7h12q4 -2 12 -4t17 -6t15 -8q8 -4 12 -4q4 -2 12 -8q8 -4 8 -8q0 -38 -42 -63t-106 -40t-140 -22t-146 -10t-120 -3h-64q-80 0 -141 14t-102 47t-61 89q-20 60 -20 144q0 76 11 152t11 154q0 32 -10 54t-10 48v12q4 4 14 19 t14 19v442q0 32 7 48t34 22t76 4t134 -6t209 -6q128 -2 304 0q20 -8 40 -17t37 -23t27 -32t10 -44q0 -6 -7 -14t-11 -6l-96 38zM544 1576q-38 -48 -81 -95t-82 -72t-72 -19t-49 62q56 52 96 84t67 64t46 74t35 114q4 16 17 17t25 1q28 0 42 -13t32 -43q12 -20 34 -45t45 -52 t44 -52t33 -41q14 -22 21 -36t11 -25t6 -23t2 -32q0 -28 -6 -44t-34 -16q-30 0 -55 22t-51 52t-57 63t-69 55z" />
<glyph unicode="&#xcb;" horiz-adv-x="1074" d="M188 1138q-8 0 -14 2q10 -20 10 -28v-362q10 -16 58 -15t114 7t140 19t138 24t106 19q44 8 48 4q6 0 23 1t37 2t36 2t22 1q0 -48 -53 -78t-133 -46t-173 -25t-174 -15t-137 -14q-58 -4 -62 -20q-12 -32 -17 -72t-6 -81t0 -82t1 -73v-28v-41v-40v-25q8 -20 36 -30t60 -13 t60 -1q32 2 44 2q68 0 136 7t135 14l134 14t135 7h12q4 -2 12 -4t17 -6t15 -8q8 -4 12 -4q4 -2 12 -8q8 -4 8 -8q0 -38 -42 -63t-106 -40t-140 -22t-146 -10t-120 -3h-64q-80 0 -141 14t-102 47t-61 89q-20 60 -20 144q0 76 11 152t11 154q0 32 -10 54t-10 48v12q4 4 14 19 t14 19v442q0 32 7 48t34 22t76 4t134 -6t209 -6q128 -2 304 0q20 -8 40 -17t37 -23t27 -32t10 -44q0 -6 -7 -14t-11 -6l-96 38zM266 1472q0 8 10 24t23 34t29 30q12 12 24 12q32 0 55 -11t37 -27t21 -36t7 -38q0 -12 -10 -27t-26 -28t-35 -22t-39 -9q-22 0 -40 11t-30 26 t-19 32t-7 29zM586 1472q0 8 9 24t24 34t30 30t25 12q30 0 52 -11t37 -27t22 -36t7 -38q0 -12 -10 -27t-25 -28t-36 -22t-39 -9q-22 0 -40 11t-30 26t-19 32t-7 29z" />
<glyph unicode="&#xcc;" horiz-adv-x="344" d="M192 76q-10 74 -19 155t-17 163t-18 162q-10 84 -22 156q-6 30 -21 80t-29 107t-25 115t-11 106q24 32 48 12t48 -75t47 -140t42 -181t36 -198t29 -192t20 -160t8 -106v-24t-2 -23t-11 -20t-27 -13q-12 -4 -24 7t-24 25t-19 27t-9 17zM96 1524q24 -20 37 -32t24 -22 t24 -22t37 -32q4 -4 12 -18t8 -18q0 -40 -14 -50q-16 -10 -44 -10q-4 0 -10 2t-26 17t-54 44t-90 83q-16 22 -29 48t-10 40t33 10t102 -40z" />
<glyph unicode="&#xcd;" horiz-adv-x="344" d="M192 76q-10 74 -19 155t-17 163t-18 162q-10 84 -22 156q-6 30 -21 80t-29 107t-25 115t-11 106q24 32 48 12t48 -75t47 -140t42 -181t36 -198t29 -192t20 -160t8 -106v-24t-2 -23t-11 -20t-27 -13q-12 -4 -24 7t-24 25t-19 27t-9 17zM-50 1244q0 42 32 80t77 72t93 64 q44 30 76 54q42 -20 37 -48t-42 -66t-97 -88t-126 -116q-30 0 -40 10t-10 38z" />
<glyph unicode="&#xce;" horiz-adv-x="344" d="M192 76q-10 74 -19 155t-17 163t-18 162q-10 84 -22 156q-6 30 -21 80t-29 107t-25 115t-11 106q24 32 48 12t48 -75t47 -140t42 -181t36 -198t29 -192t20 -160t8 -106v-24t-2 -23t-11 -20t-27 -13q-12 -4 -24 7t-24 25t-19 27t-9 17zM184 1576q-38 -48 -81 -95t-82 -72 t-72 -19t-49 62q56 52 96 84t67 64t46 74t35 114q4 16 17 17t25 1q28 0 42 -13t32 -43q12 -20 34 -45t45 -52t44 -52t33 -41q14 -22 21 -36t11 -25t6 -23t2 -32q0 -28 -6 -44t-34 -16q-30 0 -55 22t-51 52t-57 63t-69 55z" />
<glyph unicode="&#xcf;" horiz-adv-x="344" d="M192 76q-10 74 -19 155t-17 163t-18 162q-10 84 -22 156q-6 30 -21 80t-29 107t-25 115t-11 106q24 32 48 12t48 -75t47 -140t42 -181t36 -198t29 -192t20 -160t8 -106v-24t-2 -23t-11 -20t-27 -13q-12 -4 -24 7t-24 25t-19 27t-9 17zM-214 1298q0 8 10 24t23 34t29 30 q12 12 24 12q32 0 55 -11t37 -27t21 -36t7 -38q0 -12 -10 -27t-26 -28t-35 -22t-39 -9q-22 0 -40 11t-30 26t-19 32t-7 29zM106 1298q0 8 9 24t24 34t30 30t25 12q30 0 52 -11t37 -27t22 -36t7 -38q0 -12 -10 -27t-25 -28t-36 -22t-39 -9q-22 0 -40 11t-30 26t-19 32t-7 29z " />
<glyph unicode="&#xd0;" horiz-adv-x="1518" d="M926 750q28 0 61 -1t61 -11t46 -30t18 -56q0 -40 -38 -40q-44 0 -81 11t-85 11q-34 0 -67 -3t-69 -7q8 -52 16 -84l14 -56t10 -42t5 -40t-1 -52t-8 -78v-25t-5 -26t-16 -21t-27 -8q-40 -20 -53 4t-14 81t-1 144t-16 189q-56 -8 -112 -15t-114 -7q0 40 17 67t43 44t62 25 q40 10 80 14q-4 18 -10 56t-14 82t-16 93t-18 91t-19 72t-17 40q-144 0 -230 -9t-137 -21t-74 -25t-41 -21l-4 -2q-4 -2 -6 -2q-4 0 -4 2q-2 2 -4 2q-2 2 -4 6l-4 18q-4 8 -7 18t-3 14v8q0 28 29 48t72 34t95 23t97 13t76 7t33 3q102 0 218 -23t229 -67t216 -109t182 -149 t126 -188t47 -224q0 -110 -34 -198t-94 -154t-140 -111t-170 -66t-185 -21t-185 22q-18 6 -44 17t-51 25t-41 34q-18 24 -18 48q0 16 5 33t25 17q10 0 51 -11t89 -25t94 -26t64 -14h10q88 0 178 33t164 93t121 139t47 171q0 72 -28 141t-75 133t-110 118t-133 97t-142 73 t-138 42q0 -16 2 -47t6 -71t8 -82t8 -81t8 -69l4 -46q34 0 66 2t58 4q2 0 20 1t26 1z" />
<glyph unicode="&#xd1;" horiz-adv-x="1248" d="M58 122q0 94 6 188t15 187t15 185q6 94 6 186q0 52 -11 100t-11 98v10q4 2 15 5t23 5t24 6q10 4 14 4h20q16 -72 43 -172t65 -204t90 -207t120 -184t152 -130t188 -47q62 0 109 21t77 58t45 87t15 110q0 78 -31 145t-67 129t-67 124t-31 134q0 28 6 44t34 16q32 0 65 -36 t63 -92t56 -125t46 -137t31 -126t11 -92q0 -86 -28 -157t-79 -124t-122 -82t-157 -29q-94 0 -169 36t-134 93t-104 121t-77 121t-55 93t-37 36q-26 0 -38 -18t-17 -42t-5 -51v-41q0 -64 12 -119t12 -117q0 -14 -3 -36t-10 -44t-21 -38t-36 -16q-20 0 -33 15t-21 34t-11 40 t-3 35zM816 1206q-52 -20 -93 -10t-78 34t-73 53t-78 49q-56 4 -83 -19t-37 -56t-9 -67t-3 -52t-18 -13t-54 53q-16 48 -9 91t31 74t62 51q36 22 78 22q4 2 15 1t35 -9t63 -28t103 -58q38 -22 60 -24t54 10l20 6q12 4 12 8l122 96q24 -2 37 -10t18 -18t4 -20t-9 -16 q-54 -44 -83 -72t-43 -42t-17 -19t-4 -7t-4 -3t-19 -5z" />
<glyph unicode="&#xd2;" horiz-adv-x="1248" d="M38 558q-4 88 23 164t77 135t122 95q72 32 158 40q150 -22 287 -76t242 -138t171 -196t74 -252q-20 -104 -82 -164t-146 -93t-180 -49q-96 -14 -176 -26q-124 0 -229 41t-180 113t-118 176t-43 230zM132 568q-2 -92 39 -172t107 -140t148 -100t164 -52q28 0 74 5t100 16 t109 30t100 46t74 64t29 85q-14 100 -61 178t-115 138t-148 102t-158 67t-146 33t-112 0q-62 -22 -101 -58t-62 -77t-32 -83t-9 -82zM648 1404q24 -20 37 -32t24 -22t24 -22t37 -32q4 -4 12 -18t8 -18q0 -40 -14 -50q-16 -10 -44 -10q-4 0 -10 2t-26 17t-54 44t-90 83 q-16 22 -29 48t-10 40t33 10t102 -40z" />
<glyph unicode="&#xd3;" horiz-adv-x="1248" d="M38 558q-4 88 23 164t77 135t122 95q72 32 158 40q150 -22 287 -76t242 -138t171 -196t74 -252q-20 -104 -82 -164t-146 -93t-180 -49q-96 -14 -176 -26q-124 0 -229 41t-180 113t-118 176t-43 230zM132 568q-2 -92 39 -172t107 -140t148 -100t164 -52q28 0 74 5t100 16 t109 30t100 46t74 64t29 85q-14 100 -61 178t-115 138t-148 102t-158 67t-146 33t-112 0q-62 -22 -101 -58t-62 -77t-32 -83t-9 -82zM426 1162q0 42 32 80t77 72t93 64q44 30 76 54q42 -20 37 -48t-42 -66t-97 -88t-126 -116q-30 0 -40 10t-10 38z" />
<glyph unicode="&#xd4;" horiz-adv-x="1248" d="M38 558q-4 88 23 164t77 135t122 95q72 32 158 40q150 -22 287 -76t242 -138t171 -196t74 -252q-20 -104 -82 -164t-146 -93t-180 -49q-96 -14 -176 -26q-124 0 -229 41t-180 113t-118 176t-43 230zM132 568q-2 -92 39 -172t107 -140t148 -100t164 -52q28 0 74 5t100 16 t109 30t100 46t74 64t29 85q-14 100 -61 178t-115 138t-148 102t-158 67t-146 33t-112 0q-62 -22 -101 -58t-62 -77t-32 -83t-9 -82zM452 1336q-38 -48 -81 -95t-82 -72t-72 -19t-49 62q56 52 96 84t67 64t46 74t35 114q4 16 17 17t25 1q28 0 42 -13t32 -43q12 -20 34 -45 t45 -52t44 -52t33 -41q14 -22 21 -36t11 -25t6 -23t2 -32q0 -28 -6 -44t-34 -16q-30 0 -55 22t-51 52t-57 63t-69 55z" />
<glyph unicode="&#xd5;" horiz-adv-x="1248" d="M38 558q-4 88 23 164t77 135t122 95q72 32 158 40q150 -22 287 -76t242 -138t171 -196t74 -252q-20 -104 -82 -164t-146 -93t-180 -49q-96 -14 -176 -26q-124 0 -229 41t-180 113t-118 176t-43 230zM132 568q-2 -92 39 -172t107 -140t148 -100t164 -52q28 0 74 5t100 16 t109 30t100 46t74 64t29 85q-14 100 -61 178t-115 138t-148 102t-158 67t-146 33t-112 0q-62 -22 -101 -58t-62 -77t-32 -83t-9 -82zM706 1128q-52 -20 -93 -10t-78 34t-73 53t-78 49q-56 4 -83 -19t-37 -56t-9 -67t-3 -52t-18 -13t-54 53q-16 48 -9 91t31 74t62 51 q36 22 78 22q4 2 15 1t35 -9t63 -28t103 -58q38 -22 60 -24t54 10l20 6q12 4 12 8l122 96q24 -2 37 -10t18 -18t4 -20t-9 -16q-54 -44 -83 -72t-43 -42t-17 -19t-4 -7t-4 -3t-19 -5z" />
<glyph unicode="&#xd6;" horiz-adv-x="1248" d="M38 558q-4 88 23 164t77 135t122 95q72 32 158 40q150 -22 287 -76t242 -138t171 -196t74 -252q-20 -104 -82 -164t-146 -93t-180 -49q-96 -14 -176 -26q-124 0 -229 41t-180 113t-118 176t-43 230zM132 568q-2 -92 39 -172t107 -140t148 -100t164 -52q28 0 74 5t100 16 t109 30t100 46t74 64t29 85q-14 100 -61 178t-115 138t-148 102t-158 67t-146 33t-112 0q-62 -22 -101 -58t-62 -77t-32 -83t-9 -82zM360 1284q0 8 10 24t23 34t29 30q12 12 24 12q32 0 55 -11t37 -27t21 -36t7 -38q0 -12 -10 -27t-26 -28t-35 -22t-39 -9q-22 0 -40 11 t-30 26t-19 32t-7 29zM680 1284q0 8 9 24t24 34t30 30t25 12q30 0 52 -11t37 -27t22 -36t7 -38q0 -12 -10 -27t-25 -28t-36 -22t-39 -9q-22 0 -40 11t-30 26t-19 32t-7 29z" />
<glyph unicode="&#xd7;" horiz-adv-x="918" d="M558 132q-28 32 -39 48t-15 21t-6 6t-8 9t-24 28l-54 60q-12 -2 -24 -13t-33 -35t-50 -58t-73 -78q-10 0 -23 4t-24 10t-18 15t-7 17q18 46 42 75t48 50t41 42t17 53q0 2 -1 4t-1 4q-34 32 -54 53t-38 41t-42 43t-68 59q-4 16 8 29t28 23t32 16t24 6q44 -40 65 -64 t37 -40t35 -31t59 -37q40 6 75 29t67 51t59 52t49 33t38 -4t26 -63q0 -16 -25 -35t-60 -43t-74 -54t-69 -64q42 -40 60 -59t30 -35t30 -34t58 -52q-12 -26 -39 -42t-59 -40z" />
<glyph unicode="&#xd8;" horiz-adv-x="1248" d="M254 -140q0 28 13 70t31 86q10 26 22 48q-68 36 -122 88q-76 74 -118 177t-42 229q-4 88 23 164t77 135t122 95q72 32 158 40q122 -18 234 -56l44 124q6 28 12 70t16 83t26 74t42 41q18 -4 26 -14t11 -23t3 -27v-26q0 -30 -19 -109t-51 -187q-6 -22 -12 -46 q110 -50 196 -118q106 -84 172 -196t74 -252q-20 -104 -82 -164t-146 -93t-180 -49q-96 -14 -176 -26q-88 0 -168 20q-4 -12 -10 -22q-40 -92 -71 -148t-47 -56q-26 0 -42 24t-16 44zM590 104q28 0 74 5t100 16t109 30t100 46t74 64t29 85q-14 100 -61 178t-115 138 t-148 102l-36 18q-12 -38 -26 -78q-40 -126 -85 -254t-89 -248q-16 -40 -28 -76q50 -18 102 -26zM132 568q-2 -92 39 -172t109 -140q44 -42 96 -74l236 646l-18 6q-78 26 -146 34t-112 0q-62 -22 -101 -58t-62 -77t-32 -83t-9 -82z" />
<glyph unicode="&#xd9;" horiz-adv-x="1170" d="M56 780q0 18 1 49t4 68t11 76t24 70t40 51t58 20q22 0 34 -12t14 -29t-10 -37t-38 -36q-18 0 -26 -27t-12 -59t-4 -62v-36q0 -52 4 -120t16 -141t35 -145t60 -131t89 -99t126 -44q56 -4 130 20t138 69t109 104t45 123v8q-14 84 -29 140t-26 102t-18 94t-7 112 q6 92 21 137t31 50t34 -23t32 -81t20 -126t4 -155q2 -60 23 -132t47 -144t53 -140t41 -119t8 -84t-42 -33q-40 0 -60 24t-34 53t-30 53t-40 24q-20 0 -48 -15t-63 -39t-76 -52t-85 -52t-90 -40t-94 -16q-86 0 -150 41t-110 107t-77 151t-49 172t-26 168t-8 143zM612 1404 q24 -20 37 -32t24 -22t24 -22t37 -32q4 -4 12 -18t8 -18q0 -40 -14 -50q-16 -10 -44 -10q-4 0 -10 2t-26 17t-54 44t-90 83q-16 22 -29 48t-10 40t33 10t102 -40z" />
<glyph unicode="&#xda;" horiz-adv-x="1170" d="M56 780q0 18 1 49t4 68t11 76t24 70t40 51t58 20q22 0 34 -12t14 -29t-10 -37t-38 -36q-18 0 -26 -27t-12 -59t-4 -62v-36q0 -52 4 -120t16 -141t35 -145t60 -131t89 -99t126 -44q56 -4 130 20t138 69t109 104t45 123v8q-14 84 -29 140t-26 102t-18 94t-7 112 q6 92 21 137t31 50t34 -23t32 -81t20 -126t4 -155q2 -60 23 -132t47 -144t53 -140t41 -119t8 -84t-42 -33q-40 0 -60 24t-34 53t-30 53t-40 24q-20 0 -48 -15t-63 -39t-76 -52t-85 -52t-90 -40t-94 -16q-86 0 -150 41t-110 107t-77 151t-49 172t-26 168t-8 143zM388 1162 q0 42 32 80t77 72t93 64q44 30 76 54q42 -20 37 -48t-42 -66t-97 -88t-126 -116q-30 0 -40 10t-10 38z" />
<glyph unicode="&#xdb;" horiz-adv-x="1170" d="M56 780q0 18 1 49t4 68t11 76t24 70t40 51t58 20q22 0 34 -12t14 -29t-10 -37t-38 -36q-18 0 -26 -27t-12 -59t-4 -62v-36q0 -52 4 -120t16 -141t35 -145t60 -131t89 -99t126 -44q56 -4 130 20t138 69t109 104t45 123v8q-14 84 -29 140t-26 102t-18 94t-7 112 q6 92 21 137t31 50t34 -23t32 -81t20 -126t4 -155q2 -60 23 -132t47 -144t53 -140t41 -119t8 -84t-42 -33q-40 0 -60 24t-34 53t-30 53t-40 24q-20 0 -48 -15t-63 -39t-76 -52t-85 -52t-90 -40t-94 -16q-86 0 -150 41t-110 107t-77 151t-49 172t-26 168t-8 143zM592 1576 q-38 -48 -81 -95t-82 -72t-72 -19t-49 62q56 52 96 84t67 64t46 74t35 114q4 16 17 17t25 1q28 0 42 -13t32 -43q12 -20 34 -45t45 -52t44 -52t33 -41q14 -22 21 -36t11 -25t6 -23t2 -32q0 -28 -6 -44t-34 -16q-30 0 -55 22t-51 52t-57 63t-69 55z" />
<glyph unicode="&#xdc;" horiz-adv-x="1170" d="M56 780q0 18 1 49t4 68t11 76t24 70t40 51t58 20q22 0 34 -12t14 -29t-10 -37t-38 -36q-18 0 -26 -27t-12 -59t-4 -62v-36q0 -52 4 -120t16 -141t35 -145t60 -131t89 -99t126 -44q56 -4 130 20t138 69t109 104t45 123v8q-14 84 -29 140t-26 102t-18 94t-7 112 q6 92 21 137t31 50t34 -23t32 -81t20 -126t4 -155q2 -60 23 -132t47 -144t53 -140t41 -119t8 -84t-42 -33q-40 0 -60 24t-34 53t-30 53t-40 24q-20 0 -48 -15t-63 -39t-76 -52t-85 -52t-90 -40t-94 -16q-86 0 -150 41t-110 107t-77 151t-49 172t-26 168t-8 143zM322 1284 q0 8 10 24t23 34t29 30q12 12 24 12q32 0 55 -11t37 -27t21 -36t7 -38q0 -12 -10 -27t-26 -28t-35 -22t-39 -9q-22 0 -40 11t-30 26t-19 32t-7 29zM642 1284q0 8 9 24t24 34t30 30t25 12q30 0 52 -11t37 -27t22 -36t7 -38q0 -12 -10 -27t-25 -28t-36 -22t-39 -9 q-22 0 -40 11t-30 26t-19 32t-7 29z" />
<glyph unicode="&#xdd;" horiz-adv-x="826" d="M404 8v21v32v32v21q0 86 9 153t24 131t37 131t46 151q0 4 1 15t1 15q4 2 -35 20t-95 51t-122 83t-121 116t-88 148t-25 182q2 0 11 1t20 2t21 3h12q14 -40 38 -90t59 -102t77 -101t89 -88t98 -62t105 -23q36 80 57 127t33 73t16 39t6 28t4 36t10 65q0 8 16 17t33 11 t32 -4t15 -24q0 -110 -24 -209t-60 -193t-76 -187t-70 -191t-43 -204t5 -226q-12 -22 -24 -31t-32 -9t-34 9t-26 31zM362 1426q0 42 32 80t77 72t93 64q44 30 76 54q42 -20 37 -48t-42 -66t-97 -88t-126 -116q-30 0 -40 10t-10 38z" />
<glyph unicode="&#xde;" horiz-adv-x="1018" d="M234 1222q4 -20 3 -70t-5 -112t-8 -129t-6 -121t0 -90t10 -32q36 0 71 12t75 12q60 0 128 -11t135 -33t130 -57t110 -81t75 -106t28 -132q0 -92 -45 -147t-115 -83t-152 -36q-84 -8 -156 -8q-22 0 -60 13t-79 29t-77 32t-50 20l24 -412l-110 44l-44 892q0 6 -2 37t-4 77 t-4 103l-4 114t-2 112t2 97t6 67t8 23zM250 436q-20 -88 11 -152t90 -105t136 -57t153 -5t136 47q64 38 92 104q0 54 -25 98t-65 78t-91 59t-104 41t-105 25t-92 9q-66 0 -101 -38t-35 -104z" />
<glyph unicode="&#xdf;" horiz-adv-x="1210" d="M308 -274q-4 2 -34 6t-64 12t-60 21t-22 33q32 90 44 194t9 215t-17 225t-32 225t-35 215t-25 194t-6 162t24 120t68 68t122 4q38 0 88 -8t104 -24t107 -41t95 -57t70 -72q26 -38 26 -86q0 -52 -22 -96t-48 -79t-48 -62t-22 -51q0 -4 40 -23t101 -53t130 -84t130 -111 t101 -132t40 -151q0 -56 -36 -95t-95 -66t-132 -42t-146 -23t-139 -10q-68 -2 -112 -2q-16 0 -30 2t-22 12t-9 34t9 66q40 0 99 -1t123 -1t127 7t114 24t82 46t31 75q0 98 -51 163t-128 111t-167 77t-167 58t-128 57t-51 72q0 22 23 35t58 23t76 21t76 32t58 53t23 86 q0 44 -24 78t-61 58t-80 36t-81 12q-56 0 -116 -12t-104 -48z" />
<glyph unicode="&#xe0;" horiz-adv-x="1036" d="M38 338q2 34 20 78t56 86t96 75t137 47t180 2t225 -60v20l-2 18q0 52 -30 106t-77 97t-101 70t-104 27q-20 0 -35 -6t-29 -15t-27 -16t-31 -7q-4 0 -4 2l-4 4q-4 4 -11 10t-7 8q0 36 13 62t36 42t52 25t61 9q80 -8 153 -49t134 -103t107 -143t77 -168t41 -175 q12 -92 2 -172q-2 0 -12 1t-22 2t-20 3l-10 2q-42 94 -94 152t-103 91t-95 46t-72 19q-30 0 -71 -4t-85 -14t-89 -27t-80 -41t-56 -57t-21 -77q0 -48 38 -81t92 -54t110 -29t90 -8q56 0 110 6t107 14t105 14t104 6h14t21 -1t20 -1h13q16 -6 18 -18t2 -24t-25 -26t-65 -28 t-89 -29t-94 -25t-84 -17t-55 -7q-84 0 -178 14t-172 51t-129 103t-51 170zM480 1284q24 -20 37 -32t24 -22t24 -22t37 -32q4 -4 12 -18t8 -18q0 -40 -14 -50q-16 -10 -44 -10q-4 0 -10 2t-26 17t-54 44t-90 83q-16 22 -29 48t-10 40t33 10t102 -40z" />
<glyph unicode="&#xe1;" horiz-adv-x="1036" d="M38 338q2 34 20 78t56 86t96 75t137 47t180 2t225 -60v20l-2 18q0 52 -30 106t-77 97t-101 70t-104 27q-20 0 -35 -6t-29 -15t-27 -16t-31 -7q-4 0 -4 2l-4 4q-4 4 -11 10t-7 8q0 36 13 62t36 42t52 25t61 9q80 -8 153 -49t134 -103t107 -143t77 -168t41 -175 q12 -92 2 -172q-2 0 -12 1t-22 2t-20 3l-10 2q-42 94 -94 152t-103 91t-95 46t-72 19q-30 0 -71 -4t-85 -14t-89 -27t-80 -41t-56 -57t-21 -77q0 -48 38 -81t92 -54t110 -29t90 -8q56 0 110 6t107 14t105 14t104 6h14t21 -1t20 -1h13q16 -6 18 -18t2 -24t-25 -26t-65 -28 t-89 -29t-94 -25t-84 -17t-55 -7q-84 0 -178 14t-172 51t-129 103t-51 170zM322 1146q0 42 32 80t77 72t93 64q44 30 76 54q42 -20 37 -48t-42 -66t-97 -88t-126 -116q-30 0 -40 10t-10 38z" />
<glyph unicode="&#xe2;" horiz-adv-x="1036" d="M38 338q2 34 20 78t56 86t96 75t137 47t180 2t225 -60v20l-2 18q0 52 -30 106t-77 97t-101 70t-104 27q-20 0 -35 -6t-29 -15t-27 -16t-31 -7q-4 0 -4 2l-4 4q-4 4 -11 10t-7 8q0 36 13 62t36 42t52 25t61 9q80 -8 153 -49t134 -103t107 -143t77 -168t41 -175 q12 -92 2 -172q-2 0 -12 1t-22 2t-20 3l-10 2q-42 94 -94 152t-103 91t-95 46t-72 19q-30 0 -71 -4t-85 -14t-89 -27t-80 -41t-56 -57t-21 -77q0 -48 38 -81t92 -54t110 -29t90 -8q56 0 110 6t107 14t105 14t104 6h14t21 -1t20 -1h13q16 -6 18 -18t2 -24t-25 -26t-65 -28 t-89 -29t-94 -25t-84 -17t-55 -7q-84 0 -178 14t-172 51t-129 103t-51 170zM524 1268q-38 -48 -81 -95t-82 -72t-72 -19t-49 62q56 52 96 84t67 64t46 74t35 114q4 16 17 17t25 1q28 0 42 -13t32 -43q12 -20 34 -45t45 -52t44 -52t33 -41q14 -22 21 -36t11 -25t6 -23t2 -32 q0 -28 -6 -44t-34 -16q-30 0 -55 22t-51 52t-57 63t-69 55z" />
<glyph unicode="&#xe3;" horiz-adv-x="1036" d="M38 338q2 34 20 78t56 86t96 75t137 47t180 2t225 -60v20l-2 18q0 52 -30 106t-77 97t-101 70t-104 27q-20 0 -35 -6t-29 -15t-27 -16t-31 -7q-4 0 -4 2l-4 4q-4 4 -11 10t-7 8q0 36 13 62t36 42t52 25t61 9q80 -8 153 -49t134 -103t107 -143t77 -168t41 -175 q12 -92 2 -172q-2 0 -12 1t-22 2t-20 3l-10 2q-42 94 -94 152t-103 91t-95 46t-72 19q-30 0 -71 -4t-85 -14t-89 -27t-80 -41t-56 -57t-21 -77q0 -48 38 -81t92 -54t110 -29t90 -8q56 0 110 6t107 14t105 14t104 6h14t21 -1t20 -1h13q16 -6 18 -18t2 -24t-25 -26t-65 -28 t-89 -29t-94 -25t-84 -17t-55 -7q-84 0 -178 14t-172 51t-129 103t-51 170zM680 1206q-52 -20 -93 -10t-78 34t-73 53t-78 49q-56 4 -83 -19t-37 -56t-9 -67t-3 -52t-18 -13t-54 53q-16 48 -9 91t31 74t62 51q36 22 78 22q4 2 15 1t35 -9t63 -28t103 -58q38 -22 60 -24 t54 10l20 6q12 4 12 8l122 96q24 -2 37 -10t18 -18t4 -20t-9 -16q-54 -44 -83 -72t-43 -42t-17 -19t-4 -7t-4 -3t-19 -5z" />
<glyph unicode="&#xe4;" horiz-adv-x="1036" d="M38 338q2 34 20 78t56 86t96 75t137 47t180 2t225 -60v20l-2 18q0 52 -30 106t-77 97t-101 70t-104 27q-20 0 -35 -6t-29 -15t-27 -16t-31 -7q-4 0 -4 2l-4 4q-4 4 -11 10t-7 8q0 36 13 62t36 42t52 25t61 9q80 -8 153 -49t134 -103t107 -143t77 -168t41 -175 q12 -92 2 -172q-2 0 -12 1t-22 2t-20 3l-10 2q-42 94 -94 152t-103 91t-95 46t-72 19q-30 0 -71 -4t-85 -14t-89 -27t-80 -41t-56 -57t-21 -77q0 -48 38 -81t92 -54t110 -29t90 -8q56 0 110 6t107 14t105 14t104 6h14t21 -1t20 -1h13q16 -6 18 -18t2 -24t-25 -26t-65 -28 t-89 -29t-94 -25t-84 -17t-55 -7q-84 0 -178 14t-172 51t-129 103t-51 170zM262 1216q0 8 10 24t23 34t29 30q12 12 24 12q32 0 55 -11t37 -27t21 -36t7 -38q0 -12 -10 -27t-26 -28t-35 -22t-39 -9q-22 0 -40 11t-30 26t-19 32t-7 29zM582 1216q0 8 9 24t24 34t30 30t25 12 q30 0 52 -11t37 -27t22 -36t7 -38q0 -12 -10 -27t-25 -28t-36 -22t-39 -9q-22 0 -40 11t-30 26t-19 32t-7 29z" />
<glyph unicode="&#xe5;" horiz-adv-x="1036" d="M324 1158q0 44 20 77t52 55t72 34t80 12q32 0 60 -18t48 -43t32 -54t12 -55q0 -40 -18 -73t-46 -55t-64 -34q-10 -4 -20 -6q28 -12 54 -26q72 -40 133 -102t107 -143t77 -168t41 -175q12 -92 2 -172q-2 0 -12 1t-22 2t-22 3l-8 2q-42 94 -94 152t-103 91t-95 46t-72 19 q-30 0 -71 -4t-85 -14t-89 -27t-80 -41t-56 -57t-21 -77q0 -48 38 -81t92 -54t110 -29t90 -8q56 0 110 6t107 14t105 14t104 6h14q10 0 21 -1t19 -1h14q16 -6 18 -18t2 -24t-25 -26t-65 -28t-89 -29t-94 -25t-84 -17t-55 -7q-84 0 -178 14t-172 51t-129 103t-51 170 q2 34 20 78t56 86t96 75t137 47t180 2t225 -60v20l-2 18q0 52 -30 106t-77 97t-101 70t-104 27q-20 0 -35 -6t-29 -15t-27 -16t-31 -7q-4 0 -4 2l-4 4q-4 4 -11 10t-7 8q0 36 13 62t36 42t51 24l12 4q-16 8 -28 20q-50 46 -50 122zM388 1156q0 -50 30 -75t82 -25q14 -2 36 7 t43 23t36 36t14 46t-23 49t-74 47q-28 0 -54 -5t-46 -18t-32 -33t-12 -52z" />
<glyph unicode="&#xe6;" horiz-adv-x="1806" d="M38 338q2 34 20 78t56 86t96 75t137 47t180 2t225 -60v20l-2 18q0 52 -30 106t-77 97t-101 70t-104 27q-20 0 -35 -6t-29 -15t-27 -16t-31 -7q-4 0 -4 2l-4 4q-4 4 -11 10t-7 8q0 36 13 62t36 42t52 25t61 9q80 -8 153 -49t134 -103t107 -144q6 -12 14 -22q30 88 84 152 q60 72 145 114t197 42q66 -8 114 -35t80 -68t46 -95t14 -114q0 -72 -43 -130t-107 -96t-138 -60q-76 -22 -140 -22q-24 0 -48 1t-44 9t-32 24t-12 48q0 10 3 17t17 10t41 1t75 -12q28 0 82 19t109 49t95 68t40 78t-13 78t-39 68t-61 48t-79 16q-70 -6 -127 -38t-98 -83 t-62 -114t-21 -129v-36q20 -64 26 -132q6 -44 6 -88q10 -24 26 -46q30 -44 85 -80t139 -59t208 -29l356 24q-32 -44 -80 -72t-103 -46t-110 -25t-101 -7q-116 0 -218 37t-180 107l-20 18q-6 -8 -16 -12q-26 -14 -66 -27t-89 -28t-94 -25t-84 -17t-55 -7q-84 0 -178 14 t-172 51t-129 103t-51 170zM808 372q-52 58 -103 91t-95 46t-72 19q-30 0 -71 -4t-85 -14t-89 -27t-80 -41t-56 -57t-21 -77q0 -48 38 -81t92 -54t110 -29t90 -8q56 0 110 6t107 14t105 14t104 6h14q8 0 16 -2q-30 46 -54 94q-12 24 -20 48q-20 32 -40 56z" />
<glyph unicode="&#xe7;" horiz-adv-x="920" d="M258 -416q12 10 23 12t25 2q32 0 63 -19t58 -41t54 -40t57 -18q32 0 61 -1t47 6t29 30t11 71q2 46 -15 72t-45 41t-63 21t-73 13t-74 20t-64 38t-45 69t-19 112q2 40 8 62q-68 26 -122 70q-64 56 -100 140t-36 202q0 88 34 171t93 147t137 102t166 38q40 0 85 -9t85 -29 t66 -53t26 -83q0 -8 -5 -32t-13 -48t-19 -43t-19 -19q0 94 -52 157t-152 63q-76 0 -136 -32t-100 -84t-61 -117t-21 -133q0 -92 30 -152t82 -97t120 -55t144 -24t152 -4t146 6q6 0 20 -8t20 -10v-6q0 -4 1 -4t1 -2q0 -22 -22 -38t-54 -26t-70 -14t-75 -7t-65 -3h-40 q-90 0 -166 16q8 -20 10 -38q4 -20 -6 -30q0 -64 30 -91t76 -39t100 -18t100 -26t77 -64t31 -132q0 -48 -26 -84t-64 -59t-85 -34t-87 -11q-58 0 -96 16t-67 44t-54 63t-57 73z" />
<glyph unicode="&#xe8;" horiz-adv-x="1056" d="M38 536q0 104 31 199t90 167t144 115t197 43q66 -8 115 -36t80 -69t45 -95q12 -52 12 -112q0 -72 -42 -130t-106 -97t-138 -60t-138 -21h-49t-45 8t-32 24t-12 48q0 10 3 17t17 10t42 1q28 -4 76 -12q28 0 81 19t108 49t95 69t40 77q0 40 -13 79t-39 69t-61 48t-79 14 q-70 -6 -127 -38t-97 -83t-62 -113t-22 -130q0 -52 2 -104t15 -102t42 -96t84 -81t139 -58t208 -29l358 24q-32 -44 -81 -72t-104 -45t-109 -25t-102 -8q-116 0 -218 38t-180 107t-123 168t-45 223zM438 1320q24 -20 37 -32t24 -22t24 -22t37 -32q4 -4 12 -18t8 -18 q0 -40 -14 -50q-16 -10 -44 -10q-4 0 -10 2t-26 17t-54 44t-90 83q-16 22 -29 48t-10 40t33 10t102 -40z" />
<glyph unicode="&#xe9;" horiz-adv-x="1056" d="M38 536q0 104 31 199t90 167t144 115t197 43q66 -8 115 -36t80 -69t45 -95q12 -52 12 -112q0 -72 -42 -130t-106 -97t-138 -60t-138 -21h-49t-45 8t-32 24t-12 48q0 10 3 17t17 10t42 1q28 -4 76 -12q28 0 81 19t108 49t95 69t40 77q0 40 -13 79t-39 69t-61 48t-79 14 q-70 -6 -127 -38t-97 -83t-62 -113t-22 -130q0 -52 2 -104t15 -102t42 -96t84 -81t139 -58t208 -29l358 24q-32 -44 -81 -72t-104 -45t-109 -25t-102 -8q-116 0 -218 38t-180 107t-123 168t-45 223zM296 1168q0 42 32 80t77 72t93 64q44 30 76 54q42 -20 37 -48t-42 -66 t-97 -88t-126 -116q-30 0 -40 10t-10 38z" />
<glyph unicode="&#xea;" horiz-adv-x="1056" d="M38 536q0 104 31 199t90 167t144 115t197 43q66 -8 115 -36t80 -69t45 -95q12 -52 12 -112q0 -72 -42 -130t-106 -97t-138 -60t-138 -21h-49t-45 8t-32 24t-12 48q0 10 3 17t17 10t42 1q28 -4 76 -12q28 0 81 19t108 49t95 69t40 77q0 40 -13 79t-39 69t-61 48t-79 14 q-70 -6 -127 -38t-97 -83t-62 -113t-22 -130q0 -52 2 -104t15 -102t42 -96t84 -81t139 -58t208 -29l358 24q-32 -44 -81 -72t-104 -45t-109 -25t-102 -8q-116 0 -218 38t-180 107t-123 168t-45 223zM534 1268q-38 -48 -81 -95t-82 -72t-72 -19t-49 62q56 52 96 84t67 64 t46 74t35 114q4 16 17 17t25 1q28 0 42 -13t32 -43q12 -20 34 -45t45 -52t44 -52t33 -41q14 -22 21 -36t11 -25t6 -23t2 -32q0 -28 -6 -44t-34 -16q-30 0 -55 22t-51 52t-57 63t-69 55z" />
<glyph unicode="&#xeb;" horiz-adv-x="1056" d="M38 536q0 104 31 199t90 167t144 115t197 43q66 -8 115 -36t80 -69t45 -95q12 -52 12 -112q0 -72 -42 -130t-106 -97t-138 -60t-138 -21h-49t-45 8t-32 24t-12 48q0 10 3 17t17 10t42 1q28 -4 76 -12q28 0 81 19t108 49t95 69t40 77q0 40 -13 79t-39 69t-61 48t-79 14 q-70 -6 -127 -38t-97 -83t-62 -113t-22 -130q0 -52 2 -104t15 -102t42 -96t84 -81t139 -58t208 -29l358 24q-32 -44 -81 -72t-104 -45t-109 -25t-102 -8q-116 0 -218 38t-180 107t-123 168t-45 223zM222 1190q0 8 10 24t23 34t29 30q12 12 24 12q32 0 55 -11t37 -27t21 -36 t7 -38q0 -12 -10 -27t-26 -28t-35 -22t-39 -9q-22 0 -40 11t-30 26t-19 32t-7 29zM542 1190q0 8 9 24t24 34t30 30t25 12q30 0 52 -11t37 -27t22 -36t7 -38q0 -12 -10 -27t-25 -28t-36 -22t-39 -9q-22 0 -40 11t-30 26t-19 32t-7 29z" />
<glyph unicode="&#xec;" horiz-adv-x="358" d="M126 692v30q0 22 1 46t1 44v32q-8 62 36 62q20 0 34 -10t26 -30q-6 -104 9 -201t34 -192t36 -191t17 -200q0 -28 -17 -56t-51 -28q-26 0 -45 45t-33 114t-24 153t-15 161t-7 138t-2 83zM168 1180q24 -20 37 -32t24 -23l23 -23q14 -10 38 -30q4 -4 11 -18t7 -20 q0 -40 -14 -49t-42 -9q-4 0 -11 2t-26 16t-53 43t-90 83q-16 22 -30 48t-10 40t34 11t102 -39z" />
<glyph unicode="&#xed;" horiz-adv-x="358" d="M126 692v30q0 22 1 46t1 44v32q-8 62 36 62q20 0 34 -10t26 -30q-6 -104 9 -201t34 -192t36 -191t17 -200q0 -28 -17 -56t-51 -28q-26 0 -45 45t-33 114t-24 153t-15 161t-7 138t-2 83zM-22 1010q0 42 32 80t76 72t91 64t79 54q42 -20 37 -48t-43 -66t-98 -88t-124 -116 q-30 0 -40 10t-10 38z" />
<glyph unicode="&#xee;" horiz-adv-x="358" d="M126 692v30q0 22 1 46t1 44v32q-8 62 36 62q20 0 34 -10t26 -30q-6 -104 9 -201t34 -192t36 -191t17 -200q0 -28 -17 -56t-51 -28q-26 0 -45 45t-33 114t-24 153t-15 161t-7 138t-2 83zM186 1268q-38 -48 -80 -95t-82 -72t-72 -19t-50 62q56 52 96 84t67 64t45 74t38 114 q4 16 16 17t24 1q28 0 42 -13t32 -43q12 -20 34 -45t45 -52t44 -52t33 -41q14 -22 22 -36t11 -25t5 -23t2 -32q0 -28 -5 -44t-35 -16t-55 22t-52 52t-57 63t-68 55z" />
<glyph unicode="&#xef;" horiz-adv-x="358" d="M126 692v30q0 22 1 46t1 44v32q-8 62 36 62q20 0 34 -10t26 -30q-6 -104 9 -201t34 -192t36 -191t17 -200q0 -28 -17 -56t-51 -28q-26 0 -45 45t-33 114t-24 153t-15 161t-7 138t-2 83zM220 1096q0 8 9 24t24 34t29 30t26 12q30 0 52 -11t37 -27t22 -36t7 -38 q0 -12 -10 -27t-25 -28t-35 -21q-20 -10 -40 -10q-22 0 -41 11t-31 26t-18 32t-6 29zM-100 1096q0 8 10 24t23 34t28 30t25 12q32 0 55 -11t37 -27t21 -36t7 -38q0 -12 -10 -27t-26 -28t-35 -22t-39 -9q-22 0 -41 11t-31 26t-18 32t-6 29z" />
<glyph unicode="&#xf0;" horiz-adv-x="834" d="M824 892q4 -8 -12 -26t-40 -36t-54 -31t-54 -13q32 -44 58 -98t44 -111t29 -113t11 -106q0 -72 -18 -141t-57 -123t-101 -87t-148 -33q-76 0 -153 16t-139 52t-102 94t-40 142q0 70 26 129t71 102t108 66t135 23q38 0 68 -1t58 -4t58 -10t68 -21v10q0 40 -26 89t-66 97 q-38 -12 -75 -31t-69 -35t-60 -26t-47 -3t-30 34t-9 83q12 -4 39 7t57 24t59 24t47 7q-28 20 -64 44t-72 45t-68 33q-36 12 -56 12h-8q-8 -2 -23 -10t-30 -17t-27 -17q-16 -8 -20 -8q-12 0 -20 8t-13 19t-8 24t-3 23q0 24 16 40t38 27t47 15t43 2q56 -4 104 -16t90 -32 t82 -54q42 -36 84 -84q42 -4 73 9t55 29t42 29t34 14t32 -17t36 -68zM712 320q6 50 -21 86t-75 61t-112 36t-130 11q-32 0 -71 -21t-72 -53t-55 -70t-22 -70q0 -62 28 -101t71 -63t95 -32q52 -10 104 -10q102 8 171 61t89 165z" />
<glyph unicode="&#xf1;" horiz-adv-x="942" d="M58 780q0 18 13 23t29 5q12 0 17 -6t7 -14t6 -15t14 -7q28 0 68 22t87 48t100 48t105 22q68 0 125 -35t102 -93t77 -130t54 -147t32 -146t10 -123q0 -18 -3 -54t-10 -72t-23 -63t-40 -27q-4 0 -14 1t-20 4t-17 7t-7 12q18 154 0 289t-58 237t-98 162t-124 60 q-62 0 -116 -20t-94 -58t-63 -92t-23 -118t12 -127t27 -126t27 -127t12 -128q-56 0 -94 46t-61 118t-36 162t-18 177t-5 164v121zM598 1072q-52 -20 -93 -10t-78 34t-73 53t-78 49q-56 4 -83 -19t-37 -56t-9 -67t-3 -52t-18 -13t-54 53q-16 48 -9 91t31 74t62 51 q36 22 78 22q4 2 15 1t35 -9t63 -28t103 -58q38 -22 60 -24t54 10l20 6q12 4 12 8l122 96q24 -2 37 -10t18 -18t4 -20t-9 -16q-54 -44 -83 -72t-43 -42t-17 -19t-4 -7t-4 -3t-19 -5z" />
<glyph unicode="&#xf2;" d="M38 408q0 110 48 192t126 138t175 83t195 27q52 0 97 -19t86 -52t73 -76t55 -89t35 -93t12 -91q0 -102 -40 -182t-108 -135t-154 -84t-176 -29q-92 0 -169 29t-134 81t-89 129t-32 171zM136 424q0 -62 23 -119t64 -99t97 -67t120 -25q34 -4 83 11t98 44t94 70t75 90 t37 102t-18 106t-91 102t-182 91q-66 0 -137 -19t-129 -57t-96 -96t-38 -134zM522 1096q24 -20 37 -32t24 -22t24 -22t37 -32q4 -4 12 -18t8 -18q0 -40 -14 -50q-16 -10 -44 -10q-4 0 -10 2t-26 17t-54 44t-90 83q-16 22 -29 48t-10 40t33 10t102 -40z" />
<glyph unicode="&#xf3;" d="M38 408q0 110 48 192t126 138t175 83t195 27q52 0 97 -19t86 -52t73 -76t55 -89t35 -93t12 -91q0 -102 -40 -182t-108 -135t-154 -84t-176 -29q-92 0 -169 29t-134 81t-89 129t-32 171zM136 424q0 -62 23 -119t64 -99t97 -67t120 -25q34 -4 83 11t98 44t94 70t75 90 t37 102t-18 106t-91 102t-182 91q-66 0 -137 -19t-129 -57t-96 -96t-38 -134zM314 970q0 42 32 80t77 72t93 64q44 30 76 54q42 -20 37 -48t-42 -66t-97 -88t-126 -116q-30 0 -40 10t-10 38z" />
<glyph unicode="&#xf4;" d="M38 408q0 110 48 192t126 138t175 83t195 27q52 0 97 -19t86 -52t73 -76t55 -89t35 -93t12 -91q0 -102 -40 -182t-108 -135t-154 -84t-176 -29q-92 0 -169 29t-134 81t-89 129t-32 171zM136 424q0 -62 23 -119t64 -99t97 -67t120 -25q34 -4 83 11t98 44t94 70t75 90 t37 102t-18 106t-91 102t-182 91q-66 0 -137 -19t-129 -57t-96 -96t-38 -134zM488 1120q-38 -48 -81 -95t-82 -72t-72 -19t-49 62q56 52 96 84t67 64t46 74t35 114q4 16 17 17t25 1q28 0 42 -13t32 -43q12 -20 34 -45t45 -52t44 -52t33 -41q14 -22 21 -36t11 -25t6 -23 t2 -32q0 -28 -6 -44t-34 -16q-30 0 -55 22t-51 52t-57 63t-69 55z" />
<glyph unicode="&#xf5;" d="M38 408q0 110 48 192t126 138t175 83t195 27q52 0 97 -19t86 -52t73 -76t55 -89t35 -93t12 -91q0 -102 -40 -182t-108 -135t-154 -84t-176 -29q-92 0 -169 29t-134 81t-89 129t-32 171zM136 424q0 -62 23 -119t64 -99t97 -67t120 -25q34 -4 83 11t98 44t94 70t75 90 t37 102t-18 106t-91 102t-182 91q-66 0 -137 -19t-129 -57t-96 -96t-38 -134zM692 898q-52 -20 -93 -10t-78 34t-73 53t-78 49q-56 4 -83 -19t-37 -56t-9 -67t-3 -52t-18 -13t-54 53q-16 48 -9 91t31 74t62 51q36 22 78 22q4 2 15 1t35 -9t63 -28t103 -58q38 -22 60 -24 t54 10l20 6q12 4 12 8l122 96q24 -2 37 -10t18 -18t4 -20t-9 -16q-54 -44 -83 -72t-43 -42t-17 -19t-4 -7t-4 -3t-19 -5z" />
<glyph unicode="&#xf6;" d="M38 408q0 110 48 192t126 138t175 83t195 27q52 0 97 -19t86 -52t73 -76t55 -89t35 -93t12 -91q0 -102 -40 -182t-108 -135t-154 -84t-176 -29q-92 0 -169 29t-134 81t-89 129t-32 171zM136 424q0 -62 23 -119t64 -99t97 -67t120 -25q34 -4 83 11t98 44t94 70t75 90 t37 102t-18 106t-91 102t-182 91q-66 0 -137 -19t-129 -57t-96 -96t-38 -134zM236 976q0 8 10 24t23 34t29 30q12 12 24 12q32 0 55 -11t37 -27t21 -36t7 -38q0 -12 -10 -27t-26 -28t-35 -22t-39 -9q-22 0 -40 11t-30 26t-19 32t-7 29zM556 976q0 8 9 24t24 34t30 30t25 12 q30 0 52 -11t37 -27t22 -36t7 -38q0 -12 -10 -27t-25 -28t-36 -22t-39 -9q-22 0 -40 11t-30 26t-19 32t-7 29z" />
<glyph unicode="&#xf7;" horiz-adv-x="688" d="M298 200q0 24 18 38t40 14q24 0 31 -14t7 -38q0 -28 -11 -38t-41 -10q-44 -2 -44 48zM296 644q0 16 4 32t26 16q18 0 35 -12t29 -29t20 -37q4 -20 0 -38q0 -4 -14 -18l-22 -22q-4 -2 -4 0h-6q-16 0 -29 12t-22 29t-13 35t-4 32zM420 487.986q28 0 60 -1.6748t60 -9.21191 q28 -7.53613 46 -23.4473q18 -15.9102 18 -46.0566q0 -36.8457 -38 -36.8457q-44 0 -81 10.0488t-83 10.0488q-58 0 -95 -5.86133q-37 -5.8623 -69 -11.7246q-32 -5.86133 -69 -11.7227q-37 -5.8623 -95 -5.8623q0 58.6182 26 84.5771q26 25.96 69 33.4961 q43 7.53711 96 6.69922q53 -0.836914 107 5.8623h6q6 0 14 0.836914q8 0.837891 16 0.837891h12z" />
<glyph unicode="&#xf8;" d="M114 42q-2 16 14 42q10 16 22 32q-54 48 -82 120q-32 76 -30 172q0 110 48 192t126 138t175 83t195 27q32 0 62 -6q4 14 12 30q12 26 31 47t49 25q20 -4 30 -9t14 -13t3 -17t-1 -17q2 -18 -22 -68q-6 -14 -14 -28q6 -8 18 -16q40 -32 73 -75t56 -89t35 -93t12 -91 q0 -102 -40 -182t-108 -135t-154 -84t-176 -29q-92 2 -170 30q-24 8 -44 16q-8 -6 -12 -10q-36 -34 -54 -34q-30 0 -49 14t-19 28zM440 114q34 -4 83 11t98 44t94 70t75 90t37 102t-19 105q-24 56 -92 104q-16 14 -36 24q-28 -48 -62 -102q-46 -78 -98 -156t-104 -152 q-48 -66 -88 -118q52 -20 112 -22zM136 424q0 -62 23 -119t63 -99l2 -4l24 22l332 490q-20 8 -44 16q-66 0 -137 -19t-129 -57t-96 -96t-38 -134z" />
<glyph unicode="&#xf9;" horiz-adv-x="1028" d="M768 290q-46 -26 -79 -63t-67 -70t-75 -57t-105 -24q-72 0 -130 31t-103 84t-78 120t-54 138t-32 140t-11 125q-16 108 6 169t53 78t53 -8t6 -87q-4 -8 -6 -25t-4 -35t-4 -34t-2 -22q0 -42 8 -99t25 -119t43 -123t62 -109t83 -78t103 -30q36 0 82 35t87 84t70 101t29 88 q0 20 1 66t1 98t-1 98t-1 64q12 20 26 31t34 11q24 0 40 -32t26 -82t14 -108t6 -112t4 -95t6 -55q10 -40 29 -90t37 -97t32 -86t14 -59q0 -30 -17 -36t-43 -6q-32 0 -47 16t-22 41t-11 55t-13 62t-26 60t-49 46zM402 1342q24 -20 37 -32t24 -22t24 -22t37 -32q4 -4 12 -18 t8 -18q0 -40 -14 -50q-16 -10 -44 -10q-4 0 -10 2t-26 17t-54 44t-90 83q-16 22 -29 48t-10 40t33 10t102 -40z" />
<glyph unicode="&#xfa;" horiz-adv-x="1028" d="M768 290q-46 -26 -79 -63t-67 -70t-75 -57t-105 -24q-72 0 -130 31t-103 84t-78 120t-54 138t-32 140t-11 125q-16 108 6 169t53 78t53 -8t6 -87q-4 -8 -6 -25t-4 -35t-4 -34t-2 -22q0 -42 8 -99t25 -119t43 -123t62 -109t83 -78t103 -30q36 0 82 35t87 84t70 101t29 88 q0 20 1 66t1 98t-1 98t-1 64q12 20 26 31t34 11q24 0 40 -32t26 -82t14 -108t6 -112t4 -95t6 -55q10 -40 29 -90t37 -97t32 -86t14 -59q0 -30 -17 -36t-43 -6q-32 0 -47 16t-22 41t-11 55t-13 62t-26 60t-49 46zM324 1120q0 42 32 80t77 72t93 64q44 30 76 54q42 -20 37 -48 t-42 -66t-97 -88t-126 -116q-30 0 -40 10t-10 38z" />
<glyph unicode="&#xfb;" horiz-adv-x="1028" d="M768 290q-46 -26 -79 -63t-67 -70t-75 -57t-105 -24q-72 0 -130 31t-103 84t-78 120t-54 138t-32 140t-11 125q-16 108 6 169t53 78t53 -8t6 -87q-4 -8 -6 -25t-4 -35t-4 -34t-2 -22q0 -42 8 -99t25 -119t43 -123t62 -109t83 -78t103 -30q36 0 82 35t87 84t70 101t29 88 q0 20 1 66t1 98t-1 98t-1 64q12 20 26 31t34 11q24 0 40 -32t26 -82t14 -108t6 -112t4 -95t6 -55q10 -40 29 -90t37 -97t32 -86t14 -59q0 -30 -17 -36t-43 -6q-32 0 -47 16t-22 41t-11 55t-13 62t-26 60t-49 46zM520 1268q-38 -48 -81 -95t-82 -72t-72 -19t-49 62 q56 52 96 84t67 64t46 74t35 114q4 16 17 17t25 1q28 0 42 -13t32 -43q12 -20 34 -45t45 -52t44 -52t33 -41q14 -22 21 -36t11 -25t6 -23t2 -32q0 -28 -6 -44t-34 -16q-30 0 -55 22t-51 52t-57 63t-69 55z" />
<glyph unicode="&#xfc;" horiz-adv-x="1028" d="M768 290q-46 -26 -79 -63t-67 -70t-75 -57t-105 -24q-72 0 -130 31t-103 84t-78 120t-54 138t-32 140t-11 125q-16 108 6 169t53 78t53 -8t6 -87q-4 -8 -6 -25t-4 -35t-4 -34t-2 -22q0 -42 8 -99t25 -119t43 -123t62 -109t83 -78t103 -30q36 0 82 35t87 84t70 101t29 88 q0 20 1 66t1 98t-1 98t-1 64q12 20 26 31t34 11q24 0 40 -32t26 -82t14 -108t6 -112t4 -95t6 -55q10 -40 29 -90t37 -97t32 -86t14 -59q0 -30 -17 -36t-43 -6q-32 0 -47 16t-22 41t-11 55t-13 62t-26 60t-49 46zM202 1148q0 8 10 24t23 34t29 30q12 12 24 12q32 0 55 -11 t37 -27t21 -36t7 -38q0 -12 -10 -27t-26 -28t-35 -22t-39 -9q-22 0 -40 11t-30 26t-19 32t-7 29zM522 1148q0 8 9 24t24 34t30 30t25 12q30 0 52 -11t37 -27t22 -36t7 -38q0 -12 -10 -27t-25 -28t-36 -22t-39 -9q-22 0 -40 11t-30 26t-19 32t-7 29z" />
<glyph unicode="&#xfd;" d="M92 -624v27t4 22t12 15q12 4 28 4q30 -34 77 -87t107 -103t126 -88t134 -38q56 2 96 29t68 71t46 100t29 114t16 112t11 94q4 20 9 67t10 104t8 119t-1 113t-16 84t-36 33q-34 0 -72 -20t-79 -45t-83 -45t-82 -20q-76 0 -139 31t-115 81t-92 117t-67 139t-40 144t-13 136 q0 14 -3 46t1 66t18 60t44 26q8 0 13 -32t12 -83t18 -117t29 -134t44 -134t64 -117t91 -83t121 -32q44 0 92 19t91 49t79 68q36 40 56 78q0 8 -2 38t-4 69t-4 85t-4 87t-3 71t-1 38q4 122 18 149t34 -17t42 -148t41 -243t30 -303t9 -329t-21 -319t-61 -273t-110 -193 t-168 -78q-40 0 -95 15t-111 41t-111 62t-98 78t-70 88t-27 92zM310 1104q0 42 32 80t77 72t93 64q44 30 76 54q42 -20 37 -48t-42 -66t-97 -88t-126 -116q-30 0 -40 10t-10 38z" />
<glyph unicode="&#xfe;" horiz-adv-x="1066" d="M74 376q0 24 1 77t1 119t3 139t8 135t13 110q4 46 16 62l98 24l-54 -404q64 46 152 77t184 40t190 -4t168 -58t122 -123t48 -194q0 -80 -30 -133t-82 -82t-115 -39t-129 -10q-44 0 -108 -1t-130 4t-130 18t-108 39q-4 -86 -5 -152t-2 -127t1 -123t4 -140l-2 -6v-4 q-4 -4 -16 -3t-30 4t-34 5t-26 -2q-20 108 -24 223t-1 217t10 185t7 127zM212 458q-4 -40 -8 -81t-8 -85q48 -8 106 -19t114 -20t106 -17t86 -8q32 0 85 6t100 23t81 46t34 77q0 68 -30 118t-78 84t-108 51t-120 17q-8 0 -39 -5t-71 -13t-84 -22t-81 -32t-61 -42t-24 -54 v-24z" />
<glyph unicode="&#xff;" d="M92 -624v27t4 22t12 15q12 4 28 4q30 -34 77 -87t107 -103t126 -88t134 -38q56 2 96 29t68 71t46 100t29 114t16 112t11 94q4 20 9 67t10 104t8 119t-1 113t-16 84t-36 33q-34 0 -72 -20t-79 -45t-83 -45t-82 -20q-76 0 -139 31t-115 81t-92 117t-67 139t-40 144t-13 136 q0 14 -3 46t1 66t18 60t44 26q8 0 13 -32t12 -83t18 -117t29 -134t44 -134t64 -117t91 -83t121 -32q44 0 92 19t91 49t79 68q36 40 56 78q0 8 -2 38t-4 69t-4 85t-4 87t-3 71t-1 38q4 122 18 149t34 -17t42 -148t41 -243t30 -303t9 -329t-21 -319t-61 -273t-110 -193 t-168 -78q-40 0 -95 15t-111 41t-111 62t-98 78t-70 88t-27 92zM208 1100q0 8 10 24t23 34t29 30q12 12 24 12q32 0 55 -11t37 -27t21 -36t7 -38q0 -12 -10 -27t-26 -28t-35 -22t-39 -9q-22 0 -40 11t-30 26t-19 32t-7 29zM528 1100q0 8 9 24t24 34t30 30t25 12q30 0 52 -11 t37 -27t22 -36t7 -38q0 -12 -10 -27t-25 -28t-36 -22t-39 -9q-22 0 -40 11t-30 26t-19 32t-7 29z" />
<glyph unicode="&#x152;" horiz-adv-x="1738" d="M908 870q-8 0 -14 2q10 -16 10 -22v-276q10 -10 59 -11t115 5t140 15t138 18t108 14t48 3q6 0 23 1t36 2t36 2t23 1q0 -28 -31 -48t-81 -32t-115 -21t-133 -14t-134 -8t-119 -7t-87 -9t-36 -13q-10 -26 -15 -55t-6 -61t-1 -64v-56v-20q0 -16 1 -32t1 -32v-16 q8 -16 35 -24t59 -9t62 0t42 1q136 0 272 16t272 16h12q8 -2 30 -7t26 -9q4 -2 13 -6t9 -8q0 -28 -42 -47t-107 -31t-142 -18t-146 -7t-121 -1h-64q-106 0 -179 18t-111 66q-20 -34 -63 -52t-123 -30q-124 0 -229 41t-180 114t-118 176t-43 229q-4 88 23 164t77 134t122 94 t158 44q76 -12 136 -32t104 -47t75 -62t53 -75v124q0 24 7 37t34 18t77 4t135 -3t211 -5t306 -1q20 -6 40 -13t37 -17t28 -24t11 -34q0 -4 -8 -10q-8 -4 -12 -4l-96 28zM132 572q-2 -92 39 -171t107 -140t148 -99t164 -50q40 0 73 23t56 64t36 100t13 131q-20 148 -65 240 t-105 141t-128 61t-134 0q-62 -22 -101 -57t-62 -75t-32 -84t-9 -84z" />
<glyph unicode="&#x153;" horiz-adv-x="1794" d="M38 408q0 110 48 192t126 138t175 83t195 27q52 0 97 -19t85 -53q40 -32 72 -76l8 -8q30 76 78 138q60 72 146 115t196 43q66 -8 115 -36t81 -69t46 -94t12 -113q0 -72 -43 -130t-107 -97t-138 -60t-138 -21h-49t-44 8t-31 24t-12 48q0 10 3 17t16 10t41 1q26 -4 76 -12 q28 0 82 19t108 49t95 69t41 77q0 40 -14 79t-39 69t-61 48t-78 14q-70 -6 -128 -38t-98 -83t-62 -113q-16 -52 -22 -102q8 -18 12 -34q14 -46 12 -90q0 -52 -10 -98q2 -6 2 -14q14 -50 43 -95t84 -80t139 -57q86 -24 210 -30l356 24q-32 -44 -80 -72t-103 -45t-110 -25 t-101 -8q-116 0 -219 38t-181 106q-58 54 -100 124q-32 -48 -78 -84q-68 -56 -154 -85t-176 -29q-92 0 -169 29t-134 81t-89 129t-32 171zM802 464q0 40 4 76q-26 52 -90 100q-64 50 -180 90q-66 0 -137 -19t-129 -57t-96 -96t-38 -134q0 -62 23 -119t64 -99t97 -67t120 -25 q34 -4 83 11t98 44t94 70t73 89q12 20 20 40q-6 46 -6 96z" />
<glyph unicode="&#x178;" horiz-adv-x="826" d="M404 8v21v32v32v21q0 86 9 153t24 131t37 131t46 151q0 4 1 15t1 15q4 2 -35 20t-95 51t-122 83t-121 116t-88 148t-25 182q2 0 11 1t20 2t21 3h12q14 -40 38 -90t59 -102t77 -101t89 -88t98 -62t105 -23q36 80 57 127t33 73t16 39t6 28t4 36t10 65q0 8 16 17t33 11 t32 -4t15 -24q0 -110 -24 -209t-60 -193t-76 -187t-70 -191t-43 -204t5 -226q-12 -22 -24 -31t-32 -9t-34 9t-26 31zM160 1462q0 8 10 24t23 34t29 30q12 12 24 12q32 0 55 -11t37 -27t21 -36t7 -38q0 -12 -10 -27t-26 -28t-35 -22t-39 -9q-22 0 -40 11t-30 26t-19 32t-7 29 zM480 1462q0 8 9 24t24 34t30 30t25 12q30 0 52 -11t37 -27t22 -36t7 -38q0 -12 -10 -27t-25 -28t-36 -22t-39 -9q-22 0 -40 11t-30 26t-19 32t-7 29z" />
<glyph unicode="&#x2c6;" horiz-adv-x="768" d="M384 1268q-38 -48 -81 -95t-82 -72t-72 -19t-49 62q56 52 96 84t67 64t46 74t35 114q4 16 17 17t25 1q28 0 42 -13t32 -43q12 -20 34 -45t45 -52t44 -52t33 -41q14 -22 21 -36t11 -25t6 -23t2 -32q0 -28 -6 -44t-34 -16q-30 0 -55 22t-51 52t-57 63t-69 55z" />
<glyph unicode="&#x2dc;" horiz-adv-x="824" d="M582 898q-52 -20 -93 -10t-78 34t-73 53t-78 49q-56 4 -83 -19t-37 -56t-9 -67t-3 -52t-18 -13t-54 53q-16 48 -9 91t31 74t62 51q36 22 78 22q4 2 15 1t35 -9t63 -28t103 -58q38 -22 60 -24t54 10l20 6q12 4 12 8l122 96q24 -2 37 -10t18 -18t4 -20t-9 -16 q-54 -44 -83 -72t-43 -42t-17 -19t-4 -7t-4 -3t-19 -5z" />
<glyph unicode="&#x2000;" horiz-adv-x="994" />
<glyph unicode="&#x2001;" horiz-adv-x="1988" />
<glyph unicode="&#x2002;" horiz-adv-x="994" />
<glyph unicode="&#x2003;" horiz-adv-x="1988" />
<glyph unicode="&#x2004;" horiz-adv-x="662" />
<glyph unicode="&#x2005;" horiz-adv-x="497" />
<glyph unicode="&#x2006;" horiz-adv-x="331" />
<glyph unicode="&#x2007;" horiz-adv-x="331" />
<glyph unicode="&#x2008;" horiz-adv-x="248" />
<glyph unicode="&#x2009;" horiz-adv-x="397" />
<glyph unicode="&#x200a;" horiz-adv-x="110" />
<glyph unicode="&#x2010;" horiz-adv-x="768" d="M508 654q28 0 60 -1t60 -11t46 -29t18 -55q0 -42 -38 -42q-44 0 -81 11t-83 11q-58 0 -115 -7t-115 -15t-115 -15t-115 -7q0 48 22 76t58 45t81 23t93 7t94 2t82 5h6t14 1t16 1h12z" />
<glyph unicode="&#x2011;" horiz-adv-x="768" d="M508 654q28 0 60 -1t60 -11t46 -29t18 -55q0 -42 -38 -42q-44 0 -81 11t-83 11q-58 0 -115 -7t-115 -15t-115 -15t-115 -7q0 48 22 76t58 45t81 23t93 7t94 2t82 5h6t14 1t16 1h12z" />
<glyph unicode="&#x2012;" horiz-adv-x="768" d="M508 654q28 0 60 -1t60 -11t46 -29t18 -55q0 -42 -38 -42q-44 0 -81 11t-83 11q-58 0 -115 -7t-115 -15t-115 -15t-115 -7q0 48 22 76t58 45t81 23t93 7t94 2t82 5h6t14 1t16 1h12z" />
<glyph unicode="&#x2013;" horiz-adv-x="588" d="M376 652q28 0 60 -2t60 -11t46 -28t18 -55q0 -44 -38 -44q-44 0 -81 12t-83 12q-58 0 -95 -7t-69 -14t-69 -14t-95 -7q0 70 26 101t69 40t96 8t107 7h6q6 0 14 1t16 1h12z" />
<glyph unicode="&#x2014;" horiz-adv-x="1050" d="M796 650q28 0 62 -2t61 -11t45 -28t18 -55q-2 -42 -38 -42q-44 0 -81 11t-83 11q-40 0 -99 -3t-129 -7t-146 -10t-147 -10t-131 -7t-98 -3q0 46 43 75t112 44t152 21t163 8t148 2t104 4q2 0 19 1t25 1z" />
<glyph unicode="&#x2018;" horiz-adv-x="210" d="M40 1424v21t4 16t12 15l20 20q22 -12 39 -42t28 -69t17 -86t10 -92t5 -83t1 -62q0 -28 -4 -46t-36 -18q-26 0 -43 30t-28 75t-16 99t-7 102t-2 80v40z" />
<glyph unicode="&#x2019;" horiz-adv-x="210" d="M40 1424v21t4 16t12 15l20 20q22 -12 39 -42t28 -69t17 -86t10 -92t5 -83t1 -62q0 -28 -4 -46t-36 -18q-26 0 -43 30t-28 75t-16 99t-7 102t-2 80v40z" />
<glyph unicode="&#x201a;" horiz-adv-x="210" d="M48 364q0 12 1 20t4 15t11 16t22 21q22 -12 38 -42t28 -70t18 -88t10 -92t4 -82v-62q0 -28 -4 -46t-36 -18q-26 0 -43 30t-27 76t-16 100t-8 102t-2 80v40z" />
<glyph unicode="&#x201c;" horiz-adv-x="480" d="M308 1096q-4 68 -8 124t-6 107t-3 101t-1 108v76q2 4 8 12l10 10h6l4 2q26 0 44 -38t30 -94t18 -123t10 -126t4 -101v-50v-68q-4 -6 -18 -20q-14 -12 -20 -16l-6 -2h-4q-14 0 -25 14t-21 32t-16 33t-6 19zM20 1556q6 16 17 18t23 2q20 0 36 -29t30 -76t27 -103l26 -112 t26 -104t27 -76q-12 -24 -24 -32t-34 -8q-28 0 -50 32t-39 82t-29 112t-20 119t-11 105t-5 70z" />
<glyph unicode="&#x201d;" horiz-adv-x="480" d="M308 1096q-4 68 -8 124t-6 107t-3 101t-1 108v76q2 4 8 12l10 10h6l4 2q26 0 44 -38t30 -94t18 -123t10 -126t4 -101v-50v-68q-4 -6 -18 -20q-14 -12 -20 -16l-6 -2h-4q-14 0 -25 14t-21 32t-16 33t-6 19zM20 1556q6 16 17 18t23 2q20 0 36 -29t30 -76t27 -103l26 -112 t26 -104t27 -76q-12 -24 -24 -32t-34 -8q-28 0 -50 32t-39 82t-29 112t-20 119t-11 105t-5 70z" />
<glyph unicode="&#x201e;" horiz-adv-x="700" d="M438 -162q-4 68 -8 125t-6 108t-4 100t-2 109v76q2 4 10 11t10 9h4l6 2q26 0 43 -37t29 -94t19 -124t10 -125t4 -100t1 -50v-68q-4 -8 -19 -22t-21 -16l-4 -2h-6q-14 0 -25 14t-20 32t-15 33t-6 19zM148 300q6 16 17 18t23 2q20 0 37 -30t31 -76t27 -103t25 -112t25 -103 t29 -78q-12 -22 -25 -30t-33 -8q-28 0 -50 32t-39 82t-29 112t-20 120t-12 105t-6 69z" />
<glyph unicode="&#x2022;" horiz-adv-x="700" d="M214 528q0 18 17 50t41 65t48 57q28 24 44 24q54 0 93 -21t64 -54t38 -71t13 -70q0 -24 -18 -54t-46 -57t-62 -45t-68 -18q-40 0 -69 22t-51 53t-33 64t-11 55z" />
<glyph unicode="&#x2026;" horiz-adv-x="1254" d="M90 192q0 16 13 48t31 65t37 57t33 24q40 0 70 -21t49 -53t29 -70t10 -70q0 -24 -14 -54t-35 -56t-47 -44t-52 -18q-30 0 -52 21t-39 52t-25 64t-8 55zM508 192q0 16 13 48t31 65t37 57t33 24q40 0 70 -21t49 -53t28 -70t9 -70q0 -24 -13 -54t-33 -56t-48 -44t-52 -18 q-30 0 -52 21t-39 52t-25 64t-8 55zM926 192q0 16 13 48t31 65t37 57t33 24q40 0 70 -21t49 -53t28 -70t9 -70q0 -24 -13 -54t-34 -56t-47 -44t-52 -18q-30 0 -52 21t-39 52t-25 64t-8 55z" />
<glyph unicode="&#x202f;" horiz-adv-x="397" />
<glyph unicode="&#x2039;" d="M154 366q4 2 32 23t74 52t102 71t113 80t109 76t90 60q20 16 47 32t55 32t56 29t52 23q4 -4 13 -11t18 -16l17 -17t10 -12q0 -2 -24 -20t-62 -43t-83 -56t-86 -58t-72 -47t-37 -28q-44 -30 -93 -59t-97 -62t-94 -69t-82 -78q4 -8 30 -17t62 -17t77 -15t78 -13t64 -10 t35 -4l78 -12t104 -24t91 -42t39 -66q0 -48 -52 -48q-20 0 -41 8t-42 17t-41 19t-40 14q-16 4 -56 8l-94 10q-54 6 -117 14t-125 17t-116 22t-89 28t-48 33t11 42z" />
<glyph unicode="&#x203a;" horiz-adv-x="826" d="M56 68q4 18 39 49t86 68t114 80t123 85t113 84t83 78t34 64t-32 40q-36 2 -89 13t-112 32t-119 48t-110 57t-84 60t-44 58q0 2 -1 9t-1 11q0 26 20 32q16 8 40 8q32 0 55 -14t43 -33t43 -40t51 -31q104 -40 225 -79t237 -55q32 -10 36 -29t4 -43q8 -36 -4 -66t-34 -55 t-49 -48t-49 -47q-10 -8 -56 -42t-107 -80t-130 -95t-128 -91t-100 -70t-49 -28q-34 0 -41 21t-7 49z" />
<glyph unicode="&#x205f;" horiz-adv-x="497" />
<glyph unicode="&#x20ac;" horiz-adv-x="1518" d="M328 520q-76 0 -152 -13t-156 -13v82l12 4l25 5t31 6t28 5h20q20 2 51 5t61 5t53 6t27 4q12 2 33 9t25 9l96 270q2 4 -14 10t-26 6h-8q-8 0 -19 1t-23 1h-16q-48 0 -95 -7l-94 -14l-94 -14t-95 -7q0 60 35 92t93 45t127 15t138 3t129 8t96 33q68 46 132 106t134 114 t146 91t168 37q52 0 92 -28t40 -86q0 -20 -2 -42t-20 -40q-14 12 -24 29t-21 32t-25 27q-12 12 -32 12q-4 0 -33 -10t-71 -26t-90 -36t-89 -41t-68 -43t-27 -38v-22q26 -4 77 -13t103 -25t91 -39t39 -55q0 -20 -15 -29t-35 -9h-10q-4 0 -14 3t-23 6t-24 6t-15 3h-12h-8 q-4 0 -12 -3t-18 -6t-18 -6t-10 -3h-10q-20 0 -36 3t-31 7t-33 7t-42 3q-52 0 -98 -19t-80 -53t-54 -80t-20 -102q0 -22 13 -31t35 -9q50 0 98 7t98 16t99 15t101 6q20 0 41 1t41 -1t38 -11t32 -27q-16 -28 -38 -41t-47 -15t-53 -2q-26 4 -54 0q-16 -4 -47 -8t-71 -10 t-84 -12t-84 -12t-72 -10q-28 -4 -44 -6q-34 -4 -46 -30t-12 -56q0 -76 14 -141t48 -113t89 -76t137 -28q80 0 163 15t165 34t164 34t160 15q40 0 51 -10t11 -36q0 -22 -42 -44t-108 -40t-147 -34t-158 -27t-142 -17t-97 -6q-118 0 -191 39t-115 97t-60 125t-27 125t-18 97 t-31 39z" />
<glyph unicode="&#x2122;" horiz-adv-x="2286" d="M2094 40q-4 20 -8 64t-10 98t-12 115t-12 116t-11 98t-5 65q-4 20 -4 50t-4 62t-16 60t-34 40q-74 -40 -144 -60t-152 -20q-116 0 -234 144q-8 0 -12 -12t-6 -28t-1 -34t1 -30l-2 -668q0 -24 -24 -34t-42 -10q-30 0 -42 27t-16 53v288q0 132 12 260t12 260q0 26 -8 49 t-20 43q-70 6 -138 25t-137 35t-141 20t-146 -16q0 -92 11 -202t26 -224t34 -228t37 -214q4 -26 17 -51t27 -48t24 -47t10 -48q0 -16 -10 -25t-24 -12t-30 -3h-26q-40 0 -63 32t-35 75t-16 89t-8 74q-16 110 -28 213t-21 206t-16 208t-15 217q-140 0 -289 19t-285 41 q-18 -4 -28 5t-16 24t-7 29t-1 22h112t190 -3t239 -8t254 -14t238 -22t193 -33q-4 20 -4 38q0 42 40 42q50 0 84 -30t60 -72t51 -94t57 -94t75 -72t107 -30q80 -4 133 25t87 74t54 98t37 98t35 73t46 22q22 4 34 -10t18 -35t6 -41v-28q0 -76 -12 -145t-12 -147 q0 -102 16 -202t34 -201t34 -201t16 -200q0 -16 -5 -26t-13 -14t-19 -4h-21q-26 0 -47 6t-29 38z" />
<glyph unicode="&#x2212;" horiz-adv-x="588" d="M376 652q28 0 60 -2t60 -11t46 -28t18 -55q0 -44 -38 -44q-44 0 -81 12t-83 12q-58 0 -95 -7t-69 -14t-69 -14t-95 -7q0 70 26 101t69 40t96 8t107 7h6q6 0 14 1t16 1h12z" />
<glyph unicode="&#x25fc;" horiz-adv-x="790" d="M0 790h790v-790h-790v790z" />
<glyph unicode="&#xfb01;" horiz-adv-x="1130" d="M680 636v44q0 22 1 47t1 45v32q-8 62 38 62q20 0 34 -10q14 -12 26 -32q-6 -104 8 -201t34 -191t37 -190t17 -200q0 -28 -16 -56t-52 -28q-26 0 -46 45t-33 114t-23 153t-16 160q-4 58 -6 106q-16 -6 -36 -10q-44 -8 -110 -7t-144 17q0 -76 35 -142t77 -126t78 -116 t36 -112q0 -26 -16 -34q-12 -8 -36 -8q-20 0 -43 15t-42 37t-35 46q-14 24 -22 40l-23 46l-35 70t-40 83t-39 83t-33 72q-16 30 -22 46l-22 22q-10 -4 -37 -9t-57 -11t-58 -12t-40 -6h-10q-16 0 -22 11t-6 27q0 34 24 52t58 26t71 11t61 5q-4 60 -6 142t8 170t33 173t66 153 t109 110t162 42q54 0 118 -27t119 -71t91 -99t36 -111h-46q-40 0 -71 30t-65 67t-72 67t-86 30q-68 0 -124 -30t-96 -80t-60 -112t-20 -126v-20l36 -286q4 -4 22 -7t57 -8t104 -11t165 -12h4zM580 1154q0 24 13 31t35 7q14 2 37 -17t39 -43t18 -46t-30 -26h-12q-30 0 -49 3 t-30 13t-16 28t-5 50z" />
<glyph unicode="&#xfb02;" horiz-adv-x="1482" d="M676 -4q-20 142 -26 284q-6 124 -6 246q-44 -6 -106 -6q-66 0 -144 16q0 -76 35 -142t77 -126t78 -116t36 -112q0 -26 -16 -34q-12 -8 -36 -8q-20 0 -43 15t-42 37t-35 46q-14 24 -22 40l-23 46l-35 70t-40 83t-39 83t-33 72q-16 30 -22 46l-22 22q-10 -4 -37 -9t-57 -11 t-58 -12t-40 -6h-10q-16 0 -22 11t-6 27q0 34 24 52t58 26t71 11t61 5q-4 60 -6 142t8 170t33 173t66 153t109 110t162 42q54 0 118 -27t119 -71t91 -99t36 -111h-46q-40 0 -71 30t-65 67t-72 67t-86 30q-68 0 -124 -30t-96 -80t-60 -112t-20 -126v-20l36 -286q4 -4 22 -7 t57 -8t103 -11q54 -6 134 -10q2 104 6 206q4 140 2 282q0 16 12 23t28 7q18 0 32 -14t24 -33t15 -38t5 -31q12 -286 16 -477t0 -308t-13 -173t-23 -77t-33 -17t-39 8z" />
</font>
</defs>
</svg>
